G04 #@! TF.GenerationSoftware,KiCad,Pcbnew,(5.1.6)-1*
G04 #@! TF.CreationDate,2020-11-05T21:16:00+01:00*
G04 #@! TF.ProjectId,lag_tester,6c61675f-7465-4737-9465-722e6b696361,rev?*
G04 #@! TF.SameCoordinates,Original*
G04 #@! TF.FileFunction,Soldermask,Bot*
G04 #@! TF.FilePolarity,Negative*
%FSLAX46Y46*%
G04 Gerber Fmt 4.6, Leading zero omitted, Abs format (unit mm)*
G04 Created by KiCad (PCBNEW (5.1.6)-1) date 2020-11-05 21:16:00*
%MOMM*%
%LPD*%
G01*
G04 APERTURE LIST*
%ADD10O,0.900000X0.900000*%
%ADD11O,2.400000X1.650000*%
%ADD12C,1.924000*%
%ADD13C,3.600000*%
%ADD14C,0.900000*%
%ADD15C,1.150000*%
%ADD16O,3.000000X1.600000*%
%ADD17O,2.500000X1.700000*%
%ADD18R,1.900000X1.650000*%
%ADD19R,1.700000X1.900000*%
%ADD20R,1.650000X1.900000*%
%ADD21R,1.900000X1.700000*%
%ADD22R,2.300000X2.400000*%
%ADD23C,2.300000*%
%ADD24R,2.400000X2.300000*%
%ADD25C,0.100000*%
%ADD26C,1.000000*%
%ADD27C,3.000000*%
%ADD28R,2.127200X2.127200*%
%ADD29O,2.127200X2.127200*%
%ADD30R,2.000000X2.000000*%
%ADD31C,2.000000*%
G04 APERTURE END LIST*
D10*
X134455000Y-108490000D03*
X134455000Y-112490000D03*
D11*
X137205000Y-106915000D03*
X137205000Y-114065000D03*
X133405000Y-106915000D03*
X133405000Y-114065000D03*
D12*
X78500000Y-99000000D03*
X75960000Y-99000000D03*
X73420000Y-99000000D03*
X70880000Y-99000000D03*
X70880000Y-106620000D03*
X73420000Y-106620000D03*
X75960000Y-106620000D03*
X78500000Y-106620000D03*
D13*
X119000000Y-91000000D03*
D14*
X116000000Y-88000000D03*
X117000000Y-88000000D03*
X118000000Y-88000000D03*
X119000000Y-88000000D03*
X120000000Y-88000000D03*
X121000000Y-88000000D03*
X122000000Y-88000000D03*
X122000000Y-89000000D03*
X122000000Y-90000000D03*
X122000000Y-91000000D03*
X122000000Y-92000000D03*
X122000000Y-93000000D03*
X122000000Y-94000000D03*
X121000000Y-94000000D03*
X121000000Y-93000000D03*
X121000000Y-92000000D03*
X121000000Y-91000000D03*
X121000000Y-90000000D03*
X121000000Y-89000000D03*
X120000000Y-89000000D03*
X119000000Y-89000000D03*
X118000000Y-89000000D03*
X117000000Y-89000000D03*
X116000000Y-89000000D03*
X116000000Y-90000000D03*
X116000000Y-91000000D03*
X116000000Y-92000000D03*
X116000000Y-93000000D03*
X116000000Y-94000000D03*
X117000000Y-94000000D03*
X118000000Y-94000000D03*
X119000000Y-94000000D03*
X120000000Y-94000000D03*
X120000000Y-93000000D03*
X119000000Y-93000000D03*
X118000000Y-93000000D03*
X117000000Y-93000000D03*
X117000000Y-92000000D03*
X117000000Y-91000000D03*
X117000000Y-90000000D03*
D15*
X131125000Y-80000000D03*
X131125000Y-81000000D03*
X131125000Y-82000000D03*
X131125000Y-83000000D03*
X131125000Y-84000000D03*
X131125000Y-85000000D03*
X131125000Y-86000000D03*
X131125000Y-87000000D03*
X131125000Y-88000000D03*
X131125000Y-89000000D03*
X131925000Y-80500000D03*
X131925000Y-81500000D03*
X131925000Y-82500000D03*
X131925000Y-83500000D03*
X131925000Y-84500000D03*
X131925000Y-85500000D03*
X131925000Y-86500000D03*
X131925000Y-87500000D03*
X131925000Y-88500000D03*
D16*
X131525000Y-77250000D03*
X131525000Y-91750000D03*
D17*
X137465000Y-77250000D03*
X137465000Y-91750000D03*
D18*
X124770000Y-92940000D03*
X127270000Y-92940000D03*
X105150000Y-96550000D03*
X102650000Y-96550000D03*
D19*
X75920000Y-101420000D03*
X75920000Y-104120000D03*
X78600000Y-101475000D03*
X78600000Y-104175000D03*
D18*
X127280000Y-86890000D03*
X124780000Y-86890000D03*
X127140000Y-96430000D03*
X124640000Y-96430000D03*
D20*
X113030000Y-96570000D03*
X113030000Y-94070000D03*
D21*
X102650000Y-106000000D03*
X105350000Y-106000000D03*
D19*
X70900000Y-101475000D03*
X70900000Y-104175000D03*
D20*
X117620000Y-99080000D03*
X117620000Y-96580000D03*
D22*
X113137600Y-100975308D03*
D23*
X110597600Y-100975308D03*
D24*
X71600000Y-89625000D03*
D23*
X71600000Y-87085000D03*
D20*
X94210000Y-103220000D03*
X94210000Y-100720000D03*
D18*
X84580000Y-89110000D03*
X82080000Y-89110000D03*
X84589999Y-91700000D03*
X82089999Y-91700000D03*
D20*
X101580000Y-103140000D03*
X101580000Y-100640000D03*
X88050000Y-103170000D03*
X88050000Y-100670000D03*
D18*
X100150000Y-87090000D03*
X102650000Y-87090000D03*
X82090000Y-96820000D03*
X84590000Y-96820000D03*
D20*
X122250000Y-106990000D03*
X122250000Y-109490000D03*
X119740000Y-109480000D03*
X119740000Y-106980000D03*
D18*
X84590000Y-84240000D03*
X82090000Y-84240000D03*
X100160000Y-83600000D03*
X102660000Y-83600000D03*
D25*
G36*
X98977729Y-81548998D02*
G01*
X97811002Y-80382271D01*
X99154505Y-79038768D01*
X100321232Y-80205495D01*
X98977729Y-81548998D01*
G37*
G36*
X100745495Y-79781232D02*
G01*
X99578768Y-78614505D01*
X100922271Y-77271002D01*
X102088998Y-78437729D01*
X100745495Y-79781232D01*
G37*
D20*
X87910000Y-77500000D03*
X87910000Y-80000000D03*
X95270000Y-77490000D03*
X95270000Y-79990000D03*
D26*
X92950000Y-93550000D03*
X96950000Y-91550000D03*
X93950000Y-92550000D03*
X91950000Y-93550000D03*
X91950000Y-92550000D03*
X92950000Y-92550000D03*
X94950000Y-92550000D03*
X96950000Y-92550000D03*
X95950000Y-92550000D03*
X97950000Y-91550000D03*
X97950000Y-92550000D03*
X97950000Y-93550000D03*
X96950000Y-93550000D03*
X95950000Y-93550000D03*
X94950000Y-93550000D03*
X93950000Y-93550000D03*
X92950000Y-91550000D03*
X91950000Y-91550000D03*
X91950000Y-90550000D03*
X92950000Y-90550000D03*
D13*
X94950000Y-90550000D03*
D26*
X96950000Y-90550000D03*
X97950000Y-90550000D03*
X97950000Y-89550000D03*
X96950000Y-89550000D03*
X92950000Y-89550000D03*
X91950000Y-89550000D03*
X91950000Y-88550000D03*
X91950000Y-87550000D03*
X92950000Y-87550000D03*
X93950000Y-87550000D03*
X94950000Y-87550000D03*
X95950000Y-87550000D03*
X96950000Y-87550000D03*
X97950000Y-87550000D03*
X97950000Y-88550000D03*
X96950000Y-88550000D03*
X95950000Y-88550000D03*
X94950000Y-88550000D03*
X93950000Y-88550000D03*
X92950000Y-88550000D03*
D27*
X123750000Y-78525000D03*
D20*
X128750000Y-108625000D03*
X128750000Y-111125000D03*
D28*
X88000000Y-113000000D03*
D29*
X88000000Y-110460000D03*
X90540000Y-113000000D03*
X90540000Y-110460000D03*
X93080000Y-113000000D03*
X93080000Y-110460000D03*
X95620000Y-113000000D03*
X95620000Y-110460000D03*
X98160000Y-113000000D03*
X98160000Y-110460000D03*
D30*
X109000000Y-107000000D03*
D31*
X116620000Y-107000000D03*
X116620000Y-114620000D03*
X109000000Y-114620000D03*
D27*
X124850000Y-114475000D03*
X73000000Y-79000000D03*
X73000000Y-114000000D03*
D21*
X83130000Y-106240000D03*
X85830000Y-106240000D03*
D19*
X73410000Y-101450000D03*
X73410000Y-104150000D03*
M02*
