M48
; DRILL file {KiCad (5.1.6)-1} date 11/05/20 21:15:55
; FORMAT={-:-/ absolute / inch / decimal}
; #@! TF.CreationDate,2020-11-05T21:15:55+01:00
; #@! TF.GenerationSoftware,Kicad,Pcbnew,(5.1.6)-1
FMAT,2
INCH
T1C0.0118
T2C0.0157
T3C0.0177
T4C0.0256
T5C0.0315
T6C0.0354
T7C0.0394
T8C0.0394
T9C0.0400
T10C0.0906
T11C0.1102
T12C0.0197
%
G90
G05
T1
X3.2315Y-3.2205
X3.2315Y-3.2598
X3.2315Y-3.4571
X3.2315Y-3.6732
X3.2315Y-3.752
X3.2315Y-3.8701
X3.2315Y-3.9094
X3.2327Y-3.3976
X3.4031Y-3.0512
X3.4043Y-4.0626
X3.4437Y-4.1795
X3.4945Y-4.1193
X3.5118Y-3.0516
X3.5984Y-4.063
X3.689Y-3.0516
X3.8071Y-4.063
X3.8583Y-4.2323
X3.9205Y-3.0516
X3.937Y-4.2323
X3.9449Y-4.063
X4.0406Y-3.2295
X4.0406Y-3.378
X4.0406Y-3.4961
X4.0406Y-3.5354
X4.0406Y-3.865
X4.0551Y-4.1142
X4.0622Y-4.063
X4.1063Y-3.5929
X4.1583Y-3.9827
X4.2402Y-3.5157
X4.2441Y-3.752
X4.3504Y-3.6102
X4.3799Y-3.5728
X4.3976Y-3.752
X4.4921Y-3.3583
X4.4988Y-3.8008
X4.5713Y-3.8591
X4.6854Y-3.8618
X4.7024Y-3.9075
X4.7283Y-3.8937
X4.7539Y-3.8622
X4.8386Y-3.8583
X4.8543Y-3.752
X4.8787Y-3.3555
X4.8858Y-3.874
X4.9626Y-3.9012
X4.9646Y-3.9488
X4.9661Y-3.4803
X4.9752Y-3.724
X4.9906Y-3.5335
X5.0205Y-3.5913
X5.0642Y-3.6772
X5.0681Y-3.637
X5.0689Y-4.0551
X5.0925Y-3.248
X5.0959Y-3.3657
X5.0988Y-3.2083
X5.0994Y-3.3317
X5.1467Y-3.5531
X4.5669Y-3.4646
X4.5669Y-3.5039
X4.5669Y-3.5433
X4.5669Y-3.5827
X4.5669Y-3.622
X4.5669Y-3.6614
X4.5669Y-3.7008
X4.6063Y-3.4646
X4.6063Y-3.5039
X4.6063Y-3.5433
X4.6063Y-3.5827
X4.6063Y-3.622
X4.6063Y-3.6614
X4.6063Y-3.7008
X4.6457Y-3.4646
X4.6457Y-3.5039
X4.6457Y-3.6614
X4.6457Y-3.7008
X4.685Y-3.4646
X4.685Y-3.5039
X4.685Y-3.6614
X4.685Y-3.7008
X4.7244Y-3.4646
X4.7244Y-3.5039
X4.7244Y-3.6614
X4.7244Y-3.7008
X4.7638Y-3.4646
X4.7638Y-3.5039
X4.7638Y-3.5433
X4.7638Y-3.5827
X4.7638Y-3.622
X4.7638Y-3.6614
X4.7638Y-3.7008
X4.8031Y-3.4646
X4.8031Y-3.5039
X4.8031Y-3.5433
X4.8031Y-3.5827
X4.8031Y-3.622
X4.8031Y-3.6614
X4.8031Y-3.7008
X3.6201Y-3.4469
X3.6201Y-3.4862
X3.6201Y-3.5256
X3.6201Y-3.565
X3.6201Y-3.6043
X3.6201Y-3.6437
X3.6201Y-3.6831
X3.6594Y-3.4469
X3.6594Y-3.4862
X3.6594Y-3.5256
X3.6594Y-3.565
X3.6594Y-3.6043
X3.6594Y-3.6437
X3.6594Y-3.6831
X3.6988Y-3.4469
X3.6988Y-3.4862
X3.6988Y-3.6437
X3.6988Y-3.6831
X3.7382Y-3.4469
X3.7382Y-3.4862
X3.7382Y-3.6437
X3.7382Y-3.6831
X3.7776Y-3.4469
X3.7776Y-3.4862
X3.7776Y-3.6437
X3.7776Y-3.6831
X3.8169Y-3.4469
X3.8169Y-3.4862
X3.8169Y-3.5256
X3.8169Y-3.565
X3.8169Y-3.6043
X3.8169Y-3.6437
X3.8169Y-3.6831
X3.8563Y-3.4469
X3.8563Y-3.4862
X3.8563Y-3.5256
X3.8563Y-3.565
X3.8563Y-3.6043
X3.8563Y-3.6437
X3.8563Y-3.6831
T2
X3.0969Y-4.2965
X3.2874Y-4.4488
X4.5719Y-4.0138
X4.7126Y-4.063
X4.748Y-4.063
X5.13Y-4.375
T3
X5.1624Y-3.1496
X5.1624Y-3.189
X5.1624Y-3.2283
X5.1624Y-3.2677
X5.1624Y-3.3071
X5.1624Y-3.3465
X5.1624Y-3.3858
X5.1624Y-3.4252
X5.1624Y-3.4646
X5.1624Y-3.5039
X5.1939Y-3.1693
X5.1939Y-3.2087
X5.1939Y-3.248
X5.1939Y-3.2874
X5.1939Y-3.3268
X5.1939Y-3.3661
X5.1939Y-3.4055
X5.1939Y-3.4449
X5.1939Y-3.4843
T5
X4.2913Y-4.2126
X4.2913Y-4.5126
X4.5913Y-4.2126
X4.5913Y-4.5126
X2.7906Y-3.8976
X2.7906Y-4.1976
X2.8906Y-3.8976
X2.8906Y-4.1976
X2.9906Y-3.8976
X2.9906Y-4.1976
X3.0906Y-3.8976
X3.0906Y-4.1976
T8
X4.3542Y-3.9754
X4.4542Y-3.9754
X2.8189Y-3.4285
X2.8189Y-3.5285
T9
X3.4646Y-4.3488
X3.4646Y-4.4488
X3.5646Y-4.3488
X3.5646Y-4.4488
X3.6646Y-4.3488
X3.6646Y-4.4488
X3.7646Y-4.3488
X3.7646Y-4.4488
X3.8646Y-4.3488
X3.8646Y-4.4488
T10
X2.874Y-3.1102
X4.9154Y-4.5069
X4.872Y-3.0915
X2.874Y-4.4882
T11
X4.685Y-3.5827
X3.7382Y-3.565
T12
X5.2935Y-4.2713
X5.2935Y-4.4287
T4
G00X5.2374Y-4.2093
M15
G01X5.2669Y-4.2093
M16
G05
G00X5.2374Y-4.4907
M15
G01X5.2669Y-4.4907
M16
G05
G00X5.387Y-4.2093
M15
G01X5.4165Y-4.2093
M16
G05
G00X5.387Y-4.4907
M15
G01X5.4165Y-4.4907
M16
G05
T6
G00X5.1506Y-3.0413
M15
G01X5.2057Y-3.0413
M16
G05
G00X5.1506Y-3.6122
M15
G01X5.2057Y-3.6122
M16
G05
T7
G00X5.3963Y-3.0413
M15
G01X5.4278Y-3.0413
M16
G05
G00X5.3963Y-3.6122
M15
G01X5.4278Y-3.6122
M16
G05
T0
M30
