G04 #@! TF.GenerationSoftware,KiCad,Pcbnew,(5.1.6)-1*
G04 #@! TF.CreationDate,2020-11-05T21:16:00+01:00*
G04 #@! TF.ProjectId,lag_tester,6c61675f-7465-4737-9465-722e6b696361,rev?*
G04 #@! TF.SameCoordinates,Original*
G04 #@! TF.FileFunction,Legend,Bot*
G04 #@! TF.FilePolarity,Positive*
%FSLAX46Y46*%
G04 Gerber Fmt 4.6, Leading zero omitted, Abs format (unit mm)*
G04 Created by KiCad (PCBNEW (5.1.6)-1) date 2020-11-05 21:16:00*
%MOMM*%
%LPD*%
G01*
G04 APERTURE LIST*
%ADD10C,0.120000*%
%ADD11C,0.150000*%
G04 APERTURE END LIST*
D10*
X125520000Y-92090000D02*
X126520000Y-92090000D01*
X126520000Y-93790000D02*
X125520000Y-93790000D01*
X104400000Y-97400000D02*
X103400000Y-97400000D01*
X103400000Y-95700000D02*
X104400000Y-95700000D01*
X75040000Y-102170000D02*
X75040000Y-103370000D01*
X76800000Y-103370000D02*
X76800000Y-102170000D01*
X77720000Y-102225000D02*
X77720000Y-103425000D01*
X79480000Y-103425000D02*
X79480000Y-102225000D01*
X126530000Y-87740000D02*
X125530000Y-87740000D01*
X125530000Y-86040000D02*
X126530000Y-86040000D01*
X126390000Y-97280000D02*
X125390000Y-97280000D01*
X125390000Y-95580000D02*
X126390000Y-95580000D01*
X112180000Y-95820000D02*
X112180000Y-94820000D01*
X113880000Y-94820000D02*
X113880000Y-95820000D01*
X103400000Y-106880000D02*
X104600000Y-106880000D01*
X104600000Y-105120000D02*
X103400000Y-105120000D01*
X70020000Y-102225000D02*
X70020000Y-103425000D01*
X71780000Y-103425000D02*
X71780000Y-102225000D01*
X116770000Y-98330000D02*
X116770000Y-97330000D01*
X118470000Y-97330000D02*
X118470000Y-98330000D01*
D11*
X114385536Y-100975308D02*
G75*
G03*
X114385536Y-100975308I-2517936J0D01*
G01*
X114367600Y-102475308D02*
X114367600Y-99475308D01*
X114352488Y-102500212D02*
G75*
G02*
X114367600Y-99475308I-2484888J1524904D01*
G01*
D10*
X93360000Y-102470000D02*
X93360000Y-101470000D01*
X95060000Y-101470000D02*
X95060000Y-102470000D01*
X83830000Y-89960000D02*
X82830000Y-89960000D01*
X82830000Y-88260000D02*
X83830000Y-88260000D01*
X83839999Y-92550000D02*
X82839999Y-92550000D01*
X82839999Y-90850000D02*
X83839999Y-90850000D01*
X100730000Y-102390000D02*
X100730000Y-101390000D01*
X102430000Y-101390000D02*
X102430000Y-102390000D01*
X87200000Y-102420000D02*
X87200000Y-101420000D01*
X88900000Y-101420000D02*
X88900000Y-102420000D01*
X100900000Y-86240000D02*
X101900000Y-86240000D01*
X101900000Y-87940000D02*
X100900000Y-87940000D01*
X82840000Y-95970000D02*
X83840000Y-95970000D01*
X83840000Y-97670000D02*
X82840000Y-97670000D01*
X123100000Y-107740000D02*
X123100000Y-108740000D01*
X121400000Y-108740000D02*
X121400000Y-107740000D01*
X118890000Y-108730000D02*
X118890000Y-107730000D01*
X120590000Y-107730000D02*
X120590000Y-108730000D01*
X83840000Y-85090000D02*
X82840000Y-85090000D01*
X82840000Y-83390000D02*
X83840000Y-83390000D01*
X100910000Y-82750000D02*
X101910000Y-82750000D01*
X101910000Y-84450000D02*
X100910000Y-84450000D01*
X98995406Y-79162513D02*
X99702513Y-78455406D01*
X100904594Y-79657487D02*
X100197487Y-80364594D01*
X88760000Y-78250000D02*
X88760000Y-79250000D01*
X87060000Y-79250000D02*
X87060000Y-78250000D01*
X96120000Y-78240000D02*
X96120000Y-79240000D01*
X94420000Y-79240000D02*
X94420000Y-78240000D01*
X129600000Y-109375000D02*
X129600000Y-110375000D01*
X127900000Y-110375000D02*
X127900000Y-109375000D01*
X83880000Y-107120000D02*
X85080000Y-107120000D01*
X85080000Y-105360000D02*
X83880000Y-105360000D01*
X72530000Y-102200000D02*
X72530000Y-103400000D01*
X74290000Y-103400000D02*
X74290000Y-102200000D01*
D11*
X126662857Y-91547142D02*
X126710476Y-91594761D01*
X126853333Y-91642380D01*
X126948571Y-91642380D01*
X127091428Y-91594761D01*
X127186666Y-91499523D01*
X127234285Y-91404285D01*
X127281904Y-91213809D01*
X127281904Y-91070952D01*
X127234285Y-90880476D01*
X127186666Y-90785238D01*
X127091428Y-90690000D01*
X126948571Y-90642380D01*
X126853333Y-90642380D01*
X126710476Y-90690000D01*
X126662857Y-90737619D01*
X125710476Y-91642380D02*
X126281904Y-91642380D01*
X125996190Y-91642380D02*
X125996190Y-90642380D01*
X126091428Y-90785238D01*
X126186666Y-90880476D01*
X126281904Y-90928095D01*
X125139047Y-91070952D02*
X125234285Y-91023333D01*
X125281904Y-90975714D01*
X125329523Y-90880476D01*
X125329523Y-90832857D01*
X125281904Y-90737619D01*
X125234285Y-90690000D01*
X125139047Y-90642380D01*
X124948571Y-90642380D01*
X124853333Y-90690000D01*
X124805714Y-90737619D01*
X124758095Y-90832857D01*
X124758095Y-90880476D01*
X124805714Y-90975714D01*
X124853333Y-91023333D01*
X124948571Y-91070952D01*
X125139047Y-91070952D01*
X125234285Y-91118571D01*
X125281904Y-91166190D01*
X125329523Y-91261428D01*
X125329523Y-91451904D01*
X125281904Y-91547142D01*
X125234285Y-91594761D01*
X125139047Y-91642380D01*
X124948571Y-91642380D01*
X124853333Y-91594761D01*
X124805714Y-91547142D01*
X124758095Y-91451904D01*
X124758095Y-91261428D01*
X124805714Y-91166190D01*
X124853333Y-91118571D01*
X124948571Y-91070952D01*
X104066666Y-98752380D02*
X104542857Y-98752380D01*
X104542857Y-97752380D01*
X103209523Y-98752380D02*
X103780952Y-98752380D01*
X103495238Y-98752380D02*
X103495238Y-97752380D01*
X103590476Y-97895238D01*
X103685714Y-97990476D01*
X103780952Y-98038095D01*
X82292380Y-101097142D02*
X81816190Y-100763809D01*
X82292380Y-100525714D02*
X81292380Y-100525714D01*
X81292380Y-100906666D01*
X81340000Y-101001904D01*
X81387619Y-101049523D01*
X81482857Y-101097142D01*
X81625714Y-101097142D01*
X81720952Y-101049523D01*
X81768571Y-101001904D01*
X81816190Y-100906666D01*
X81816190Y-100525714D01*
X82292380Y-102049523D02*
X82292380Y-101478095D01*
X82292380Y-101763809D02*
X81292380Y-101763809D01*
X81435238Y-101668571D01*
X81530476Y-101573333D01*
X81578095Y-101478095D01*
X81292380Y-102382857D02*
X81292380Y-103049523D01*
X82292380Y-102620952D01*
X83682380Y-101097142D02*
X83206190Y-100763809D01*
X83682380Y-100525714D02*
X82682380Y-100525714D01*
X82682380Y-100906666D01*
X82730000Y-101001904D01*
X82777619Y-101049523D01*
X82872857Y-101097142D01*
X83015714Y-101097142D01*
X83110952Y-101049523D01*
X83158571Y-101001904D01*
X83206190Y-100906666D01*
X83206190Y-100525714D01*
X83682380Y-102049523D02*
X83682380Y-101478095D01*
X83682380Y-101763809D02*
X82682380Y-101763809D01*
X82825238Y-101668571D01*
X82920476Y-101573333D01*
X82968095Y-101478095D01*
X83110952Y-102620952D02*
X83063333Y-102525714D01*
X83015714Y-102478095D01*
X82920476Y-102430476D01*
X82872857Y-102430476D01*
X82777619Y-102478095D01*
X82730000Y-102525714D01*
X82682380Y-102620952D01*
X82682380Y-102811428D01*
X82730000Y-102906666D01*
X82777619Y-102954285D01*
X82872857Y-103001904D01*
X82920476Y-103001904D01*
X83015714Y-102954285D01*
X83063333Y-102906666D01*
X83110952Y-102811428D01*
X83110952Y-102620952D01*
X83158571Y-102525714D01*
X83206190Y-102478095D01*
X83301428Y-102430476D01*
X83491904Y-102430476D01*
X83587142Y-102478095D01*
X83634761Y-102525714D01*
X83682380Y-102620952D01*
X83682380Y-102811428D01*
X83634761Y-102906666D01*
X83587142Y-102954285D01*
X83491904Y-103001904D01*
X83301428Y-103001904D01*
X83206190Y-102954285D01*
X83158571Y-102906666D01*
X83110952Y-102811428D01*
X126672857Y-85497142D02*
X126720476Y-85544761D01*
X126863333Y-85592380D01*
X126958571Y-85592380D01*
X127101428Y-85544761D01*
X127196666Y-85449523D01*
X127244285Y-85354285D01*
X127291904Y-85163809D01*
X127291904Y-85020952D01*
X127244285Y-84830476D01*
X127196666Y-84735238D01*
X127101428Y-84640000D01*
X126958571Y-84592380D01*
X126863333Y-84592380D01*
X126720476Y-84640000D01*
X126672857Y-84687619D01*
X125720476Y-85592380D02*
X126291904Y-85592380D01*
X126006190Y-85592380D02*
X126006190Y-84592380D01*
X126101428Y-84735238D01*
X126196666Y-84830476D01*
X126291904Y-84878095D01*
X125387142Y-84592380D02*
X124720476Y-84592380D01*
X125149047Y-85592380D01*
X130242857Y-96757142D02*
X130290476Y-96804761D01*
X130433333Y-96852380D01*
X130528571Y-96852380D01*
X130671428Y-96804761D01*
X130766666Y-96709523D01*
X130814285Y-96614285D01*
X130861904Y-96423809D01*
X130861904Y-96280952D01*
X130814285Y-96090476D01*
X130766666Y-95995238D01*
X130671428Y-95900000D01*
X130528571Y-95852380D01*
X130433333Y-95852380D01*
X130290476Y-95900000D01*
X130242857Y-95947619D01*
X129861904Y-95947619D02*
X129814285Y-95900000D01*
X129719047Y-95852380D01*
X129480952Y-95852380D01*
X129385714Y-95900000D01*
X129338095Y-95947619D01*
X129290476Y-96042857D01*
X129290476Y-96138095D01*
X129338095Y-96280952D01*
X129909523Y-96852380D01*
X129290476Y-96852380D01*
X128671428Y-95852380D02*
X128576190Y-95852380D01*
X128480952Y-95900000D01*
X128433333Y-95947619D01*
X128385714Y-96042857D01*
X128338095Y-96233333D01*
X128338095Y-96471428D01*
X128385714Y-96661904D01*
X128433333Y-96757142D01*
X128480952Y-96804761D01*
X128576190Y-96852380D01*
X128671428Y-96852380D01*
X128766666Y-96804761D01*
X128814285Y-96757142D01*
X128861904Y-96661904D01*
X128909523Y-96471428D01*
X128909523Y-96233333D01*
X128861904Y-96042857D01*
X128814285Y-95947619D01*
X128766666Y-95900000D01*
X128671428Y-95852380D01*
X111637142Y-94677142D02*
X111684761Y-94629523D01*
X111732380Y-94486666D01*
X111732380Y-94391428D01*
X111684761Y-94248571D01*
X111589523Y-94153333D01*
X111494285Y-94105714D01*
X111303809Y-94058095D01*
X111160952Y-94058095D01*
X110970476Y-94105714D01*
X110875238Y-94153333D01*
X110780000Y-94248571D01*
X110732380Y-94391428D01*
X110732380Y-94486666D01*
X110780000Y-94629523D01*
X110827619Y-94677142D01*
X110827619Y-95058095D02*
X110780000Y-95105714D01*
X110732380Y-95200952D01*
X110732380Y-95439047D01*
X110780000Y-95534285D01*
X110827619Y-95581904D01*
X110922857Y-95629523D01*
X111018095Y-95629523D01*
X111160952Y-95581904D01*
X111732380Y-95010476D01*
X111732380Y-95629523D01*
X110732380Y-95962857D02*
X110732380Y-96581904D01*
X111113333Y-96248571D01*
X111113333Y-96391428D01*
X111160952Y-96486666D01*
X111208571Y-96534285D01*
X111303809Y-96581904D01*
X111541904Y-96581904D01*
X111637142Y-96534285D01*
X111684761Y-96486666D01*
X111732380Y-96391428D01*
X111732380Y-96105714D01*
X111684761Y-96010476D01*
X111637142Y-95962857D01*
X104166666Y-108152380D02*
X104500000Y-107676190D01*
X104738095Y-108152380D02*
X104738095Y-107152380D01*
X104357142Y-107152380D01*
X104261904Y-107200000D01*
X104214285Y-107247619D01*
X104166666Y-107342857D01*
X104166666Y-107485714D01*
X104214285Y-107580952D01*
X104261904Y-107628571D01*
X104357142Y-107676190D01*
X104738095Y-107676190D01*
X103214285Y-108152380D02*
X103785714Y-108152380D01*
X103500000Y-108152380D02*
X103500000Y-107152380D01*
X103595238Y-107295238D01*
X103690476Y-107390476D01*
X103785714Y-107438095D01*
X69652380Y-102182142D02*
X69176190Y-101848809D01*
X69652380Y-101610714D02*
X68652380Y-101610714D01*
X68652380Y-101991666D01*
X68700000Y-102086904D01*
X68747619Y-102134523D01*
X68842857Y-102182142D01*
X68985714Y-102182142D01*
X69080952Y-102134523D01*
X69128571Y-102086904D01*
X69176190Y-101991666D01*
X69176190Y-101610714D01*
X69652380Y-103134523D02*
X69652380Y-102563095D01*
X69652380Y-102848809D02*
X68652380Y-102848809D01*
X68795238Y-102753571D01*
X68890476Y-102658333D01*
X68938095Y-102563095D01*
X69652380Y-103610714D02*
X69652380Y-103801190D01*
X69604761Y-103896428D01*
X69557142Y-103944047D01*
X69414285Y-104039285D01*
X69223809Y-104086904D01*
X68842857Y-104086904D01*
X68747619Y-104039285D01*
X68700000Y-103991666D01*
X68652380Y-103896428D01*
X68652380Y-103705952D01*
X68700000Y-103610714D01*
X68747619Y-103563095D01*
X68842857Y-103515476D01*
X69080952Y-103515476D01*
X69176190Y-103563095D01*
X69223809Y-103610714D01*
X69271428Y-103705952D01*
X69271428Y-103896428D01*
X69223809Y-103991666D01*
X69176190Y-104039285D01*
X69080952Y-104086904D01*
X119727142Y-97187142D02*
X119774761Y-97139523D01*
X119822380Y-96996666D01*
X119822380Y-96901428D01*
X119774761Y-96758571D01*
X119679523Y-96663333D01*
X119584285Y-96615714D01*
X119393809Y-96568095D01*
X119250952Y-96568095D01*
X119060476Y-96615714D01*
X118965238Y-96663333D01*
X118870000Y-96758571D01*
X118822380Y-96901428D01*
X118822380Y-96996666D01*
X118870000Y-97139523D01*
X118917619Y-97187142D01*
X118917619Y-97568095D02*
X118870000Y-97615714D01*
X118822380Y-97710952D01*
X118822380Y-97949047D01*
X118870000Y-98044285D01*
X118917619Y-98091904D01*
X119012857Y-98139523D01*
X119108095Y-98139523D01*
X119250952Y-98091904D01*
X119822380Y-97520476D01*
X119822380Y-98139523D01*
X118917619Y-98520476D02*
X118870000Y-98568095D01*
X118822380Y-98663333D01*
X118822380Y-98901428D01*
X118870000Y-98996666D01*
X118917619Y-99044285D01*
X119012857Y-99091904D01*
X119108095Y-99091904D01*
X119250952Y-99044285D01*
X119822380Y-98472857D01*
X119822380Y-99091904D01*
X115877380Y-100683333D02*
X115401190Y-100350000D01*
X115877380Y-100111904D02*
X114877380Y-100111904D01*
X114877380Y-100492857D01*
X114925000Y-100588095D01*
X114972619Y-100635714D01*
X115067857Y-100683333D01*
X115210714Y-100683333D01*
X115305952Y-100635714D01*
X115353571Y-100588095D01*
X115401190Y-100492857D01*
X115401190Y-100111904D01*
X114972619Y-101064285D02*
X114925000Y-101111904D01*
X114877380Y-101207142D01*
X114877380Y-101445238D01*
X114925000Y-101540476D01*
X114972619Y-101588095D01*
X115067857Y-101635714D01*
X115163095Y-101635714D01*
X115305952Y-101588095D01*
X115877380Y-101016666D01*
X115877380Y-101635714D01*
X92817142Y-101803333D02*
X92864761Y-101755714D01*
X92912380Y-101612857D01*
X92912380Y-101517619D01*
X92864761Y-101374761D01*
X92769523Y-101279523D01*
X92674285Y-101231904D01*
X92483809Y-101184285D01*
X92340952Y-101184285D01*
X92150476Y-101231904D01*
X92055238Y-101279523D01*
X91960000Y-101374761D01*
X91912380Y-101517619D01*
X91912380Y-101612857D01*
X91960000Y-101755714D01*
X92007619Y-101803333D01*
X92912380Y-102279523D02*
X92912380Y-102470000D01*
X92864761Y-102565238D01*
X92817142Y-102612857D01*
X92674285Y-102708095D01*
X92483809Y-102755714D01*
X92102857Y-102755714D01*
X92007619Y-102708095D01*
X91960000Y-102660476D01*
X91912380Y-102565238D01*
X91912380Y-102374761D01*
X91960000Y-102279523D01*
X92007619Y-102231904D01*
X92102857Y-102184285D01*
X92340952Y-102184285D01*
X92436190Y-102231904D01*
X92483809Y-102279523D01*
X92531428Y-102374761D01*
X92531428Y-102565238D01*
X92483809Y-102660476D01*
X92436190Y-102708095D01*
X92340952Y-102755714D01*
X80066666Y-89457142D02*
X80114285Y-89504761D01*
X80257142Y-89552380D01*
X80352380Y-89552380D01*
X80495238Y-89504761D01*
X80590476Y-89409523D01*
X80638095Y-89314285D01*
X80685714Y-89123809D01*
X80685714Y-88980952D01*
X80638095Y-88790476D01*
X80590476Y-88695238D01*
X80495238Y-88600000D01*
X80352380Y-88552380D01*
X80257142Y-88552380D01*
X80114285Y-88600000D01*
X80066666Y-88647619D01*
X79495238Y-88980952D02*
X79590476Y-88933333D01*
X79638095Y-88885714D01*
X79685714Y-88790476D01*
X79685714Y-88742857D01*
X79638095Y-88647619D01*
X79590476Y-88600000D01*
X79495238Y-88552380D01*
X79304761Y-88552380D01*
X79209523Y-88600000D01*
X79161904Y-88647619D01*
X79114285Y-88742857D01*
X79114285Y-88790476D01*
X79161904Y-88885714D01*
X79209523Y-88933333D01*
X79304761Y-88980952D01*
X79495238Y-88980952D01*
X79590476Y-89028571D01*
X79638095Y-89076190D01*
X79685714Y-89171428D01*
X79685714Y-89361904D01*
X79638095Y-89457142D01*
X79590476Y-89504761D01*
X79495238Y-89552380D01*
X79304761Y-89552380D01*
X79209523Y-89504761D01*
X79161904Y-89457142D01*
X79114285Y-89361904D01*
X79114285Y-89171428D01*
X79161904Y-89076190D01*
X79209523Y-89028571D01*
X79304761Y-88980952D01*
X79966666Y-91957142D02*
X80014285Y-92004761D01*
X80157142Y-92052380D01*
X80252380Y-92052380D01*
X80395238Y-92004761D01*
X80490476Y-91909523D01*
X80538095Y-91814285D01*
X80585714Y-91623809D01*
X80585714Y-91480952D01*
X80538095Y-91290476D01*
X80490476Y-91195238D01*
X80395238Y-91100000D01*
X80252380Y-91052380D01*
X80157142Y-91052380D01*
X80014285Y-91100000D01*
X79966666Y-91147619D01*
X79109523Y-91052380D02*
X79300000Y-91052380D01*
X79395238Y-91100000D01*
X79442857Y-91147619D01*
X79538095Y-91290476D01*
X79585714Y-91480952D01*
X79585714Y-91861904D01*
X79538095Y-91957142D01*
X79490476Y-92004761D01*
X79395238Y-92052380D01*
X79204761Y-92052380D01*
X79109523Y-92004761D01*
X79061904Y-91957142D01*
X79014285Y-91861904D01*
X79014285Y-91623809D01*
X79061904Y-91528571D01*
X79109523Y-91480952D01*
X79204761Y-91433333D01*
X79395238Y-91433333D01*
X79490476Y-91480952D01*
X79538095Y-91528571D01*
X79585714Y-91623809D01*
X100187142Y-101247142D02*
X100234761Y-101199523D01*
X100282380Y-101056666D01*
X100282380Y-100961428D01*
X100234761Y-100818571D01*
X100139523Y-100723333D01*
X100044285Y-100675714D01*
X99853809Y-100628095D01*
X99710952Y-100628095D01*
X99520476Y-100675714D01*
X99425238Y-100723333D01*
X99330000Y-100818571D01*
X99282380Y-100961428D01*
X99282380Y-101056666D01*
X99330000Y-101199523D01*
X99377619Y-101247142D01*
X100282380Y-102199523D02*
X100282380Y-101628095D01*
X100282380Y-101913809D02*
X99282380Y-101913809D01*
X99425238Y-101818571D01*
X99520476Y-101723333D01*
X99568095Y-101628095D01*
X100282380Y-103151904D02*
X100282380Y-102580476D01*
X100282380Y-102866190D02*
X99282380Y-102866190D01*
X99425238Y-102770952D01*
X99520476Y-102675714D01*
X99568095Y-102580476D01*
X86657142Y-101753333D02*
X86704761Y-101705714D01*
X86752380Y-101562857D01*
X86752380Y-101467619D01*
X86704761Y-101324761D01*
X86609523Y-101229523D01*
X86514285Y-101181904D01*
X86323809Y-101134285D01*
X86180952Y-101134285D01*
X85990476Y-101181904D01*
X85895238Y-101229523D01*
X85800000Y-101324761D01*
X85752380Y-101467619D01*
X85752380Y-101562857D01*
X85800000Y-101705714D01*
X85847619Y-101753333D01*
X85752380Y-102086666D02*
X85752380Y-102753333D01*
X86752380Y-102324761D01*
X102042857Y-89197142D02*
X102090476Y-89244761D01*
X102233333Y-89292380D01*
X102328571Y-89292380D01*
X102471428Y-89244761D01*
X102566666Y-89149523D01*
X102614285Y-89054285D01*
X102661904Y-88863809D01*
X102661904Y-88720952D01*
X102614285Y-88530476D01*
X102566666Y-88435238D01*
X102471428Y-88340000D01*
X102328571Y-88292380D01*
X102233333Y-88292380D01*
X102090476Y-88340000D01*
X102042857Y-88387619D01*
X101090476Y-89292380D02*
X101661904Y-89292380D01*
X101376190Y-89292380D02*
X101376190Y-88292380D01*
X101471428Y-88435238D01*
X101566666Y-88530476D01*
X101661904Y-88578095D01*
X100709523Y-88387619D02*
X100661904Y-88340000D01*
X100566666Y-88292380D01*
X100328571Y-88292380D01*
X100233333Y-88340000D01*
X100185714Y-88387619D01*
X100138095Y-88482857D01*
X100138095Y-88578095D01*
X100185714Y-88720952D01*
X100757142Y-89292380D01*
X100138095Y-89292380D01*
X80066666Y-97157142D02*
X80114285Y-97204761D01*
X80257142Y-97252380D01*
X80352380Y-97252380D01*
X80495238Y-97204761D01*
X80590476Y-97109523D01*
X80638095Y-97014285D01*
X80685714Y-96823809D01*
X80685714Y-96680952D01*
X80638095Y-96490476D01*
X80590476Y-96395238D01*
X80495238Y-96300000D01*
X80352380Y-96252380D01*
X80257142Y-96252380D01*
X80114285Y-96300000D01*
X80066666Y-96347619D01*
X79161904Y-96252380D02*
X79638095Y-96252380D01*
X79685714Y-96728571D01*
X79638095Y-96680952D01*
X79542857Y-96633333D01*
X79304761Y-96633333D01*
X79209523Y-96680952D01*
X79161904Y-96728571D01*
X79114285Y-96823809D01*
X79114285Y-97061904D01*
X79161904Y-97157142D01*
X79209523Y-97204761D01*
X79304761Y-97252380D01*
X79542857Y-97252380D01*
X79638095Y-97204761D01*
X79685714Y-97157142D01*
X120157142Y-111433333D02*
X120204761Y-111385714D01*
X120252380Y-111242857D01*
X120252380Y-111147619D01*
X120204761Y-111004761D01*
X120109523Y-110909523D01*
X120014285Y-110861904D01*
X119823809Y-110814285D01*
X119680952Y-110814285D01*
X119490476Y-110861904D01*
X119395238Y-110909523D01*
X119300000Y-111004761D01*
X119252380Y-111147619D01*
X119252380Y-111242857D01*
X119300000Y-111385714D01*
X119347619Y-111433333D01*
X119347619Y-111814285D02*
X119300000Y-111861904D01*
X119252380Y-111957142D01*
X119252380Y-112195238D01*
X119300000Y-112290476D01*
X119347619Y-112338095D01*
X119442857Y-112385714D01*
X119538095Y-112385714D01*
X119680952Y-112338095D01*
X120252380Y-111766666D01*
X120252380Y-112385714D01*
X122757142Y-111633333D02*
X122804761Y-111585714D01*
X122852380Y-111442857D01*
X122852380Y-111347619D01*
X122804761Y-111204761D01*
X122709523Y-111109523D01*
X122614285Y-111061904D01*
X122423809Y-111014285D01*
X122280952Y-111014285D01*
X122090476Y-111061904D01*
X121995238Y-111109523D01*
X121900000Y-111204761D01*
X121852380Y-111347619D01*
X121852380Y-111442857D01*
X121900000Y-111585714D01*
X121947619Y-111633333D01*
X122185714Y-112490476D02*
X122852380Y-112490476D01*
X121804761Y-112252380D02*
X122519047Y-112014285D01*
X122519047Y-112633333D01*
X80242857Y-84557142D02*
X80290476Y-84604761D01*
X80433333Y-84652380D01*
X80528571Y-84652380D01*
X80671428Y-84604761D01*
X80766666Y-84509523D01*
X80814285Y-84414285D01*
X80861904Y-84223809D01*
X80861904Y-84080952D01*
X80814285Y-83890476D01*
X80766666Y-83795238D01*
X80671428Y-83700000D01*
X80528571Y-83652380D01*
X80433333Y-83652380D01*
X80290476Y-83700000D01*
X80242857Y-83747619D01*
X79290476Y-84652380D02*
X79861904Y-84652380D01*
X79576190Y-84652380D02*
X79576190Y-83652380D01*
X79671428Y-83795238D01*
X79766666Y-83890476D01*
X79861904Y-83938095D01*
X78671428Y-83652380D02*
X78576190Y-83652380D01*
X78480952Y-83700000D01*
X78433333Y-83747619D01*
X78385714Y-83842857D01*
X78338095Y-84033333D01*
X78338095Y-84271428D01*
X78385714Y-84461904D01*
X78433333Y-84557142D01*
X78480952Y-84604761D01*
X78576190Y-84652380D01*
X78671428Y-84652380D01*
X78766666Y-84604761D01*
X78814285Y-84557142D01*
X78861904Y-84461904D01*
X78909523Y-84271428D01*
X78909523Y-84033333D01*
X78861904Y-83842857D01*
X78814285Y-83747619D01*
X78766666Y-83700000D01*
X78671428Y-83652380D01*
X102052857Y-85707142D02*
X102100476Y-85754761D01*
X102243333Y-85802380D01*
X102338571Y-85802380D01*
X102481428Y-85754761D01*
X102576666Y-85659523D01*
X102624285Y-85564285D01*
X102671904Y-85373809D01*
X102671904Y-85230952D01*
X102624285Y-85040476D01*
X102576666Y-84945238D01*
X102481428Y-84850000D01*
X102338571Y-84802380D01*
X102243333Y-84802380D01*
X102100476Y-84850000D01*
X102052857Y-84897619D01*
X101100476Y-85802380D02*
X101671904Y-85802380D01*
X101386190Y-85802380D02*
X101386190Y-84802380D01*
X101481428Y-84945238D01*
X101576666Y-85040476D01*
X101671904Y-85088095D01*
X100243333Y-85135714D02*
X100243333Y-85802380D01*
X100481428Y-84754761D02*
X100719523Y-85469047D01*
X100100476Y-85469047D01*
X101894543Y-80445406D02*
X101961887Y-80445406D01*
X102096574Y-80378062D01*
X102163917Y-80310719D01*
X102231261Y-80176032D01*
X102231261Y-80041345D01*
X102197589Y-79940330D01*
X102096574Y-79771971D01*
X101995559Y-79670956D01*
X101827200Y-79569940D01*
X101726185Y-79536269D01*
X101591498Y-79536269D01*
X101456811Y-79603612D01*
X101389467Y-79670956D01*
X101322124Y-79805643D01*
X101322124Y-79872986D01*
X101288452Y-81186185D02*
X101692513Y-80782124D01*
X101490482Y-80984154D02*
X100783375Y-80277047D01*
X100951734Y-80310719D01*
X101086421Y-80310719D01*
X101187437Y-80277047D01*
X99975253Y-81085169D02*
X100109940Y-80950482D01*
X100210956Y-80916811D01*
X100278299Y-80916811D01*
X100446658Y-80950482D01*
X100615017Y-81051498D01*
X100884391Y-81320872D01*
X100918062Y-81421887D01*
X100918062Y-81489230D01*
X100884391Y-81590246D01*
X100749704Y-81724933D01*
X100648688Y-81758604D01*
X100581345Y-81758604D01*
X100480330Y-81724933D01*
X100311971Y-81556574D01*
X100278299Y-81455559D01*
X100278299Y-81388215D01*
X100311971Y-81287200D01*
X100446658Y-81152513D01*
X100547673Y-81118841D01*
X100615017Y-81118841D01*
X100716032Y-81152513D01*
X90017142Y-78107142D02*
X90064761Y-78059523D01*
X90112380Y-77916666D01*
X90112380Y-77821428D01*
X90064761Y-77678571D01*
X89969523Y-77583333D01*
X89874285Y-77535714D01*
X89683809Y-77488095D01*
X89540952Y-77488095D01*
X89350476Y-77535714D01*
X89255238Y-77583333D01*
X89160000Y-77678571D01*
X89112380Y-77821428D01*
X89112380Y-77916666D01*
X89160000Y-78059523D01*
X89207619Y-78107142D01*
X90112380Y-79059523D02*
X90112380Y-78488095D01*
X90112380Y-78773809D02*
X89112380Y-78773809D01*
X89255238Y-78678571D01*
X89350476Y-78583333D01*
X89398095Y-78488095D01*
X89112380Y-79964285D02*
X89112380Y-79488095D01*
X89588571Y-79440476D01*
X89540952Y-79488095D01*
X89493333Y-79583333D01*
X89493333Y-79821428D01*
X89540952Y-79916666D01*
X89588571Y-79964285D01*
X89683809Y-80011904D01*
X89921904Y-80011904D01*
X90017142Y-79964285D01*
X90064761Y-79916666D01*
X90112380Y-79821428D01*
X90112380Y-79583333D01*
X90064761Y-79488095D01*
X90017142Y-79440476D01*
X97377142Y-78097142D02*
X97424761Y-78049523D01*
X97472380Y-77906666D01*
X97472380Y-77811428D01*
X97424761Y-77668571D01*
X97329523Y-77573333D01*
X97234285Y-77525714D01*
X97043809Y-77478095D01*
X96900952Y-77478095D01*
X96710476Y-77525714D01*
X96615238Y-77573333D01*
X96520000Y-77668571D01*
X96472380Y-77811428D01*
X96472380Y-77906666D01*
X96520000Y-78049523D01*
X96567619Y-78097142D01*
X97472380Y-79049523D02*
X97472380Y-78478095D01*
X97472380Y-78763809D02*
X96472380Y-78763809D01*
X96615238Y-78668571D01*
X96710476Y-78573333D01*
X96758095Y-78478095D01*
X96472380Y-79382857D02*
X96472380Y-80001904D01*
X96853333Y-79668571D01*
X96853333Y-79811428D01*
X96900952Y-79906666D01*
X96948571Y-79954285D01*
X97043809Y-80001904D01*
X97281904Y-80001904D01*
X97377142Y-79954285D01*
X97424761Y-79906666D01*
X97472380Y-79811428D01*
X97472380Y-79525714D01*
X97424761Y-79430476D01*
X97377142Y-79382857D01*
X130957142Y-109798333D02*
X131004761Y-109750714D01*
X131052380Y-109607857D01*
X131052380Y-109512619D01*
X131004761Y-109369761D01*
X130909523Y-109274523D01*
X130814285Y-109226904D01*
X130623809Y-109179285D01*
X130480952Y-109179285D01*
X130290476Y-109226904D01*
X130195238Y-109274523D01*
X130100000Y-109369761D01*
X130052380Y-109512619D01*
X130052380Y-109607857D01*
X130100000Y-109750714D01*
X130147619Y-109798333D01*
X130052380Y-110131666D02*
X130052380Y-110750714D01*
X130433333Y-110417380D01*
X130433333Y-110560238D01*
X130480952Y-110655476D01*
X130528571Y-110703095D01*
X130623809Y-110750714D01*
X130861904Y-110750714D01*
X130957142Y-110703095D01*
X131004761Y-110655476D01*
X131052380Y-110560238D01*
X131052380Y-110274523D01*
X131004761Y-110179285D01*
X130957142Y-110131666D01*
X85122857Y-104992380D02*
X85456190Y-104516190D01*
X85694285Y-104992380D02*
X85694285Y-103992380D01*
X85313333Y-103992380D01*
X85218095Y-104040000D01*
X85170476Y-104087619D01*
X85122857Y-104182857D01*
X85122857Y-104325714D01*
X85170476Y-104420952D01*
X85218095Y-104468571D01*
X85313333Y-104516190D01*
X85694285Y-104516190D01*
X84741904Y-104087619D02*
X84694285Y-104040000D01*
X84599047Y-103992380D01*
X84360952Y-103992380D01*
X84265714Y-104040000D01*
X84218095Y-104087619D01*
X84170476Y-104182857D01*
X84170476Y-104278095D01*
X84218095Y-104420952D01*
X84789523Y-104992380D01*
X84170476Y-104992380D01*
X83218095Y-104992380D02*
X83789523Y-104992380D01*
X83503809Y-104992380D02*
X83503809Y-103992380D01*
X83599047Y-104135238D01*
X83694285Y-104230476D01*
X83789523Y-104278095D01*
X80782380Y-101147142D02*
X80306190Y-100813809D01*
X80782380Y-100575714D02*
X79782380Y-100575714D01*
X79782380Y-100956666D01*
X79830000Y-101051904D01*
X79877619Y-101099523D01*
X79972857Y-101147142D01*
X80115714Y-101147142D01*
X80210952Y-101099523D01*
X80258571Y-101051904D01*
X80306190Y-100956666D01*
X80306190Y-100575714D01*
X79877619Y-101528095D02*
X79830000Y-101575714D01*
X79782380Y-101670952D01*
X79782380Y-101909047D01*
X79830000Y-102004285D01*
X79877619Y-102051904D01*
X79972857Y-102099523D01*
X80068095Y-102099523D01*
X80210952Y-102051904D01*
X80782380Y-101480476D01*
X80782380Y-102099523D01*
X79877619Y-102480476D02*
X79830000Y-102528095D01*
X79782380Y-102623333D01*
X79782380Y-102861428D01*
X79830000Y-102956666D01*
X79877619Y-103004285D01*
X79972857Y-103051904D01*
X80068095Y-103051904D01*
X80210952Y-103004285D01*
X80782380Y-102432857D01*
X80782380Y-103051904D01*
M02*
