G04 #@! TF.GenerationSoftware,KiCad,Pcbnew,(5.1.6)-1*
G04 #@! TF.CreationDate,2020-11-05T21:16:00+01:00*
G04 #@! TF.ProjectId,lag_tester,6c61675f-7465-4737-9465-722e6b696361,rev?*
G04 #@! TF.SameCoordinates,Original*
G04 #@! TF.FileFunction,Paste,Bot*
G04 #@! TF.FilePolarity,Positive*
%FSLAX46Y46*%
G04 Gerber Fmt 4.6, Leading zero omitted, Abs format (unit mm)*
G04 Created by KiCad (PCBNEW (5.1.6)-1) date 2020-11-05 21:16:00*
%MOMM*%
%LPD*%
G01*
G04 APERTURE LIST*
%ADD10R,1.500000X1.250000*%
%ADD11R,1.300000X1.500000*%
%ADD12R,1.250000X1.500000*%
%ADD13R,1.500000X1.300000*%
%ADD14C,0.100000*%
G04 APERTURE END LIST*
D10*
X124770000Y-92940000D03*
X127270000Y-92940000D03*
X105150000Y-96550000D03*
X102650000Y-96550000D03*
D11*
X75920000Y-101420000D03*
X75920000Y-104120000D03*
X78600000Y-101475000D03*
X78600000Y-104175000D03*
D10*
X127280000Y-86890000D03*
X124780000Y-86890000D03*
X127140000Y-96430000D03*
X124640000Y-96430000D03*
D12*
X113030000Y-96570000D03*
X113030000Y-94070000D03*
D13*
X102650000Y-106000000D03*
X105350000Y-106000000D03*
D11*
X70900000Y-101475000D03*
X70900000Y-104175000D03*
D12*
X117620000Y-99080000D03*
X117620000Y-96580000D03*
X94210000Y-103220000D03*
X94210000Y-100720000D03*
D10*
X84580000Y-89110000D03*
X82080000Y-89110000D03*
X84589999Y-91700000D03*
X82089999Y-91700000D03*
D12*
X101580000Y-103140000D03*
X101580000Y-100640000D03*
X88050000Y-103170000D03*
X88050000Y-100670000D03*
D10*
X100150000Y-87090000D03*
X102650000Y-87090000D03*
X82090000Y-96820000D03*
X84590000Y-96820000D03*
D12*
X122250000Y-106990000D03*
X122250000Y-109490000D03*
X119740000Y-109480000D03*
X119740000Y-106980000D03*
D10*
X84590000Y-84240000D03*
X82090000Y-84240000D03*
X100160000Y-83600000D03*
X102660000Y-83600000D03*
D14*
G36*
X98977729Y-81266155D02*
G01*
X98093845Y-80382271D01*
X99154505Y-79321611D01*
X100038389Y-80205495D01*
X98977729Y-81266155D01*
G37*
G36*
X100745495Y-79498389D02*
G01*
X99861611Y-78614505D01*
X100922271Y-77553845D01*
X101806155Y-78437729D01*
X100745495Y-79498389D01*
G37*
D12*
X87910000Y-77500000D03*
X87910000Y-80000000D03*
X95270000Y-77490000D03*
X95270000Y-79990000D03*
X128750000Y-108625000D03*
X128750000Y-111125000D03*
D13*
X83130000Y-106240000D03*
X85830000Y-106240000D03*
D11*
X73410000Y-101450000D03*
X73410000Y-104150000D03*
M02*
