G04 #@! TF.GenerationSoftware,KiCad,Pcbnew,(5.1.6)-1*
G04 #@! TF.CreationDate,2020-11-05T21:15:59+01:00*
G04 #@! TF.ProjectId,lag_tester,6c61675f-7465-4737-9465-722e6b696361,rev?*
G04 #@! TF.SameCoordinates,Original*
G04 #@! TF.FileFunction,Copper,L1,Top*
G04 #@! TF.FilePolarity,Positive*
%FSLAX46Y46*%
G04 Gerber Fmt 4.6, Leading zero omitted, Abs format (unit mm)*
G04 Created by KiCad (PCBNEW (5.1.6)-1) date 2020-11-05 21:15:59*
%MOMM*%
%LPD*%
G01*
G04 APERTURE LIST*
G04 #@! TA.AperFunction,ComponentPad*
%ADD10O,2.000000X1.250000*%
G04 #@! TD*
G04 #@! TA.AperFunction,SMDPad,CuDef*
%ADD11R,1.850000X0.400000*%
G04 #@! TD*
G04 #@! TA.AperFunction,ComponentPad*
%ADD12C,1.524000*%
G04 #@! TD*
G04 #@! TA.AperFunction,ComponentPad*
%ADD13C,3.200000*%
G04 #@! TD*
G04 #@! TA.AperFunction,ComponentPad*
%ADD14C,0.500000*%
G04 #@! TD*
G04 #@! TA.AperFunction,SMDPad,CuDef*
%ADD15R,8.000000X8.000000*%
G04 #@! TD*
G04 #@! TA.AperFunction,SMDPad,CuDef*
%ADD16R,1.500000X0.300000*%
G04 #@! TD*
G04 #@! TA.AperFunction,SMDPad,CuDef*
%ADD17R,0.300000X1.500000*%
G04 #@! TD*
G04 #@! TA.AperFunction,ComponentPad*
%ADD18C,0.750000*%
G04 #@! TD*
G04 #@! TA.AperFunction,ComponentPad*
%ADD19O,2.600000X1.200000*%
G04 #@! TD*
G04 #@! TA.AperFunction,ComponentPad*
%ADD20O,2.100000X1.300000*%
G04 #@! TD*
G04 #@! TA.AperFunction,SMDPad,CuDef*
%ADD21R,1.500000X1.300000*%
G04 #@! TD*
G04 #@! TA.AperFunction,ComponentPad*
%ADD22R,1.900000X2.000000*%
G04 #@! TD*
G04 #@! TA.AperFunction,ComponentPad*
%ADD23C,1.900000*%
G04 #@! TD*
G04 #@! TA.AperFunction,ComponentPad*
%ADD24R,2.000000X1.900000*%
G04 #@! TD*
G04 #@! TA.AperFunction,SMDPad,CuDef*
%ADD25R,1.300000X1.500000*%
G04 #@! TD*
G04 #@! TA.AperFunction,SMDPad,CuDef*
%ADD26R,3.800000X2.000000*%
G04 #@! TD*
G04 #@! TA.AperFunction,SMDPad,CuDef*
%ADD27R,1.500000X2.000000*%
G04 #@! TD*
G04 #@! TA.AperFunction,SMDPad,CuDef*
%ADD28R,6.700000X6.700000*%
G04 #@! TD*
G04 #@! TA.AperFunction,ComponentPad*
%ADD29C,0.600000*%
G04 #@! TD*
G04 #@! TA.AperFunction,ComponentPad*
%ADD30C,2.600000*%
G04 #@! TD*
G04 #@! TA.AperFunction,ComponentPad*
%ADD31R,1.727200X1.727200*%
G04 #@! TD*
G04 #@! TA.AperFunction,ComponentPad*
%ADD32O,1.727200X1.727200*%
G04 #@! TD*
G04 #@! TA.AperFunction,ComponentPad*
%ADD33R,1.600000X1.600000*%
G04 #@! TD*
G04 #@! TA.AperFunction,ComponentPad*
%ADD34C,1.600000*%
G04 #@! TD*
G04 #@! TA.AperFunction,ViaPad*
%ADD35C,0.500000*%
G04 #@! TD*
G04 #@! TA.AperFunction,ViaPad*
%ADD36C,0.800000*%
G04 #@! TD*
G04 #@! TA.AperFunction,Conductor*
%ADD37C,0.152000*%
G04 #@! TD*
G04 #@! TA.AperFunction,Conductor*
%ADD38C,0.250000*%
G04 #@! TD*
G04 #@! TA.AperFunction,Conductor*
%ADD39C,0.300000*%
G04 #@! TD*
G04 #@! TA.AperFunction,Conductor*
%ADD40C,0.400000*%
G04 #@! TD*
G04 #@! TA.AperFunction,Conductor*
%ADD41C,0.600000*%
G04 #@! TD*
G04 #@! TA.AperFunction,Conductor*
%ADD42C,1.200000*%
G04 #@! TD*
G04 #@! TA.AperFunction,Conductor*
%ADD43C,0.500000*%
G04 #@! TD*
G04 #@! TA.AperFunction,Conductor*
%ADD44C,0.254000*%
G04 #@! TD*
G04 APERTURE END LIST*
D10*
X137205000Y-106915000D03*
X137205000Y-114065000D03*
X133405000Y-106915000D03*
X133405000Y-114065000D03*
D11*
X133755000Y-109190000D03*
X133755000Y-109840000D03*
X133755000Y-110490000D03*
X133755000Y-111140000D03*
X133755000Y-111790000D03*
D12*
X78500000Y-99000000D03*
X75960000Y-99000000D03*
X73420000Y-99000000D03*
X70880000Y-99000000D03*
X70880000Y-106620000D03*
X73420000Y-106620000D03*
X75960000Y-106620000D03*
X78500000Y-106620000D03*
D13*
X119000000Y-91000000D03*
D14*
X116000000Y-88000000D03*
D15*
X119000000Y-91000000D03*
D16*
X113300000Y-94750000D03*
X113300000Y-94250000D03*
X113300000Y-93750000D03*
X113300000Y-93250000D03*
X113300000Y-92750000D03*
X113300000Y-92250000D03*
X113300000Y-91750000D03*
X113300000Y-91250000D03*
X113300000Y-90750000D03*
X113300000Y-90250000D03*
X113300000Y-89750000D03*
X113300000Y-89250000D03*
X113300000Y-88750000D03*
X113300000Y-88250000D03*
X113300000Y-87750000D03*
X113300000Y-87250000D03*
D17*
X115250000Y-85300000D03*
X115750000Y-85300000D03*
X116250000Y-85300000D03*
X116750000Y-85300000D03*
X117250000Y-85300000D03*
X117750000Y-85300000D03*
X118250000Y-85300000D03*
X118750000Y-85300000D03*
X119250000Y-85300000D03*
X119750000Y-85300000D03*
X120250000Y-85300000D03*
X120750000Y-85300000D03*
X121250000Y-85300000D03*
X121750000Y-85300000D03*
X122250000Y-85300000D03*
X122750000Y-85300000D03*
D16*
X124700000Y-87250000D03*
X124700000Y-87750000D03*
X124700000Y-88250000D03*
X124700000Y-88750000D03*
X124700000Y-89250000D03*
X124700000Y-89750000D03*
X124700000Y-90250000D03*
X124700000Y-90750000D03*
X124700000Y-91250000D03*
X124700000Y-91750000D03*
X124700000Y-92250000D03*
X124700000Y-92750000D03*
X124700000Y-93250000D03*
X124700000Y-93750000D03*
X124700000Y-94250000D03*
X124700000Y-94750000D03*
D17*
X122750000Y-96700000D03*
X122250000Y-96700000D03*
X121750000Y-96700000D03*
X121250000Y-96700000D03*
X120750000Y-96700000D03*
X120250000Y-96700000D03*
X119750000Y-96700000D03*
X119250000Y-96700000D03*
X118750000Y-96700000D03*
X118250000Y-96700000D03*
X117750000Y-96700000D03*
X117250000Y-96700000D03*
X116750000Y-96700000D03*
X116250000Y-96700000D03*
X115750000Y-96700000D03*
X115250000Y-96700000D03*
D14*
X117000000Y-88000000D03*
X118000000Y-88000000D03*
X119000000Y-88000000D03*
X120000000Y-88000000D03*
X121000000Y-88000000D03*
X122000000Y-88000000D03*
X122000000Y-89000000D03*
X122000000Y-90000000D03*
X122000000Y-91000000D03*
X122000000Y-92000000D03*
X122000000Y-93000000D03*
X122000000Y-94000000D03*
X121000000Y-94000000D03*
X121000000Y-93000000D03*
X121000000Y-92000000D03*
X121000000Y-91000000D03*
X121000000Y-90000000D03*
X121000000Y-89000000D03*
X120000000Y-89000000D03*
X119000000Y-89000000D03*
X118000000Y-89000000D03*
X117000000Y-89000000D03*
X116000000Y-89000000D03*
X116000000Y-90000000D03*
X116000000Y-91000000D03*
X116000000Y-92000000D03*
X116000000Y-93000000D03*
X116000000Y-94000000D03*
X117000000Y-94000000D03*
X118000000Y-94000000D03*
X119000000Y-94000000D03*
X120000000Y-94000000D03*
X120000000Y-93000000D03*
X119000000Y-93000000D03*
X118000000Y-93000000D03*
X117000000Y-93000000D03*
X117000000Y-92000000D03*
X117000000Y-91000000D03*
X117000000Y-90000000D03*
D18*
X131125000Y-80000000D03*
X131125000Y-81000000D03*
X131125000Y-82000000D03*
X131125000Y-83000000D03*
X131125000Y-84000000D03*
X131125000Y-85000000D03*
X131125000Y-86000000D03*
X131125000Y-87000000D03*
X131125000Y-88000000D03*
X131125000Y-89000000D03*
X131925000Y-80500000D03*
X131925000Y-81500000D03*
X131925000Y-82500000D03*
X131925000Y-83500000D03*
X131925000Y-84500000D03*
X131925000Y-85500000D03*
X131925000Y-86500000D03*
X131925000Y-87500000D03*
X131925000Y-88500000D03*
D19*
X131525000Y-77250000D03*
X131525000Y-91750000D03*
D20*
X137465000Y-77250000D03*
X137465000Y-91750000D03*
D21*
X76750000Y-94800000D03*
X79450000Y-94800000D03*
X79450000Y-92800000D03*
X76750000Y-92800000D03*
X79500000Y-87300000D03*
X76800000Y-87300000D03*
X76800000Y-89600000D03*
X79500000Y-89600000D03*
X100350000Y-106000000D03*
X97650000Y-106000000D03*
X72400000Y-93675000D03*
X69700000Y-93675000D03*
D22*
X113137600Y-100975308D03*
D23*
X110597600Y-100975308D03*
D24*
X71600000Y-89625000D03*
D23*
X71600000Y-87085000D03*
D21*
X133020000Y-103120000D03*
X130320000Y-103120000D03*
X130190000Y-100280000D03*
X127490000Y-100280000D03*
D25*
X134450000Y-97800000D03*
X134450000Y-95100000D03*
X130220000Y-95040000D03*
X130220000Y-97740000D03*
X127880000Y-97770000D03*
X127880000Y-95070000D03*
X118160000Y-102550000D03*
X118160000Y-99850000D03*
D21*
X124590000Y-100300000D03*
X121890000Y-100300000D03*
D26*
X124592782Y-109499344D03*
D27*
X124592782Y-103199344D03*
X122292782Y-103199344D03*
X126892782Y-103199344D03*
D17*
X86200000Y-101250000D03*
X86700000Y-101250000D03*
X87200000Y-101250000D03*
X87700000Y-101250000D03*
X88200000Y-101250000D03*
X88700000Y-101250000D03*
X89200000Y-101250000D03*
X89700000Y-101250000D03*
X90200000Y-101250000D03*
X90700000Y-101250000D03*
X91200000Y-101250000D03*
X91700000Y-101250000D03*
X92200000Y-101250000D03*
X92700000Y-101250000D03*
X93200000Y-101250000D03*
X93700000Y-101250000D03*
X94200000Y-101250000D03*
X94700000Y-101250000D03*
X95200000Y-101250000D03*
X95700000Y-101250000D03*
X96200000Y-101250000D03*
X96700000Y-101250000D03*
X97200000Y-101250000D03*
X97700000Y-101250000D03*
X98200000Y-101250000D03*
X98700000Y-101250000D03*
X99200000Y-101250000D03*
X99700000Y-101250000D03*
X100200000Y-101250000D03*
X100700000Y-101250000D03*
X101200000Y-101250000D03*
X101700000Y-101250000D03*
X102200000Y-101250000D03*
X102700000Y-101250000D03*
X103200000Y-101250000D03*
X103700000Y-101250000D03*
D16*
X105650000Y-99300000D03*
X105650000Y-98800000D03*
X105650000Y-98300000D03*
X105650000Y-97800000D03*
X105650000Y-97300000D03*
X105650000Y-96800000D03*
X105650000Y-96300000D03*
X105650000Y-95800000D03*
X105650000Y-95300000D03*
X105650000Y-94800000D03*
X105650000Y-94300000D03*
X105650000Y-93800000D03*
X105650000Y-93300000D03*
X105650000Y-92800000D03*
X105650000Y-92300000D03*
X105650000Y-91800000D03*
X105650000Y-91300000D03*
X105650000Y-90800000D03*
X105650000Y-90300000D03*
X105650000Y-89800000D03*
X105650000Y-89300000D03*
X105650000Y-88800000D03*
X105650000Y-88300000D03*
X105650000Y-87800000D03*
X105650000Y-87300000D03*
X105650000Y-86800000D03*
X105650000Y-86300000D03*
X105650000Y-85800000D03*
X105650000Y-85300000D03*
X105650000Y-84800000D03*
X105650000Y-84300000D03*
X105650000Y-83800000D03*
X105650000Y-83300000D03*
X105650000Y-82800000D03*
X105650000Y-82300000D03*
X105650000Y-81800000D03*
D17*
X103700000Y-79850000D03*
X103200000Y-79850000D03*
X102700000Y-79850000D03*
X102200000Y-79850000D03*
X101700000Y-79850000D03*
X101200000Y-79850000D03*
X100700000Y-79850000D03*
X100200000Y-79850000D03*
X99700000Y-79850000D03*
X99200000Y-79850000D03*
X98700000Y-79850000D03*
X98200000Y-79850000D03*
X97700000Y-79850000D03*
X97200000Y-79850000D03*
X96700000Y-79850000D03*
X96200000Y-79850000D03*
X95700000Y-79850000D03*
X95200000Y-79850000D03*
X94700000Y-79850000D03*
X94200000Y-79850000D03*
X93700000Y-79850000D03*
X93200000Y-79850000D03*
X92700000Y-79850000D03*
X92200000Y-79850000D03*
X91700000Y-79850000D03*
X91200000Y-79850000D03*
X90700000Y-79850000D03*
X90200000Y-79850000D03*
X89700000Y-79850000D03*
X89200000Y-79850000D03*
X88700000Y-79850000D03*
X88200000Y-79850000D03*
X87700000Y-79850000D03*
X87200000Y-79850000D03*
X86700000Y-79850000D03*
X86200000Y-79850000D03*
D16*
X84250000Y-81800000D03*
X84250000Y-82300000D03*
X84250000Y-82800000D03*
X84250000Y-83300000D03*
X84250000Y-83800000D03*
X84250000Y-84300000D03*
X84250000Y-84800000D03*
X84250000Y-85300000D03*
X84250000Y-85800000D03*
X84250000Y-86300000D03*
X84250000Y-86800000D03*
X84250000Y-87300000D03*
X84250000Y-87800000D03*
X84250000Y-88300000D03*
X84250000Y-88800000D03*
X84250000Y-89300000D03*
X84250000Y-89800000D03*
X84250000Y-90300000D03*
X84250000Y-90800000D03*
X84250000Y-91300000D03*
X84250000Y-91800000D03*
X84250000Y-92300000D03*
X84250000Y-92800000D03*
X84250000Y-93300000D03*
X84250000Y-93800000D03*
X84250000Y-94300000D03*
X84250000Y-94800000D03*
X84250000Y-95300000D03*
X84250000Y-95800000D03*
X84250000Y-96300000D03*
X84250000Y-96800000D03*
X84250000Y-97300000D03*
X84250000Y-97800000D03*
X84250000Y-98300000D03*
X84250000Y-98800000D03*
X84250000Y-99300000D03*
D28*
X94950000Y-90550000D03*
D29*
X92950000Y-93550000D03*
X96950000Y-91550000D03*
X93950000Y-92550000D03*
X91950000Y-93550000D03*
X91950000Y-92550000D03*
X92950000Y-92550000D03*
X94950000Y-92550000D03*
X96950000Y-92550000D03*
X95950000Y-92550000D03*
X97950000Y-91550000D03*
X97950000Y-92550000D03*
X97950000Y-93550000D03*
X96950000Y-93550000D03*
X95950000Y-93550000D03*
X94950000Y-93550000D03*
X93950000Y-93550000D03*
X92950000Y-91550000D03*
X91950000Y-91550000D03*
X91950000Y-90550000D03*
X92950000Y-90550000D03*
D13*
X94950000Y-90550000D03*
D29*
X96950000Y-90550000D03*
X97950000Y-90550000D03*
X97950000Y-89550000D03*
X96950000Y-89550000D03*
X92950000Y-89550000D03*
X91950000Y-89550000D03*
X91950000Y-88550000D03*
X91950000Y-87550000D03*
X92950000Y-87550000D03*
X93950000Y-87550000D03*
X94950000Y-87550000D03*
X95950000Y-87550000D03*
X96950000Y-87550000D03*
X97950000Y-87550000D03*
X97950000Y-88550000D03*
X96950000Y-88550000D03*
X95950000Y-88550000D03*
X94950000Y-88550000D03*
X93950000Y-88550000D03*
X92950000Y-88550000D03*
D30*
X123750000Y-78525000D03*
D21*
X81350000Y-113000000D03*
X78650000Y-113000000D03*
X81350000Y-111000000D03*
X78650000Y-111000000D03*
D31*
X88000000Y-113000000D03*
D32*
X88000000Y-110460000D03*
X90540000Y-113000000D03*
X90540000Y-110460000D03*
X93080000Y-113000000D03*
X93080000Y-110460000D03*
X95620000Y-113000000D03*
X95620000Y-110460000D03*
X98160000Y-113000000D03*
X98160000Y-110460000D03*
D33*
X109000000Y-107000000D03*
D34*
X116620000Y-107000000D03*
X116620000Y-114620000D03*
X109000000Y-114620000D03*
D30*
X124850000Y-114475000D03*
X73000000Y-79000000D03*
X73000000Y-114000000D03*
D35*
X129525000Y-84625000D03*
X129350000Y-82500000D03*
X129510000Y-81490000D03*
X129435000Y-85490000D03*
X130725000Y-90250000D03*
X107800000Y-95300000D03*
X107700000Y-89300000D03*
X111700000Y-95300000D03*
X123300000Y-95300000D03*
X114100000Y-85300000D03*
X111250000Y-90750000D03*
X126760000Y-89750000D03*
X119440000Y-99250000D03*
X122900000Y-98000000D03*
X128730000Y-92380000D03*
D36*
X130302000Y-111125000D03*
D35*
X82080000Y-81800000D03*
X99580000Y-77510000D03*
X93700000Y-77510000D03*
X89200000Y-77510000D03*
X102630000Y-82030000D03*
X86440000Y-77500000D03*
X82080000Y-82800000D03*
X82080000Y-99300000D03*
D36*
X120600000Y-103200000D03*
D35*
X103180000Y-103200000D03*
X96700000Y-103200000D03*
X100200000Y-103200000D03*
X102630000Y-88800000D03*
D36*
X119700000Y-103200000D03*
D35*
X102630000Y-85800000D03*
X105620000Y-101160000D03*
X102630000Y-89800000D03*
X82080000Y-93300000D03*
X86470000Y-103190000D03*
X82080000Y-98300000D03*
X82080000Y-87810000D03*
X82080000Y-95300000D03*
X91400000Y-103200000D03*
X82110000Y-86300000D03*
X102630000Y-98170000D03*
D36*
X78660000Y-109130000D03*
X83500000Y-113000000D03*
D35*
X119010000Y-98090000D03*
X124100000Y-98400000D03*
X128630000Y-93400000D03*
X128750000Y-103000000D03*
X126050000Y-99090000D03*
X120100000Y-98900000D03*
X100000000Y-107500000D03*
X98000000Y-107500000D03*
X104300000Y-91260000D03*
X110500000Y-91700000D03*
X120750000Y-98100000D03*
X126100000Y-100300000D03*
X123920000Y-85230000D03*
X114270000Y-96540000D03*
X116110000Y-98020000D03*
X127520000Y-91220000D03*
X126370000Y-94590000D03*
D36*
X116125000Y-101950000D03*
D35*
X126140000Y-88400000D03*
X103000000Y-104500000D03*
X88760000Y-104630000D03*
X87470000Y-106160000D03*
D37*
X128290000Y-85860000D02*
X129525000Y-84625000D01*
X127370000Y-92250000D02*
X128290000Y-91330000D01*
X124700000Y-92250000D02*
X127370000Y-92250000D01*
X128290000Y-91330000D02*
X128290000Y-85860000D01*
X131115000Y-83990000D02*
X131125000Y-84000000D01*
X129310000Y-83990000D02*
X131115000Y-83990000D01*
X127860000Y-85440000D02*
X129310000Y-83990000D01*
X127860000Y-90010000D02*
X127860000Y-85440000D01*
X126620000Y-91250000D02*
X127860000Y-90010000D01*
X124700000Y-91250000D02*
X126620000Y-91250000D01*
X131115000Y-82990000D02*
X131125000Y-83000000D01*
X127540000Y-85310000D02*
X129860000Y-82990000D01*
X129860000Y-82990000D02*
X131115000Y-82990000D01*
X124700000Y-90750000D02*
X126630000Y-90750000D01*
X126630000Y-90750000D02*
X127540000Y-89840000D01*
X127540000Y-89840000D02*
X127540000Y-85310000D01*
X129350000Y-82500000D02*
X129340000Y-82490000D01*
X128960000Y-82490000D02*
X127130000Y-84320000D01*
X129340000Y-82490000D02*
X128960000Y-82490000D01*
X127130000Y-84320000D02*
X127130000Y-88570000D01*
X125950000Y-89750000D02*
X124700000Y-89750000D01*
X127130000Y-88570000D02*
X125950000Y-89750000D01*
X126820000Y-84180000D02*
X129510000Y-81490000D01*
X126820000Y-88450000D02*
X126820000Y-84180000D01*
X124700000Y-89250000D02*
X126020000Y-89250000D01*
X126020000Y-89250000D02*
X126820000Y-88450000D01*
X131115000Y-80990000D02*
X131125000Y-81000000D01*
X126390000Y-83335000D02*
X128735000Y-80990000D01*
X128735000Y-80990000D02*
X131115000Y-80990000D01*
X126390000Y-87380000D02*
X126390000Y-83335000D01*
X125520000Y-88250000D02*
X126390000Y-87380000D01*
X124700000Y-88250000D02*
X125520000Y-88250000D01*
X126075000Y-83175000D02*
X129260000Y-79990000D01*
X129260000Y-79990000D02*
X131115000Y-79990000D01*
X131115000Y-79990000D02*
X131125000Y-80000000D01*
X126075000Y-87250000D02*
X126075000Y-83175000D01*
X125575000Y-87750000D02*
X126075000Y-87250000D01*
X124700000Y-87750000D02*
X125575000Y-87750000D01*
X128610000Y-86315000D02*
X129435000Y-85490000D01*
X127370000Y-92750000D02*
X128610000Y-91510000D01*
X124700000Y-92750000D02*
X127370000Y-92750000D01*
X128610000Y-91510000D02*
X128610000Y-86315000D01*
X130200000Y-86990000D02*
X131115000Y-86990000D01*
X130200000Y-86990000D02*
X129370000Y-87820000D01*
X129370000Y-87820000D02*
X129370000Y-93730000D01*
X128030000Y-95070000D02*
X127880000Y-95070000D01*
X131115000Y-86990000D02*
X131125000Y-87000000D01*
X129370000Y-93730000D02*
X128030000Y-95070000D01*
X129750000Y-90925000D02*
X129750000Y-94570000D01*
X129750000Y-90850000D02*
X130350000Y-90250000D01*
X130350000Y-90250000D02*
X130725000Y-90250000D01*
X129750000Y-94570000D02*
X130220000Y-95040000D01*
X129750000Y-90925000D02*
X129750000Y-90850000D01*
D38*
X88200000Y-78000000D02*
X87800000Y-77600000D01*
X88200000Y-79850000D02*
X88200000Y-82000000D01*
X98700000Y-79850000D02*
X98700000Y-81700000D01*
X92200000Y-79850000D02*
X92200000Y-81200000D01*
X88200000Y-79850000D02*
X88200000Y-78000000D01*
X86800000Y-82300000D02*
X86900000Y-82400000D01*
X84250000Y-82300000D02*
X86800000Y-82300000D01*
X131925000Y-83500000D02*
X134000000Y-83500000D01*
X122250000Y-85300000D02*
X122250000Y-83450000D01*
X121750000Y-85300000D02*
X121750000Y-83850000D01*
X121750000Y-83850000D02*
X122200000Y-83400000D01*
X122250000Y-83450000D02*
X122200000Y-83400000D01*
X105650000Y-84800000D02*
X104800000Y-84800000D01*
X105650000Y-84800000D02*
X103800000Y-84800000D01*
X112250000Y-94750000D02*
X111700000Y-95300000D01*
X122750000Y-95850000D02*
X123300000Y-95300000D01*
X113300000Y-94750000D02*
X112250000Y-94750000D01*
X123850000Y-94750000D02*
X123300000Y-95300000D01*
X124700000Y-87250000D02*
X124700000Y-86400000D01*
X122750000Y-97850000D02*
X122900000Y-98000000D01*
X124700000Y-94750000D02*
X123850000Y-94750000D01*
X105650000Y-95300000D02*
X107800000Y-95300000D01*
X124700000Y-86400000D02*
X124900000Y-86200000D01*
X122750000Y-96700000D02*
X122750000Y-97850000D01*
X122750000Y-96700000D02*
X122750000Y-95850000D01*
X115250000Y-85300000D02*
X114100000Y-85300000D01*
X86100000Y-98800000D02*
X86300000Y-98600000D01*
X84250000Y-98800000D02*
X86100000Y-98800000D01*
X95700000Y-101250000D02*
X95700000Y-103700000D01*
X100700000Y-101250000D02*
X100700000Y-99700000D01*
X106800000Y-98800000D02*
X108000000Y-100000000D01*
D37*
X126760000Y-89750000D02*
X126260000Y-90250000D01*
X126260000Y-90250000D02*
X124700000Y-90250000D01*
D38*
X84250000Y-93800000D02*
X86400000Y-93800000D01*
X105650000Y-89300000D02*
X107700000Y-89300000D01*
X91200000Y-101250000D02*
X91200000Y-99800000D01*
X95700000Y-101250000D02*
X95700000Y-99300000D01*
X100700000Y-99700000D02*
X100000000Y-99000000D01*
X104200000Y-98800000D02*
X104000000Y-99000000D01*
D37*
X119750000Y-96700000D02*
X119750000Y-98550000D01*
D38*
X105650000Y-98800000D02*
X104200000Y-98800000D01*
X105650000Y-98800000D02*
X106800000Y-98800000D01*
X104300000Y-95300000D02*
X104000000Y-95000000D01*
X105650000Y-95300000D02*
X104300000Y-95300000D01*
D37*
X119750000Y-98550000D02*
X119440000Y-98860000D01*
X128730000Y-92380000D02*
X127860000Y-93250000D01*
X113300000Y-90750000D02*
X112260000Y-90750000D01*
X112260000Y-90750000D02*
X111250000Y-90750000D01*
X119440000Y-98860000D02*
X119440000Y-99250000D01*
X127860000Y-93250000D02*
X124700000Y-93250000D01*
D38*
X84250000Y-86800000D02*
X86300000Y-86800000D01*
D39*
X124592782Y-111384782D02*
X124592782Y-109499344D01*
X124998000Y-111790000D02*
X124592782Y-111384782D01*
X137205000Y-112186000D02*
X137205000Y-114065000D01*
X136809000Y-111790000D02*
X137205000Y-112186000D01*
D40*
X133755000Y-109190000D02*
X132050000Y-109190000D01*
D38*
X132050000Y-109190000D02*
X131729000Y-109190000D01*
D40*
X133755000Y-107265000D02*
X133405000Y-106915000D01*
X133755000Y-109190000D02*
X133755000Y-107265000D01*
X133755000Y-109190000D02*
X137130000Y-109190000D01*
D39*
X135763000Y-102108000D02*
X135763000Y-102235000D01*
D40*
X126892782Y-103199344D02*
X126892782Y-106445782D01*
X129637000Y-109190000D02*
X126892782Y-106445782D01*
X135763000Y-102108000D02*
X131395000Y-97740000D01*
X131395000Y-97740000D02*
X130220000Y-97740000D01*
X127910000Y-97740000D02*
X127880000Y-97770000D01*
X130220000Y-97740000D02*
X127910000Y-97740000D01*
X135763000Y-102108000D02*
X135763000Y-92338000D01*
X135763000Y-92338000D02*
X131925000Y-88500000D01*
X132237000Y-111790000D02*
X133755000Y-111790000D01*
X131508500Y-111061500D02*
X132237000Y-111790000D01*
X131445000Y-111125000D02*
X131508500Y-111061500D01*
X130302000Y-111125000D02*
X131445000Y-111125000D01*
X130683000Y-107061000D02*
X130683000Y-110236000D01*
X132334000Y-105410000D02*
X130683000Y-107061000D01*
X131508500Y-111061500D02*
X130683000Y-110236000D01*
X135763000Y-103759000D02*
X134112000Y-105410000D01*
X130683000Y-110236000D02*
X129637000Y-109190000D01*
X135763000Y-102108000D02*
X135763000Y-103759000D01*
X134112000Y-105410000D02*
X132334000Y-105410000D01*
D38*
X102860000Y-81800000D02*
X102630000Y-82030000D01*
X89200000Y-79850000D02*
X89200000Y-77510000D01*
X99200000Y-79850000D02*
X99200000Y-77890000D01*
X86500000Y-77500000D02*
X86700000Y-77700000D01*
X93700000Y-79850000D02*
X93700000Y-77510000D01*
X103700000Y-79850000D02*
X103700000Y-80960000D01*
X86200000Y-77740000D02*
X86200000Y-79850000D01*
X86700000Y-77700000D02*
X86700000Y-79850000D01*
X105650000Y-82300000D02*
X102900000Y-82300000D01*
X86440000Y-77500000D02*
X86500000Y-77500000D01*
X99200000Y-77890000D02*
X99580000Y-77510000D01*
X103700000Y-80960000D02*
X102630000Y-82030000D01*
X82080000Y-81800000D02*
X84250000Y-81800000D01*
X86440000Y-77500000D02*
X86200000Y-77740000D01*
X102900000Y-82300000D02*
X102630000Y-82030000D01*
X105650000Y-81800000D02*
X102860000Y-81800000D01*
X84250000Y-82800000D02*
X82080000Y-82800000D01*
X104500000Y-96300000D02*
X102630000Y-98170000D01*
X105650000Y-96300000D02*
X104500000Y-96300000D01*
X105650000Y-99300000D02*
X105650000Y-101130000D01*
X84250000Y-86300000D02*
X82110000Y-86300000D01*
X105650000Y-101130000D02*
X105620000Y-101160000D01*
X96700000Y-101250000D02*
X96700000Y-103200000D01*
X103200000Y-101250000D02*
X103200000Y-103180000D01*
X86700000Y-102960000D02*
X86700000Y-102680000D01*
X82090000Y-87800000D02*
X82080000Y-87810000D01*
X105650000Y-89800000D02*
X102630000Y-89800000D01*
X86470000Y-103190000D02*
X86700000Y-102960000D01*
D41*
X122292782Y-103199344D02*
X122292782Y-102597218D01*
D38*
X84250000Y-87800000D02*
X82090000Y-87800000D01*
X103700000Y-102680000D02*
X103180000Y-103200000D01*
X103180000Y-103100000D02*
X103180000Y-103200000D01*
X105650000Y-88800000D02*
X102630000Y-88800000D01*
X102700000Y-102620000D02*
X103180000Y-103100000D01*
X103200000Y-103180000D02*
X103180000Y-103200000D01*
X105650000Y-85800000D02*
X102630000Y-85800000D01*
X103700000Y-101250000D02*
X103700000Y-102680000D01*
X100200000Y-101250000D02*
X100200000Y-103200000D01*
X91700000Y-101250000D02*
X91700000Y-102900000D01*
X102700000Y-101250000D02*
X102700000Y-102620000D01*
D42*
X120600000Y-103200000D02*
X120600656Y-103199344D01*
D38*
X86200000Y-102870000D02*
X86200000Y-101250000D01*
X86470000Y-103140000D02*
X86200000Y-102870000D01*
X86470000Y-103190000D02*
X86470000Y-103140000D01*
D42*
X120600656Y-103199344D02*
X122292782Y-103199344D01*
D38*
X84250000Y-99300000D02*
X82080000Y-99300000D01*
X84250000Y-98300000D02*
X82080000Y-98300000D01*
X84250000Y-95300000D02*
X82080000Y-95300000D01*
X84250000Y-93300000D02*
X82080000Y-93300000D01*
D42*
X119700000Y-103200000D02*
X120600000Y-103200000D01*
D38*
X122577782Y-102597218D02*
X124590000Y-100585000D01*
X122292782Y-102597218D02*
X122577782Y-102597218D01*
X124590000Y-100585000D02*
X124590000Y-100300000D01*
D43*
X75960000Y-95590000D02*
X76750000Y-94800000D01*
D38*
X86700000Y-102680000D02*
X86700000Y-101250000D01*
D43*
X82080000Y-99300000D02*
X81250000Y-99300000D01*
X81250000Y-99300000D02*
X76750000Y-94800000D01*
X76800000Y-92750000D02*
X76750000Y-92800000D01*
X76750000Y-92800000D02*
X76750000Y-94800000D01*
X76800000Y-89600000D02*
X76800000Y-92750000D01*
D38*
X91700000Y-102900000D02*
X91400000Y-103200000D01*
D39*
X96625000Y-103275000D02*
X96700000Y-103200000D01*
D38*
X100500000Y-103500000D02*
X100200000Y-103200000D01*
X100350000Y-106000000D02*
X100500000Y-105850000D01*
X100500000Y-105850000D02*
X100500000Y-103500000D01*
D43*
X75960000Y-95590000D02*
X73420000Y-98130000D01*
X73420000Y-98130000D02*
X73420000Y-99000000D01*
D38*
X78660000Y-109130000D02*
X78650000Y-109140000D01*
X78650000Y-109140000D02*
X78650000Y-111000000D01*
D37*
X93080000Y-113000000D02*
X93070000Y-113000000D01*
X93070000Y-113000000D02*
X91570000Y-114500000D01*
X86920000Y-114500000D02*
X86190000Y-113770000D01*
X86190000Y-113770000D02*
X86190000Y-110090000D01*
X91570000Y-114500000D02*
X86920000Y-114500000D01*
X93200000Y-103080000D02*
X93200000Y-101250000D01*
X86190000Y-110090000D02*
X93200000Y-103080000D01*
X89260000Y-109860000D02*
X89260000Y-111740000D01*
D38*
X83500000Y-113000000D02*
X81350000Y-113000000D01*
D37*
X89260000Y-111740000D02*
X88000000Y-113000000D01*
X93700000Y-105420000D02*
X89260000Y-109860000D01*
X93700000Y-101250000D02*
X93700000Y-105420000D01*
X96870000Y-111710000D02*
X98160000Y-113000000D01*
X96870000Y-109770000D02*
X96870000Y-111710000D01*
X94200000Y-107100000D02*
X96870000Y-109770000D01*
X94200000Y-101250000D02*
X94200000Y-107100000D01*
X91810000Y-111730000D02*
X90540000Y-113000000D01*
X100130000Y-113170000D02*
X98840000Y-114460000D01*
X98840000Y-114460000D02*
X95120000Y-114460000D01*
X100130000Y-110510000D02*
X100130000Y-113170000D01*
X93840000Y-111730000D02*
X91810000Y-111730000D01*
X94350000Y-112240000D02*
X93840000Y-111730000D01*
X94350000Y-113690000D02*
X94350000Y-112240000D01*
X95120000Y-114460000D02*
X94350000Y-113690000D01*
X96680000Y-108480000D02*
X98100000Y-108480000D01*
X98100000Y-108480000D02*
X100130000Y-110510000D01*
X94700000Y-106500000D02*
X96680000Y-108480000D01*
X94700000Y-101250000D02*
X94700000Y-106500000D01*
X94700000Y-103010000D02*
X94700000Y-101250000D01*
X99200000Y-102500000D02*
X99200000Y-101500000D01*
X114100000Y-112100000D02*
X102525000Y-112100000D01*
X116620000Y-114620000D02*
X114100000Y-112100000D01*
X102525000Y-112100000D02*
X99000000Y-108575000D01*
X99000000Y-108575000D02*
X99000000Y-102800000D01*
X99000000Y-102800000D02*
X99200000Y-102600000D01*
X99200000Y-102600000D02*
X99200000Y-102500000D01*
X134470000Y-92345000D02*
X134470000Y-95370000D01*
X131125000Y-89000000D02*
X134470000Y-92345000D01*
X119250000Y-97850000D02*
X119250000Y-96700000D01*
X119010000Y-98090000D02*
X119250000Y-97850000D01*
X133070000Y-96420000D02*
X134450000Y-97800000D01*
X126080000Y-96420000D02*
X133070000Y-96420000D01*
X124100000Y-98400000D02*
X126080000Y-96420000D01*
X128750000Y-103000000D02*
X130200000Y-103000000D01*
X128280000Y-93750000D02*
X124700000Y-93750000D01*
X128630000Y-93400000D02*
X128280000Y-93750000D01*
X130200000Y-103000000D02*
X130320000Y-103120000D01*
X126050000Y-99090000D02*
X129080000Y-99090000D01*
X129080000Y-99090000D02*
X130190000Y-100200000D01*
X120250000Y-98750000D02*
X120250000Y-96700000D01*
X120100000Y-98900000D02*
X120250000Y-98750000D01*
X130190000Y-100200000D02*
X130190000Y-100280000D01*
X115750000Y-97650000D02*
X115440000Y-97960000D01*
X105650000Y-95800000D02*
X110810000Y-95800000D01*
X115440000Y-97960000D02*
X112970000Y-97960000D01*
X115750000Y-96700000D02*
X115750000Y-97650000D01*
X111310000Y-96300000D02*
X110800000Y-95790000D01*
X112970000Y-97960000D02*
X111310000Y-96300000D01*
X110810000Y-95800000D02*
X111310000Y-96300000D01*
X110450000Y-97190000D02*
X110070000Y-96810000D01*
X116750000Y-98260000D02*
X116500000Y-98510000D01*
X116750000Y-96700000D02*
X116750000Y-98260000D01*
X111770000Y-98510000D02*
X110450000Y-97190000D01*
X105650000Y-96800000D02*
X110060000Y-96800000D01*
X116500000Y-98510000D02*
X111770000Y-98510000D01*
X110060000Y-96800000D02*
X110450000Y-97190000D01*
X116770000Y-98840000D02*
X111410000Y-98840000D01*
X109870000Y-97300000D02*
X110360000Y-97790000D01*
X110360000Y-97790000D02*
X109860000Y-97290000D01*
X117250000Y-98360000D02*
X116770000Y-98840000D01*
X111410000Y-98840000D02*
X110360000Y-97790000D01*
X105650000Y-97300000D02*
X109870000Y-97300000D01*
X117250000Y-96700000D02*
X117250000Y-98360000D01*
X110750000Y-99490000D02*
X114250000Y-99490000D01*
X109830000Y-98570000D02*
X110750000Y-99490000D01*
X114250000Y-99490000D02*
X115660000Y-100900000D01*
X115660000Y-100900000D02*
X121290000Y-100900000D01*
X121750000Y-99150000D02*
X121750000Y-96700000D01*
X121290000Y-100900000D02*
X121890000Y-100300000D01*
X121890000Y-100300000D02*
X121890000Y-99290000D01*
X122250000Y-99940000D02*
X121890000Y-100300000D01*
X109560000Y-98300000D02*
X109830000Y-98570000D01*
X121890000Y-99290000D02*
X121750000Y-99150000D01*
X109830000Y-98570000D02*
X109570000Y-98310000D01*
X105650000Y-98300000D02*
X109560000Y-98300000D01*
X97350000Y-105700000D02*
X97650000Y-106000000D01*
X97350000Y-103625000D02*
X97350000Y-105700000D01*
X97700000Y-101450000D02*
X97700000Y-103275000D01*
X97700000Y-103275000D02*
X97350000Y-103625000D01*
X97650000Y-107150000D02*
X97650000Y-106000000D01*
X98000000Y-107500000D02*
X97650000Y-107150000D01*
X120850000Y-101600000D02*
X120550000Y-101300000D01*
X120550000Y-101300000D02*
X115700000Y-101300000D01*
X122800000Y-101600000D02*
X120850000Y-101600000D01*
X123250000Y-101150000D02*
X122800000Y-101600000D01*
X123250000Y-99500000D02*
X123250000Y-101150000D01*
X122250000Y-96700000D02*
X122250000Y-98500000D01*
X122250000Y-98500000D02*
X123250000Y-99500000D01*
X115700000Y-101300000D02*
X111675000Y-105325000D01*
X111675000Y-105325000D02*
X104175000Y-105325000D01*
X102000000Y-107500000D02*
X100000000Y-107500000D01*
X104175000Y-105325000D02*
X102000000Y-107500000D01*
X102200000Y-100100000D02*
X102200000Y-101250000D01*
X110950000Y-91250000D02*
X110500000Y-91700000D01*
X100700000Y-94860000D02*
X100700000Y-98600000D01*
X113300000Y-91250000D02*
X110950000Y-91250000D01*
X104300000Y-91260000D02*
X100700000Y-94860000D01*
X100700000Y-98600000D02*
X102200000Y-100100000D01*
X102340000Y-76950000D02*
X100700000Y-78590000D01*
X100700000Y-78590000D02*
X100700000Y-79850000D01*
X116020000Y-76950000D02*
X102340000Y-76950000D01*
X121250000Y-82180000D02*
X116020000Y-76950000D01*
X121250000Y-85300000D02*
X121250000Y-82180000D01*
X102550000Y-77390000D02*
X101200000Y-78740000D01*
X101200000Y-78740000D02*
X101200000Y-79850000D01*
X115800000Y-77390000D02*
X102550000Y-77390000D01*
X120750000Y-82340000D02*
X115800000Y-77390000D01*
X120750000Y-85300000D02*
X120750000Y-82340000D01*
X120250000Y-85300000D02*
X120250000Y-82550000D01*
X103370000Y-77730000D02*
X102200000Y-78900000D01*
X120250000Y-82550000D02*
X115430000Y-77730000D01*
X115430000Y-77730000D02*
X103370000Y-77730000D01*
X102200000Y-78900000D02*
X102200000Y-79850000D01*
X103460000Y-78130000D02*
X102700000Y-78890000D01*
X119750000Y-82670000D02*
X115210000Y-78130000D01*
X115210000Y-78130000D02*
X103460000Y-78130000D01*
X102700000Y-78890000D02*
X102700000Y-79850000D01*
X119750000Y-85300000D02*
X119750000Y-82670000D01*
X114800000Y-78450000D02*
X103790000Y-78450000D01*
X103790000Y-78450000D02*
X103200000Y-79040000D01*
X119250000Y-82900000D02*
X114800000Y-78450000D01*
X103200000Y-79040000D02*
X103200000Y-79850000D01*
X119250000Y-85300000D02*
X119250000Y-82900000D01*
X116990000Y-81380000D02*
X109300000Y-81380000D01*
X109300000Y-81380000D02*
X107880000Y-82800000D01*
X118750000Y-83140000D02*
X116990000Y-81380000D01*
X118750000Y-85300000D02*
X118750000Y-83140000D01*
X107880000Y-82800000D02*
X105650000Y-82800000D01*
X118250000Y-83300000D02*
X116740000Y-81790000D01*
X109560000Y-81790000D02*
X108050000Y-83300000D01*
X116740000Y-81790000D02*
X109560000Y-81790000D01*
X118250000Y-85300000D02*
X118250000Y-83300000D01*
X108050000Y-83300000D02*
X105650000Y-83300000D01*
X117750000Y-83430000D02*
X116520000Y-82200000D01*
X109800000Y-82200000D02*
X108200000Y-83800000D01*
X116520000Y-82200000D02*
X109800000Y-82200000D01*
X117750000Y-85300000D02*
X117750000Y-83430000D01*
X108200000Y-83800000D02*
X105650000Y-83800000D01*
X117250000Y-85300000D02*
X117250000Y-83640000D01*
X116210000Y-82600000D02*
X110060000Y-82600000D01*
X110060000Y-82600000D02*
X108360000Y-84300000D01*
X108360000Y-84300000D02*
X105650000Y-84300000D01*
X117250000Y-83640000D02*
X116210000Y-82600000D01*
X116750000Y-85300000D02*
X116750000Y-83940000D01*
X115820000Y-83010000D02*
X110240000Y-83010000D01*
X110240000Y-83010000D02*
X107950000Y-85300000D01*
X116750000Y-83940000D02*
X115820000Y-83010000D01*
X107950000Y-85300000D02*
X105650000Y-85300000D01*
X115580000Y-83500000D02*
X111960000Y-83500000D01*
X116250000Y-84170000D02*
X115580000Y-83500000D01*
X111960000Y-83500000D02*
X109160000Y-86300000D01*
X116250000Y-85300000D02*
X116250000Y-84170000D01*
X109160000Y-86300000D02*
X105650000Y-86300000D01*
X115750000Y-85300000D02*
X115750000Y-84300000D01*
X112260000Y-83920000D02*
X109380000Y-86800000D01*
X115370000Y-83920000D02*
X112260000Y-83920000D01*
X115750000Y-84300000D02*
X115370000Y-83920000D01*
X109380000Y-86800000D02*
X105650000Y-86800000D01*
X113300000Y-87750000D02*
X110180000Y-87750000D01*
X109730000Y-87300000D02*
X105650000Y-87300000D01*
X110180000Y-87750000D02*
X109730000Y-87300000D01*
X109490000Y-87800000D02*
X105650000Y-87800000D01*
X113300000Y-88250000D02*
X109940000Y-88250000D01*
X109940000Y-88250000D02*
X109490000Y-87800000D01*
X109280000Y-88300000D02*
X105650000Y-88300000D01*
X113300000Y-88750000D02*
X109730000Y-88750000D01*
X109730000Y-88750000D02*
X109280000Y-88300000D01*
X113300000Y-89250000D02*
X110190000Y-89250000D01*
X109030000Y-90410000D02*
X108650000Y-90790000D01*
X105650000Y-90800000D02*
X108640000Y-90800000D01*
X110190000Y-89250000D02*
X109030000Y-90410000D01*
X108640000Y-90800000D02*
X109030000Y-90410000D01*
X110460000Y-89750000D02*
X109360000Y-90850000D01*
X109360000Y-90850000D02*
X108900000Y-91310000D01*
X108910000Y-91300000D02*
X109360000Y-90850000D01*
X105650000Y-91300000D02*
X108910000Y-91300000D01*
X113300000Y-89750000D02*
X110460000Y-89750000D01*
X109210000Y-91800000D02*
X109670000Y-91340000D01*
X113300000Y-90250000D02*
X110760000Y-90250000D01*
X105650000Y-91800000D02*
X109210000Y-91800000D01*
X109670000Y-91340000D02*
X109220000Y-91790000D01*
X110760000Y-90250000D02*
X109670000Y-91340000D01*
X111090000Y-91940000D02*
X110720000Y-92310000D01*
X110730000Y-92300000D02*
X111090000Y-91940000D01*
X113300000Y-91750000D02*
X111280000Y-91750000D01*
X105650000Y-92300000D02*
X110730000Y-92300000D01*
X111280000Y-91750000D02*
X111090000Y-91940000D01*
X105650000Y-92800000D02*
X110780000Y-92800000D01*
X113300000Y-92250000D02*
X111330000Y-92250000D01*
X111330000Y-92250000D02*
X111090000Y-92490000D01*
X110780000Y-92800000D02*
X111090000Y-92490000D01*
X111090000Y-92490000D02*
X110770000Y-92810000D01*
X111130000Y-93070000D02*
X110880000Y-93320000D01*
X105650000Y-93300000D02*
X110900000Y-93300000D01*
X111450000Y-92750000D02*
X111130000Y-93070000D01*
X113300000Y-92750000D02*
X111450000Y-92750000D01*
X110900000Y-93300000D02*
X111130000Y-93070000D01*
X111520000Y-93250000D02*
X113300000Y-93250000D01*
X110970000Y-93800000D02*
X111520000Y-93250000D01*
X105650000Y-93800000D02*
X110970000Y-93800000D01*
X111070000Y-94300000D02*
X111620000Y-93750000D01*
X111620000Y-93750000D02*
X113300000Y-93750000D01*
X105650000Y-94300000D02*
X111070000Y-94300000D01*
X111590000Y-94490000D02*
X111270000Y-94810000D01*
X111280000Y-94800000D02*
X111590000Y-94490000D01*
X113300000Y-94250000D02*
X111830000Y-94250000D01*
X111830000Y-94250000D02*
X111590000Y-94490000D01*
X105650000Y-94800000D02*
X111280000Y-94800000D01*
D41*
X126100000Y-100300000D02*
X126120000Y-100280000D01*
X133020000Y-103120000D02*
X131600000Y-101700000D01*
D37*
X120750000Y-98100000D02*
X120750000Y-96700000D01*
D38*
X118160000Y-102550000D02*
X116725000Y-102550000D01*
D41*
X131600000Y-101700000D02*
X128910000Y-101700000D01*
X126120000Y-100280000D02*
X127490000Y-100280000D01*
X128910000Y-101700000D02*
X127490000Y-100280000D01*
D38*
X116725000Y-102550000D02*
X116125000Y-101950000D01*
D37*
X127520000Y-91220000D02*
X126990000Y-91750000D01*
X124700000Y-88750000D02*
X125790000Y-88750000D01*
X125790000Y-88750000D02*
X126140000Y-88400000D01*
X116250000Y-96700000D02*
X116250000Y-97880000D01*
X126030000Y-94250000D02*
X126370000Y-94590000D01*
X115250000Y-96700000D02*
X114430000Y-96700000D01*
D41*
X127470000Y-100300000D02*
X127490000Y-100280000D01*
D37*
X116250000Y-97880000D02*
X116110000Y-98020000D01*
D38*
X123850000Y-85300000D02*
X123920000Y-85230000D01*
D37*
X124700000Y-94250000D02*
X126030000Y-94250000D01*
D38*
X122750000Y-85300000D02*
X123850000Y-85300000D01*
D37*
X126990000Y-91750000D02*
X124700000Y-91750000D01*
X114430000Y-96700000D02*
X114270000Y-96540000D01*
X110212908Y-103900000D02*
X113137600Y-100975308D01*
X103600000Y-103900000D02*
X103000000Y-104500000D01*
X105000000Y-103900000D02*
X103600000Y-103900000D01*
X105000000Y-103900000D02*
X110212908Y-103900000D01*
X89200000Y-104190000D02*
X89200000Y-101250000D01*
X88760000Y-104630000D02*
X89200000Y-104190000D01*
X80800000Y-88300000D02*
X84250000Y-88300000D01*
X79500000Y-89600000D02*
X80800000Y-88300000D01*
X79500000Y-87300000D02*
X84250000Y-87300000D01*
X79450000Y-92800000D02*
X84250000Y-92800000D01*
X79450000Y-94800000D02*
X84250000Y-94800000D01*
X84750000Y-111000000D02*
X81350000Y-111000000D01*
X92200000Y-101250000D02*
X92200000Y-103550000D01*
X92200000Y-103550000D02*
X84750000Y-111000000D01*
X120170000Y-99830000D02*
X116080000Y-99830000D01*
X109760000Y-97800000D02*
X110160000Y-98200000D01*
X110160000Y-98200000D02*
X109750000Y-97790000D01*
X120170000Y-99830000D02*
X121250000Y-98750000D01*
X116080000Y-99830000D02*
X115420000Y-99170000D01*
X111130000Y-99170000D02*
X110160000Y-98200000D01*
X105650000Y-97800000D02*
X109760000Y-97800000D01*
X121250000Y-98750000D02*
X121250000Y-96800000D01*
X115420000Y-99170000D02*
X111130000Y-99170000D01*
X87000000Y-104000000D02*
X87700000Y-103300000D01*
X87700000Y-103300000D02*
X87700000Y-101250000D01*
X83490000Y-104000000D02*
X87000000Y-104000000D01*
X78870000Y-99380000D02*
X83490000Y-104000000D01*
X87875000Y-104725000D02*
X88700000Y-103900000D01*
X88700000Y-103900000D02*
X88700000Y-101250000D01*
X70880000Y-99000000D02*
X76605000Y-104725000D01*
X76605000Y-104725000D02*
X87875000Y-104725000D01*
X78795000Y-104375000D02*
X87550000Y-104375000D01*
X88200000Y-103725000D02*
X88200000Y-101250000D01*
X87550000Y-104375000D02*
X88200000Y-103725000D01*
X75960000Y-101540000D02*
X75960000Y-99000000D01*
X78795000Y-104375000D02*
X75960000Y-101540000D01*
X69700000Y-93675000D02*
X69700000Y-91525000D01*
X69700000Y-91525000D02*
X71600000Y-89625000D01*
D38*
X71790000Y-87085000D02*
X74075000Y-84800000D01*
X74075000Y-84800000D02*
X84250000Y-84800000D01*
X71600000Y-87085000D02*
X71790000Y-87085000D01*
D37*
X89700000Y-104760000D02*
X89700000Y-101250000D01*
X89160000Y-105300000D02*
X89700000Y-104760000D01*
X71610000Y-105300000D02*
X89160000Y-105300000D01*
X70880000Y-106620000D02*
X70880000Y-106030000D01*
X70880000Y-106030000D02*
X71610000Y-105300000D01*
X89160000Y-105300000D02*
X88300000Y-106160000D01*
X88300000Y-106160000D02*
X87470000Y-106160000D01*
X73420000Y-106620000D02*
X73490000Y-106620000D01*
X90200000Y-104790000D02*
X90200000Y-101250000D01*
X86700000Y-108290000D02*
X90200000Y-104790000D01*
X73420000Y-106620000D02*
X75090000Y-108290000D01*
X75090000Y-108290000D02*
X86700000Y-108290000D01*
D44*
G36*
X138265001Y-76024729D02*
G01*
X138240251Y-76014467D01*
X137992000Y-75965000D01*
X137592000Y-75965000D01*
X137592000Y-77123000D01*
X137612000Y-77123000D01*
X137612000Y-77377000D01*
X137592000Y-77377000D01*
X137592000Y-78535000D01*
X137992000Y-78535000D01*
X138240251Y-78485533D01*
X138265001Y-78475271D01*
X138265001Y-90524728D01*
X138240251Y-90514467D01*
X137992000Y-90465000D01*
X137592000Y-90465000D01*
X137592000Y-91623000D01*
X137612000Y-91623000D01*
X137612000Y-91877000D01*
X137592000Y-91877000D01*
X137592000Y-93035000D01*
X137992000Y-93035000D01*
X138240251Y-92985533D01*
X138265001Y-92975272D01*
X138265000Y-105856915D01*
X138179514Y-105799513D01*
X137950374Y-105703987D01*
X137707000Y-105655000D01*
X137332000Y-105655000D01*
X137332000Y-106788000D01*
X137352000Y-106788000D01*
X137352000Y-107042000D01*
X137332000Y-107042000D01*
X137332000Y-108175000D01*
X137707000Y-108175000D01*
X137950374Y-108126013D01*
X138179514Y-108030487D01*
X138265000Y-107973085D01*
X138265000Y-113006915D01*
X138179514Y-112949513D01*
X137950374Y-112853987D01*
X137707000Y-112805000D01*
X137332000Y-112805000D01*
X137332000Y-113938000D01*
X137352000Y-113938000D01*
X137352000Y-114192000D01*
X137332000Y-114192000D01*
X137332000Y-115325000D01*
X137707000Y-115325000D01*
X137950374Y-115276013D01*
X138179514Y-115180487D01*
X138265000Y-115123085D01*
X138265000Y-117265000D01*
X67735000Y-117265000D01*
X67735000Y-113809419D01*
X71065000Y-113809419D01*
X71065000Y-114190581D01*
X71139361Y-114564419D01*
X71285225Y-114916566D01*
X71496987Y-115233491D01*
X71766509Y-115503013D01*
X72083434Y-115714775D01*
X72435581Y-115860639D01*
X72809419Y-115935000D01*
X73190581Y-115935000D01*
X73564419Y-115860639D01*
X73916566Y-115714775D01*
X74069329Y-115612702D01*
X108186903Y-115612702D01*
X108258486Y-115856671D01*
X108513996Y-115977571D01*
X108788184Y-116046300D01*
X109070512Y-116060217D01*
X109350130Y-116018787D01*
X109616292Y-115923603D01*
X109741514Y-115856671D01*
X109813097Y-115612702D01*
X109000000Y-114799605D01*
X108186903Y-115612702D01*
X74069329Y-115612702D01*
X74233491Y-115503013D01*
X74503013Y-115233491D01*
X74714775Y-114916566D01*
X74860639Y-114564419D01*
X74935000Y-114190581D01*
X74935000Y-113809419D01*
X74903290Y-113650000D01*
X77261928Y-113650000D01*
X77274188Y-113774482D01*
X77310498Y-113894180D01*
X77369463Y-114004494D01*
X77448815Y-114101185D01*
X77545506Y-114180537D01*
X77655820Y-114239502D01*
X77775518Y-114275812D01*
X77900000Y-114288072D01*
X78364250Y-114285000D01*
X78523000Y-114126250D01*
X78523000Y-113127000D01*
X77423750Y-113127000D01*
X77265000Y-113285750D01*
X77261928Y-113650000D01*
X74903290Y-113650000D01*
X74860639Y-113435581D01*
X74714775Y-113083434D01*
X74503013Y-112766509D01*
X74233491Y-112496987D01*
X73916566Y-112285225D01*
X73564419Y-112139361D01*
X73190581Y-112065000D01*
X72809419Y-112065000D01*
X72435581Y-112139361D01*
X72083434Y-112285225D01*
X71766509Y-112496987D01*
X71496987Y-112766509D01*
X71285225Y-113083434D01*
X71139361Y-113435581D01*
X71065000Y-113809419D01*
X67735000Y-113809419D01*
X67735000Y-93025000D01*
X68311928Y-93025000D01*
X68311928Y-94325000D01*
X68324188Y-94449482D01*
X68360498Y-94569180D01*
X68419463Y-94679494D01*
X68498815Y-94776185D01*
X68595506Y-94855537D01*
X68705820Y-94914502D01*
X68825518Y-94950812D01*
X68950000Y-94963072D01*
X70450000Y-94963072D01*
X70574482Y-94950812D01*
X70694180Y-94914502D01*
X70804494Y-94855537D01*
X70901185Y-94776185D01*
X70980537Y-94679494D01*
X71039502Y-94569180D01*
X71050000Y-94534573D01*
X71060498Y-94569180D01*
X71119463Y-94679494D01*
X71198815Y-94776185D01*
X71295506Y-94855537D01*
X71405820Y-94914502D01*
X71525518Y-94950812D01*
X71650000Y-94963072D01*
X72114250Y-94960000D01*
X72273000Y-94801250D01*
X72273000Y-93802000D01*
X72527000Y-93802000D01*
X72527000Y-94801250D01*
X72685750Y-94960000D01*
X73150000Y-94963072D01*
X73274482Y-94950812D01*
X73394180Y-94914502D01*
X73504494Y-94855537D01*
X73601185Y-94776185D01*
X73680537Y-94679494D01*
X73739502Y-94569180D01*
X73775812Y-94449482D01*
X73788072Y-94325000D01*
X73785000Y-93960750D01*
X73626250Y-93802000D01*
X72527000Y-93802000D01*
X72273000Y-93802000D01*
X72253000Y-93802000D01*
X72253000Y-93548000D01*
X72273000Y-93548000D01*
X72273000Y-92548750D01*
X72527000Y-92548750D01*
X72527000Y-93548000D01*
X73626250Y-93548000D01*
X73785000Y-93389250D01*
X73788072Y-93025000D01*
X73775812Y-92900518D01*
X73739502Y-92780820D01*
X73680537Y-92670506D01*
X73601185Y-92573815D01*
X73504494Y-92494463D01*
X73394180Y-92435498D01*
X73274482Y-92399188D01*
X73150000Y-92386928D01*
X72685750Y-92390000D01*
X72527000Y-92548750D01*
X72273000Y-92548750D01*
X72114250Y-92390000D01*
X71650000Y-92386928D01*
X71525518Y-92399188D01*
X71405820Y-92435498D01*
X71295506Y-92494463D01*
X71198815Y-92573815D01*
X71119463Y-92670506D01*
X71060498Y-92780820D01*
X71050000Y-92815427D01*
X71039502Y-92780820D01*
X70980537Y-92670506D01*
X70901185Y-92573815D01*
X70804494Y-92494463D01*
X70694180Y-92435498D01*
X70574482Y-92399188D01*
X70450000Y-92386928D01*
X70411000Y-92386928D01*
X70411000Y-91819505D01*
X71017433Y-91213072D01*
X72600000Y-91213072D01*
X72724482Y-91200812D01*
X72844180Y-91164502D01*
X72954494Y-91105537D01*
X73051185Y-91026185D01*
X73130537Y-90929494D01*
X73189502Y-90819180D01*
X73225812Y-90699482D01*
X73238072Y-90575000D01*
X73238072Y-88675000D01*
X73225812Y-88550518D01*
X73189502Y-88430820D01*
X73130537Y-88320506D01*
X73051185Y-88223815D01*
X72954494Y-88144463D01*
X72844180Y-88085498D01*
X72838836Y-88083877D01*
X73004609Y-87835779D01*
X73124089Y-87547327D01*
X73185000Y-87241109D01*
X73185000Y-86928891D01*
X73157776Y-86792026D01*
X73299802Y-86650000D01*
X75411928Y-86650000D01*
X75415000Y-87014250D01*
X75573750Y-87173000D01*
X76673000Y-87173000D01*
X76673000Y-86173750D01*
X76514250Y-86015000D01*
X76050000Y-86011928D01*
X75925518Y-86024188D01*
X75805820Y-86060498D01*
X75695506Y-86119463D01*
X75598815Y-86198815D01*
X75519463Y-86295506D01*
X75460498Y-86405820D01*
X75424188Y-86525518D01*
X75411928Y-86650000D01*
X73299802Y-86650000D01*
X74389802Y-85560000D01*
X81624530Y-85560000D01*
X81545845Y-85612576D01*
X81422576Y-85735845D01*
X81325723Y-85880795D01*
X81259010Y-86041855D01*
X81225000Y-86212835D01*
X81225000Y-86387165D01*
X81259010Y-86558145D01*
X81271791Y-86589000D01*
X80882064Y-86589000D01*
X80875812Y-86525518D01*
X80839502Y-86405820D01*
X80780537Y-86295506D01*
X80701185Y-86198815D01*
X80604494Y-86119463D01*
X80494180Y-86060498D01*
X80374482Y-86024188D01*
X80250000Y-86011928D01*
X78750000Y-86011928D01*
X78625518Y-86024188D01*
X78505820Y-86060498D01*
X78395506Y-86119463D01*
X78298815Y-86198815D01*
X78219463Y-86295506D01*
X78160498Y-86405820D01*
X78150000Y-86440427D01*
X78139502Y-86405820D01*
X78080537Y-86295506D01*
X78001185Y-86198815D01*
X77904494Y-86119463D01*
X77794180Y-86060498D01*
X77674482Y-86024188D01*
X77550000Y-86011928D01*
X77085750Y-86015000D01*
X76927000Y-86173750D01*
X76927000Y-87173000D01*
X76947000Y-87173000D01*
X76947000Y-87427000D01*
X76927000Y-87427000D01*
X76927000Y-87447000D01*
X76673000Y-87447000D01*
X76673000Y-87427000D01*
X75573750Y-87427000D01*
X75415000Y-87585750D01*
X75411928Y-87950000D01*
X75424188Y-88074482D01*
X75460498Y-88194180D01*
X75519463Y-88304494D01*
X75598815Y-88401185D01*
X75658296Y-88450000D01*
X75598815Y-88498815D01*
X75519463Y-88595506D01*
X75460498Y-88705820D01*
X75424188Y-88825518D01*
X75411928Y-88950000D01*
X75411928Y-90250000D01*
X75424188Y-90374482D01*
X75460498Y-90494180D01*
X75519463Y-90604494D01*
X75598815Y-90701185D01*
X75695506Y-90780537D01*
X75805820Y-90839502D01*
X75915000Y-90872622D01*
X75915001Y-91520299D01*
X75875518Y-91524188D01*
X75755820Y-91560498D01*
X75645506Y-91619463D01*
X75548815Y-91698815D01*
X75469463Y-91795506D01*
X75410498Y-91905820D01*
X75374188Y-92025518D01*
X75361928Y-92150000D01*
X75361928Y-93450000D01*
X75374188Y-93574482D01*
X75410498Y-93694180D01*
X75467061Y-93800000D01*
X75410498Y-93905820D01*
X75374188Y-94025518D01*
X75361928Y-94150000D01*
X75361928Y-94936493D01*
X72824956Y-97473466D01*
X72791183Y-97501183D01*
X72680589Y-97635942D01*
X72598411Y-97789688D01*
X72569328Y-97885561D01*
X72568307Y-97888927D01*
X72529465Y-97914880D01*
X72334880Y-98109465D01*
X72181995Y-98338273D01*
X72150000Y-98415515D01*
X72118005Y-98338273D01*
X71965120Y-98109465D01*
X71770535Y-97914880D01*
X71541727Y-97761995D01*
X71287490Y-97656686D01*
X71017592Y-97603000D01*
X70742408Y-97603000D01*
X70472510Y-97656686D01*
X70218273Y-97761995D01*
X69989465Y-97914880D01*
X69794880Y-98109465D01*
X69641995Y-98338273D01*
X69536686Y-98592510D01*
X69483000Y-98862408D01*
X69483000Y-99137592D01*
X69536686Y-99407490D01*
X69641995Y-99661727D01*
X69794880Y-99890535D01*
X69989465Y-100085120D01*
X70218273Y-100238005D01*
X70472510Y-100343314D01*
X70742408Y-100397000D01*
X71017592Y-100397000D01*
X71229370Y-100354875D01*
X75463494Y-104589000D01*
X71644919Y-104589000D01*
X71610000Y-104585561D01*
X71575081Y-104589000D01*
X71575074Y-104589000D01*
X71470620Y-104599288D01*
X71336596Y-104639944D01*
X71213078Y-104705965D01*
X71155627Y-104753114D01*
X71131943Y-104772551D01*
X71131941Y-104772553D01*
X71104815Y-104794815D01*
X71082553Y-104821941D01*
X70666370Y-105238125D01*
X70472510Y-105276686D01*
X70218273Y-105381995D01*
X69989465Y-105534880D01*
X69794880Y-105729465D01*
X69641995Y-105958273D01*
X69536686Y-106212510D01*
X69483000Y-106482408D01*
X69483000Y-106757592D01*
X69536686Y-107027490D01*
X69641995Y-107281727D01*
X69794880Y-107510535D01*
X69989465Y-107705120D01*
X70218273Y-107858005D01*
X70472510Y-107963314D01*
X70742408Y-108017000D01*
X71017592Y-108017000D01*
X71287490Y-107963314D01*
X71541727Y-107858005D01*
X71770535Y-107705120D01*
X71965120Y-107510535D01*
X72118005Y-107281727D01*
X72150000Y-107204485D01*
X72181995Y-107281727D01*
X72334880Y-107510535D01*
X72529465Y-107705120D01*
X72758273Y-107858005D01*
X73012510Y-107963314D01*
X73282408Y-108017000D01*
X73557592Y-108017000D01*
X73769369Y-107974875D01*
X74562553Y-108768059D01*
X74584815Y-108795185D01*
X74611941Y-108817447D01*
X74611943Y-108817449D01*
X74624924Y-108828102D01*
X74693078Y-108884035D01*
X74773571Y-108927059D01*
X74816595Y-108950056D01*
X74888678Y-108971922D01*
X74950620Y-108990712D01*
X75055074Y-109001000D01*
X75055081Y-109001000D01*
X75090000Y-109004439D01*
X75124919Y-109001000D01*
X77630383Y-109001000D01*
X77625000Y-109028061D01*
X77625000Y-109231939D01*
X77664774Y-109431898D01*
X77742795Y-109620256D01*
X77809973Y-109720795D01*
X77775518Y-109724188D01*
X77655820Y-109760498D01*
X77545506Y-109819463D01*
X77448815Y-109898815D01*
X77369463Y-109995506D01*
X77310498Y-110105820D01*
X77274188Y-110225518D01*
X77261928Y-110350000D01*
X77261928Y-111650000D01*
X77274188Y-111774482D01*
X77310498Y-111894180D01*
X77367061Y-112000000D01*
X77310498Y-112105820D01*
X77274188Y-112225518D01*
X77261928Y-112350000D01*
X77265000Y-112714250D01*
X77423750Y-112873000D01*
X78523000Y-112873000D01*
X78523000Y-112853000D01*
X78777000Y-112853000D01*
X78777000Y-112873000D01*
X78797000Y-112873000D01*
X78797000Y-113127000D01*
X78777000Y-113127000D01*
X78777000Y-114126250D01*
X78935750Y-114285000D01*
X79400000Y-114288072D01*
X79524482Y-114275812D01*
X79644180Y-114239502D01*
X79754494Y-114180537D01*
X79851185Y-114101185D01*
X79930537Y-114004494D01*
X79989502Y-113894180D01*
X80000000Y-113859573D01*
X80010498Y-113894180D01*
X80069463Y-114004494D01*
X80148815Y-114101185D01*
X80245506Y-114180537D01*
X80355820Y-114239502D01*
X80475518Y-114275812D01*
X80600000Y-114288072D01*
X82100000Y-114288072D01*
X82224482Y-114275812D01*
X82344180Y-114239502D01*
X82454494Y-114180537D01*
X82551185Y-114101185D01*
X82630537Y-114004494D01*
X82689502Y-113894180D01*
X82725812Y-113774482D01*
X82727238Y-113760000D01*
X82796289Y-113760000D01*
X82840226Y-113803937D01*
X83009744Y-113917205D01*
X83198102Y-113995226D01*
X83398061Y-114035000D01*
X83601939Y-114035000D01*
X83801898Y-113995226D01*
X83990256Y-113917205D01*
X84159774Y-113803937D01*
X84303937Y-113659774D01*
X84417205Y-113490256D01*
X84495226Y-113301898D01*
X84535000Y-113101939D01*
X84535000Y-112898061D01*
X84495226Y-112698102D01*
X84417205Y-112509744D01*
X84303937Y-112340226D01*
X84159774Y-112196063D01*
X83990256Y-112082795D01*
X83801898Y-112004774D01*
X83601939Y-111965000D01*
X83398061Y-111965000D01*
X83198102Y-112004774D01*
X83009744Y-112082795D01*
X82840226Y-112196063D01*
X82796289Y-112240000D01*
X82727238Y-112240000D01*
X82725812Y-112225518D01*
X82689502Y-112105820D01*
X82632939Y-112000000D01*
X82689502Y-111894180D01*
X82725812Y-111774482D01*
X82732064Y-111711000D01*
X84715082Y-111711000D01*
X84750000Y-111714439D01*
X84784918Y-111711000D01*
X84784926Y-111711000D01*
X84889380Y-111700712D01*
X85023404Y-111660056D01*
X85146922Y-111594035D01*
X85255185Y-111505185D01*
X85277451Y-111478054D01*
X85479001Y-111276504D01*
X85479000Y-113735081D01*
X85475561Y-113770000D01*
X85479000Y-113804918D01*
X85479000Y-113804925D01*
X85489288Y-113909379D01*
X85529944Y-114043403D01*
X85595965Y-114166921D01*
X85684815Y-114275184D01*
X85711942Y-114297447D01*
X86392553Y-114978059D01*
X86414815Y-115005185D01*
X86441941Y-115027447D01*
X86441943Y-115027449D01*
X86455499Y-115038574D01*
X86523078Y-115094035D01*
X86646596Y-115160056D01*
X86780620Y-115200712D01*
X86885074Y-115211000D01*
X86885081Y-115211000D01*
X86920000Y-115214439D01*
X86954919Y-115211000D01*
X91535082Y-115211000D01*
X91570000Y-115214439D01*
X91604918Y-115211000D01*
X91604926Y-115211000D01*
X91709380Y-115200712D01*
X91843404Y-115160056D01*
X91966922Y-115094035D01*
X92075185Y-115005185D01*
X92097451Y-114978054D01*
X92636950Y-114438556D01*
X92642875Y-114441010D01*
X92932401Y-114498600D01*
X93227599Y-114498600D01*
X93517125Y-114441010D01*
X93789853Y-114328042D01*
X93905359Y-114250864D01*
X94592553Y-114938059D01*
X94614815Y-114965185D01*
X94641941Y-114987447D01*
X94641943Y-114987449D01*
X94663555Y-115005185D01*
X94723078Y-115054035D01*
X94846596Y-115120056D01*
X94936898Y-115147449D01*
X94980619Y-115160712D01*
X94994763Y-115162105D01*
X95085074Y-115171000D01*
X95085080Y-115171000D01*
X95119999Y-115174439D01*
X95154918Y-115171000D01*
X98805082Y-115171000D01*
X98840000Y-115174439D01*
X98874918Y-115171000D01*
X98874926Y-115171000D01*
X98979380Y-115160712D01*
X99113404Y-115120056D01*
X99236922Y-115054035D01*
X99345185Y-114965185D01*
X99367451Y-114938054D01*
X99614993Y-114690512D01*
X107559783Y-114690512D01*
X107601213Y-114970130D01*
X107696397Y-115236292D01*
X107763329Y-115361514D01*
X108007298Y-115433097D01*
X108820395Y-114620000D01*
X109179605Y-114620000D01*
X109992702Y-115433097D01*
X110236671Y-115361514D01*
X110357571Y-115106004D01*
X110426300Y-114831816D01*
X110440217Y-114549488D01*
X110398787Y-114269870D01*
X110303603Y-114003708D01*
X110236671Y-113878486D01*
X109992702Y-113806903D01*
X109179605Y-114620000D01*
X108820395Y-114620000D01*
X108007298Y-113806903D01*
X107763329Y-113878486D01*
X107642429Y-114133996D01*
X107573700Y-114408184D01*
X107559783Y-114690512D01*
X99614993Y-114690512D01*
X100608054Y-113697451D01*
X100635185Y-113675185D01*
X100674485Y-113627298D01*
X108186903Y-113627298D01*
X109000000Y-114440395D01*
X109813097Y-113627298D01*
X109741514Y-113383329D01*
X109486004Y-113262429D01*
X109211816Y-113193700D01*
X108929488Y-113179783D01*
X108649870Y-113221213D01*
X108383708Y-113316397D01*
X108258486Y-113383329D01*
X108186903Y-113627298D01*
X100674485Y-113627298D01*
X100724035Y-113566922D01*
X100790056Y-113443404D01*
X100821123Y-113340990D01*
X100830712Y-113309381D01*
X100835101Y-113264815D01*
X100841000Y-113204926D01*
X100841000Y-113204920D01*
X100844439Y-113170001D01*
X100841000Y-113135082D01*
X100841000Y-111421506D01*
X101997553Y-112578059D01*
X102019815Y-112605185D01*
X102046941Y-112627447D01*
X102046943Y-112627449D01*
X102048882Y-112629040D01*
X102128078Y-112694035D01*
X102188996Y-112726596D01*
X102251595Y-112760056D01*
X102385620Y-112800712D01*
X102490074Y-112811000D01*
X102490081Y-112811000D01*
X102525000Y-112814439D01*
X102559919Y-112811000D01*
X113805495Y-112811000D01*
X115232809Y-114238315D01*
X115185000Y-114478665D01*
X115185000Y-114761335D01*
X115240147Y-115038574D01*
X115348320Y-115299727D01*
X115505363Y-115534759D01*
X115705241Y-115734637D01*
X115940273Y-115891680D01*
X116201426Y-115999853D01*
X116478665Y-116055000D01*
X116761335Y-116055000D01*
X117038574Y-115999853D01*
X117299727Y-115891680D01*
X117534759Y-115734637D01*
X117734637Y-115534759D01*
X117891680Y-115299727D01*
X117999853Y-115038574D01*
X118055000Y-114761335D01*
X118055000Y-114478665D01*
X118016362Y-114284419D01*
X122915000Y-114284419D01*
X122915000Y-114665581D01*
X122989361Y-115039419D01*
X123135225Y-115391566D01*
X123346987Y-115708491D01*
X123616509Y-115978013D01*
X123933434Y-116189775D01*
X124285581Y-116335639D01*
X124659419Y-116410000D01*
X125040581Y-116410000D01*
X125414419Y-116335639D01*
X125766566Y-116189775D01*
X126083491Y-115978013D01*
X126353013Y-115708491D01*
X126564775Y-115391566D01*
X126710639Y-115039419D01*
X126785000Y-114665581D01*
X126785000Y-114386540D01*
X131811718Y-114386540D01*
X131817311Y-114429849D01*
X131911791Y-114659422D01*
X132049243Y-114866152D01*
X132224385Y-115042094D01*
X132430486Y-115180487D01*
X132659626Y-115276013D01*
X132903000Y-115325000D01*
X133278000Y-115325000D01*
X133278000Y-114192000D01*
X133532000Y-114192000D01*
X133532000Y-115325000D01*
X133907000Y-115325000D01*
X134150374Y-115276013D01*
X134379514Y-115180487D01*
X134585615Y-115042094D01*
X134760757Y-114866152D01*
X134898209Y-114659422D01*
X134992689Y-114429849D01*
X134998282Y-114386540D01*
X135611718Y-114386540D01*
X135617311Y-114429849D01*
X135711791Y-114659422D01*
X135849243Y-114866152D01*
X136024385Y-115042094D01*
X136230486Y-115180487D01*
X136459626Y-115276013D01*
X136703000Y-115325000D01*
X137078000Y-115325000D01*
X137078000Y-114192000D01*
X135736098Y-114192000D01*
X135611718Y-114386540D01*
X134998282Y-114386540D01*
X134873902Y-114192000D01*
X133532000Y-114192000D01*
X133278000Y-114192000D01*
X131936098Y-114192000D01*
X131811718Y-114386540D01*
X126785000Y-114386540D01*
X126785000Y-114284419D01*
X126710639Y-113910581D01*
X126641416Y-113743460D01*
X131811718Y-113743460D01*
X131936098Y-113938000D01*
X133278000Y-113938000D01*
X133278000Y-112805000D01*
X132903000Y-112805000D01*
X132659626Y-112853987D01*
X132430486Y-112949513D01*
X132224385Y-113087906D01*
X132049243Y-113263848D01*
X131911791Y-113470578D01*
X131817311Y-113700151D01*
X131811718Y-113743460D01*
X126641416Y-113743460D01*
X126564775Y-113558434D01*
X126353013Y-113241509D01*
X126083491Y-112971987D01*
X125766566Y-112760225D01*
X125414419Y-112614361D01*
X125040581Y-112540000D01*
X124659419Y-112540000D01*
X124285581Y-112614361D01*
X123933434Y-112760225D01*
X123616509Y-112971987D01*
X123346987Y-113241509D01*
X123135225Y-113558434D01*
X122989361Y-113910581D01*
X122915000Y-114284419D01*
X118016362Y-114284419D01*
X117999853Y-114201426D01*
X117891680Y-113940273D01*
X117734637Y-113705241D01*
X117534759Y-113505363D01*
X117299727Y-113348320D01*
X117038574Y-113240147D01*
X116761335Y-113185000D01*
X116478665Y-113185000D01*
X116238315Y-113232809D01*
X114627451Y-111621946D01*
X114605185Y-111594815D01*
X114496922Y-111505965D01*
X114373404Y-111439944D01*
X114239380Y-111399288D01*
X114134926Y-111389000D01*
X114134918Y-111389000D01*
X114100000Y-111385561D01*
X114065082Y-111389000D01*
X102819506Y-111389000D01*
X101929850Y-110499344D01*
X122054710Y-110499344D01*
X122066970Y-110623826D01*
X122103280Y-110743524D01*
X122162245Y-110853838D01*
X122241597Y-110950529D01*
X122338288Y-111029881D01*
X122448602Y-111088846D01*
X122568300Y-111125156D01*
X122692782Y-111137416D01*
X124307032Y-111134344D01*
X124465782Y-110975594D01*
X124465782Y-109626344D01*
X124719782Y-109626344D01*
X124719782Y-110975594D01*
X124878532Y-111134344D01*
X126492782Y-111137416D01*
X126617264Y-111125156D01*
X126736962Y-111088846D01*
X126847276Y-111029881D01*
X126943967Y-110950529D01*
X127023319Y-110853838D01*
X127082284Y-110743524D01*
X127118594Y-110623826D01*
X127130854Y-110499344D01*
X127127782Y-109785094D01*
X126969032Y-109626344D01*
X124719782Y-109626344D01*
X124465782Y-109626344D01*
X122216532Y-109626344D01*
X122057782Y-109785094D01*
X122054710Y-110499344D01*
X101929850Y-110499344D01*
X99929850Y-108499344D01*
X122054710Y-108499344D01*
X122057782Y-109213594D01*
X122216532Y-109372344D01*
X124465782Y-109372344D01*
X124465782Y-108023094D01*
X124719782Y-108023094D01*
X124719782Y-109372344D01*
X126969032Y-109372344D01*
X127127782Y-109213594D01*
X127130854Y-108499344D01*
X127118594Y-108374862D01*
X127082284Y-108255164D01*
X127023319Y-108144850D01*
X126943967Y-108048159D01*
X126847276Y-107968807D01*
X126736962Y-107909842D01*
X126617264Y-107873532D01*
X126492782Y-107861272D01*
X124878532Y-107864344D01*
X124719782Y-108023094D01*
X124465782Y-108023094D01*
X124307032Y-107864344D01*
X122692782Y-107861272D01*
X122568300Y-107873532D01*
X122448602Y-107909842D01*
X122338288Y-107968807D01*
X122241597Y-108048159D01*
X122162245Y-108144850D01*
X122103280Y-108255164D01*
X122066970Y-108374862D01*
X122054710Y-108499344D01*
X99929850Y-108499344D01*
X99791338Y-108360833D01*
X99912835Y-108385000D01*
X100087165Y-108385000D01*
X100258145Y-108350990D01*
X100419205Y-108284277D01*
X100528871Y-108211000D01*
X101965082Y-108211000D01*
X102000000Y-108214439D01*
X102034918Y-108211000D01*
X102034926Y-108211000D01*
X102139380Y-108200712D01*
X102273404Y-108160056D01*
X102396922Y-108094035D01*
X102505185Y-108005185D01*
X102527451Y-107978054D01*
X104469505Y-106036000D01*
X107586176Y-106036000D01*
X107574188Y-106075518D01*
X107561928Y-106200000D01*
X107561928Y-107800000D01*
X107574188Y-107924482D01*
X107610498Y-108044180D01*
X107669463Y-108154494D01*
X107748815Y-108251185D01*
X107845506Y-108330537D01*
X107955820Y-108389502D01*
X108075518Y-108425812D01*
X108200000Y-108438072D01*
X109800000Y-108438072D01*
X109924482Y-108425812D01*
X110044180Y-108389502D01*
X110154494Y-108330537D01*
X110251185Y-108251185D01*
X110330537Y-108154494D01*
X110389502Y-108044180D01*
X110425812Y-107924482D01*
X110438072Y-107800000D01*
X110438072Y-106858665D01*
X115185000Y-106858665D01*
X115185000Y-107141335D01*
X115240147Y-107418574D01*
X115348320Y-107679727D01*
X115505363Y-107914759D01*
X115705241Y-108114637D01*
X115940273Y-108271680D01*
X116201426Y-108379853D01*
X116478665Y-108435000D01*
X116761335Y-108435000D01*
X117038574Y-108379853D01*
X117299727Y-108271680D01*
X117534759Y-108114637D01*
X117734637Y-107914759D01*
X117891680Y-107679727D01*
X117999853Y-107418574D01*
X118055000Y-107141335D01*
X118055000Y-106858665D01*
X117999853Y-106581426D01*
X117891680Y-106320273D01*
X117734637Y-106085241D01*
X117534759Y-105885363D01*
X117299727Y-105728320D01*
X117038574Y-105620147D01*
X116761335Y-105565000D01*
X116478665Y-105565000D01*
X116201426Y-105620147D01*
X115940273Y-105728320D01*
X115705241Y-105885363D01*
X115505363Y-106085241D01*
X115348320Y-106320273D01*
X115240147Y-106581426D01*
X115185000Y-106858665D01*
X110438072Y-106858665D01*
X110438072Y-106200000D01*
X110425812Y-106075518D01*
X110413824Y-106036000D01*
X111640082Y-106036000D01*
X111675000Y-106039439D01*
X111709918Y-106036000D01*
X111709926Y-106036000D01*
X111814380Y-106025712D01*
X111948404Y-105985056D01*
X112071922Y-105919035D01*
X112180185Y-105830185D01*
X112202451Y-105803054D01*
X115358397Y-102647108D01*
X115465226Y-102753937D01*
X115634744Y-102867205D01*
X115823102Y-102945226D01*
X116023061Y-102985000D01*
X116085198Y-102985000D01*
X116161200Y-103061002D01*
X116184999Y-103090001D01*
X116213997Y-103113799D01*
X116300723Y-103184974D01*
X116413539Y-103245276D01*
X116432753Y-103255546D01*
X116576014Y-103299003D01*
X116687667Y-103310000D01*
X116687676Y-103310000D01*
X116724999Y-103313676D01*
X116762322Y-103310000D01*
X116872913Y-103310000D01*
X116884188Y-103424482D01*
X116920498Y-103544180D01*
X116979463Y-103654494D01*
X117058815Y-103751185D01*
X117155506Y-103830537D01*
X117265820Y-103889502D01*
X117385518Y-103925812D01*
X117510000Y-103938072D01*
X118708071Y-103938072D01*
X118822498Y-104077502D01*
X119010551Y-104231833D01*
X119225099Y-104346511D01*
X119457898Y-104417130D01*
X119639335Y-104435000D01*
X120539335Y-104435000D01*
X120600000Y-104440975D01*
X120660665Y-104435000D01*
X120667326Y-104434344D01*
X120950495Y-104434344D01*
X120953280Y-104443524D01*
X121012245Y-104553838D01*
X121091597Y-104650529D01*
X121188288Y-104729881D01*
X121298602Y-104788846D01*
X121418300Y-104825156D01*
X121542782Y-104837416D01*
X123042782Y-104837416D01*
X123167264Y-104825156D01*
X123286962Y-104788846D01*
X123397276Y-104729881D01*
X123442782Y-104692535D01*
X123488288Y-104729881D01*
X123598602Y-104788846D01*
X123718300Y-104825156D01*
X123842782Y-104837416D01*
X124307032Y-104834344D01*
X124465782Y-104675594D01*
X124465782Y-103326344D01*
X124445782Y-103326344D01*
X124445782Y-103072344D01*
X124465782Y-103072344D01*
X124465782Y-103052344D01*
X124719782Y-103052344D01*
X124719782Y-103072344D01*
X124739782Y-103072344D01*
X124739782Y-103326344D01*
X124719782Y-103326344D01*
X124719782Y-104675594D01*
X124878532Y-104834344D01*
X125342782Y-104837416D01*
X125467264Y-104825156D01*
X125586962Y-104788846D01*
X125697276Y-104729881D01*
X125742782Y-104692535D01*
X125788288Y-104729881D01*
X125898602Y-104788846D01*
X126018300Y-104825156D01*
X126057783Y-104829045D01*
X126057783Y-106404754D01*
X126053742Y-106445782D01*
X126069864Y-106609470D01*
X126117610Y-106766868D01*
X126195146Y-106911927D01*
X126195147Y-106911928D01*
X126299492Y-107039073D01*
X126331356Y-107065223D01*
X129075570Y-109809438D01*
X129075575Y-109809442D01*
X129614711Y-110348578D01*
X129498063Y-110465226D01*
X129384795Y-110634744D01*
X129306774Y-110823102D01*
X129267000Y-111023061D01*
X129267000Y-111226939D01*
X129306774Y-111426898D01*
X129384795Y-111615256D01*
X129498063Y-111784774D01*
X129642226Y-111928937D01*
X129811744Y-112042205D01*
X130000102Y-112120226D01*
X130200061Y-112160000D01*
X130403939Y-112160000D01*
X130603898Y-112120226D01*
X130792256Y-112042205D01*
X130915285Y-111960000D01*
X131226132Y-111960000D01*
X131617563Y-112351431D01*
X131643709Y-112383291D01*
X131675568Y-112409437D01*
X131675570Y-112409439D01*
X131693849Y-112424440D01*
X131770854Y-112487636D01*
X131915913Y-112565172D01*
X132073311Y-112612918D01*
X132195981Y-112625000D01*
X132195982Y-112625000D01*
X132237000Y-112629040D01*
X132278018Y-112625000D01*
X132798808Y-112625000D01*
X132830000Y-112628072D01*
X133580126Y-112628072D01*
X133604010Y-112748145D01*
X133627560Y-112805000D01*
X133532000Y-112805000D01*
X133532000Y-113938000D01*
X134873902Y-113938000D01*
X134998282Y-113743460D01*
X135611718Y-113743460D01*
X135736098Y-113938000D01*
X137078000Y-113938000D01*
X137078000Y-112805000D01*
X136703000Y-112805000D01*
X136459626Y-112853987D01*
X136230486Y-112949513D01*
X136024385Y-113087906D01*
X135849243Y-113263848D01*
X135711791Y-113470578D01*
X135617311Y-113700151D01*
X135611718Y-113743460D01*
X134998282Y-113743460D01*
X134992689Y-113700151D01*
X134898209Y-113470578D01*
X134790691Y-113308869D01*
X134874205Y-113274277D01*
X135019155Y-113177424D01*
X135142424Y-113054155D01*
X135239277Y-112909205D01*
X135305990Y-112748145D01*
X135340000Y-112577165D01*
X135340000Y-112402835D01*
X135305990Y-112231855D01*
X135285334Y-112181988D01*
X135305812Y-112114482D01*
X135318072Y-111990000D01*
X135318072Y-111590000D01*
X135305812Y-111465518D01*
X135305655Y-111465000D01*
X135305812Y-111464482D01*
X135318072Y-111340000D01*
X135318072Y-110940000D01*
X135305812Y-110815518D01*
X135305655Y-110815000D01*
X135305812Y-110814482D01*
X135318072Y-110690000D01*
X135318072Y-110290000D01*
X135305812Y-110165518D01*
X135305655Y-110165000D01*
X135305812Y-110164482D01*
X135318072Y-110040000D01*
X135318072Y-109640000D01*
X135305812Y-109515518D01*
X135305151Y-109513340D01*
X135315000Y-109421750D01*
X135247032Y-109353782D01*
X135210537Y-109285506D01*
X135131185Y-109188815D01*
X135063396Y-109133183D01*
X135079579Y-109117000D01*
X135156250Y-109117000D01*
X135315000Y-108958250D01*
X135304170Y-108857533D01*
X135285304Y-108798085D01*
X135305990Y-108748145D01*
X135340000Y-108577165D01*
X135340000Y-108402835D01*
X135305990Y-108231855D01*
X135239277Y-108070795D01*
X135142424Y-107925845D01*
X135019155Y-107802576D01*
X134874205Y-107705723D01*
X134790691Y-107671131D01*
X134898209Y-107509422D01*
X134992689Y-107279849D01*
X134998282Y-107236540D01*
X135611718Y-107236540D01*
X135617311Y-107279849D01*
X135711791Y-107509422D01*
X135849243Y-107716152D01*
X136024385Y-107892094D01*
X136230486Y-108030487D01*
X136459626Y-108126013D01*
X136703000Y-108175000D01*
X137078000Y-108175000D01*
X137078000Y-107042000D01*
X135736098Y-107042000D01*
X135611718Y-107236540D01*
X134998282Y-107236540D01*
X134873902Y-107042000D01*
X133532000Y-107042000D01*
X133532000Y-108175000D01*
X133627560Y-108175000D01*
X133604010Y-108231855D01*
X133570000Y-108402835D01*
X133570000Y-108455750D01*
X133469250Y-108355000D01*
X132838152Y-108351980D01*
X132713524Y-108362649D01*
X132593372Y-108397427D01*
X132482313Y-108454977D01*
X132384616Y-108533088D01*
X132304035Y-108628757D01*
X132243666Y-108738309D01*
X132205830Y-108857533D01*
X132195000Y-108958250D01*
X132353750Y-109117000D01*
X132466322Y-109117000D01*
X132378815Y-109188815D01*
X132299463Y-109285506D01*
X132262968Y-109353782D01*
X132195000Y-109421750D01*
X132204849Y-109513340D01*
X132204188Y-109515518D01*
X132191928Y-109640000D01*
X132191928Y-110040000D01*
X132204188Y-110164482D01*
X132204345Y-110165000D01*
X132204188Y-110165518D01*
X132191928Y-110290000D01*
X132191928Y-110564061D01*
X132127944Y-110500077D01*
X132101791Y-110468209D01*
X132069927Y-110442060D01*
X131518000Y-109890133D01*
X131518000Y-107406867D01*
X131882866Y-107042002D01*
X131936097Y-107042002D01*
X131811718Y-107236540D01*
X131817311Y-107279849D01*
X131911791Y-107509422D01*
X132049243Y-107716152D01*
X132224385Y-107892094D01*
X132430486Y-108030487D01*
X132659626Y-108126013D01*
X132903000Y-108175000D01*
X133278000Y-108175000D01*
X133278000Y-107042000D01*
X133258000Y-107042000D01*
X133258000Y-106788000D01*
X133278000Y-106788000D01*
X133278000Y-106768000D01*
X133532000Y-106768000D01*
X133532000Y-106788000D01*
X134873902Y-106788000D01*
X134998282Y-106593460D01*
X135611718Y-106593460D01*
X135736098Y-106788000D01*
X137078000Y-106788000D01*
X137078000Y-105655000D01*
X136703000Y-105655000D01*
X136459626Y-105703987D01*
X136230486Y-105799513D01*
X136024385Y-105937906D01*
X135849243Y-106113848D01*
X135711791Y-106320578D01*
X135617311Y-106550151D01*
X135611718Y-106593460D01*
X134998282Y-106593460D01*
X134992689Y-106550151D01*
X134898209Y-106320578D01*
X134760757Y-106113848D01*
X134675247Y-106027947D01*
X134705291Y-106003291D01*
X134731446Y-105971421D01*
X136324432Y-104378437D01*
X136356291Y-104352291D01*
X136383584Y-104319035D01*
X136460636Y-104225146D01*
X136538172Y-104080087D01*
X136543113Y-104063799D01*
X136585918Y-103922689D01*
X136598000Y-103800019D01*
X136598000Y-103800018D01*
X136602040Y-103759000D01*
X136598000Y-103717982D01*
X136598000Y-102149018D01*
X136602040Y-102108000D01*
X136598000Y-102066981D01*
X136598000Y-92947493D01*
X136689749Y-92985533D01*
X136938000Y-93035000D01*
X137338000Y-93035000D01*
X137338000Y-91877000D01*
X137318000Y-91877000D01*
X137318000Y-91623000D01*
X137338000Y-91623000D01*
X137338000Y-90465000D01*
X136938000Y-90465000D01*
X136689749Y-90514467D01*
X136455919Y-90611415D01*
X136245495Y-90752118D01*
X136066564Y-90931170D01*
X135926003Y-91141689D01*
X135873773Y-91267904D01*
X132917273Y-88311406D01*
X132896186Y-88205394D01*
X132820050Y-88021586D01*
X132805627Y-88000000D01*
X132820050Y-87978414D01*
X132896186Y-87794606D01*
X132935000Y-87599476D01*
X132935000Y-87400524D01*
X132896186Y-87205394D01*
X132820050Y-87021586D01*
X132805627Y-87000000D01*
X132820050Y-86978414D01*
X132896186Y-86794606D01*
X132935000Y-86599476D01*
X132935000Y-86400524D01*
X132896186Y-86205394D01*
X132820050Y-86021586D01*
X132805627Y-86000000D01*
X132820050Y-85978414D01*
X132896186Y-85794606D01*
X132935000Y-85599476D01*
X132935000Y-85400524D01*
X132896186Y-85205394D01*
X132820050Y-85021586D01*
X132805627Y-85000000D01*
X132820050Y-84978414D01*
X132896186Y-84794606D01*
X132935000Y-84599476D01*
X132935000Y-84400524D01*
X132896186Y-84205394D01*
X132820050Y-84021586D01*
X132799327Y-83990572D01*
X132814255Y-83989101D01*
X132892587Y-83806218D01*
X132933735Y-83611567D01*
X132936118Y-83412628D01*
X132899644Y-83217048D01*
X132825715Y-83032341D01*
X132814255Y-83010899D01*
X132799327Y-83009428D01*
X132820050Y-82978414D01*
X132896186Y-82794606D01*
X132935000Y-82599476D01*
X132935000Y-82400524D01*
X132896186Y-82205394D01*
X132820050Y-82021586D01*
X132805627Y-82000000D01*
X132820050Y-81978414D01*
X132896186Y-81794606D01*
X132935000Y-81599476D01*
X132935000Y-81400524D01*
X132896186Y-81205394D01*
X132820050Y-81021586D01*
X132799327Y-80990572D01*
X132814255Y-80989101D01*
X132892587Y-80806218D01*
X132933735Y-80611567D01*
X132936118Y-80412628D01*
X132899644Y-80217048D01*
X132825715Y-80032341D01*
X132814255Y-80010899D01*
X132613485Y-79991120D01*
X132104605Y-80500000D01*
X132112018Y-80507413D01*
X132024476Y-80490000D01*
X132012308Y-80490000D01*
X132020050Y-80478414D01*
X132096186Y-80294606D01*
X132132289Y-80113106D01*
X132433880Y-79811515D01*
X132414101Y-79610745D01*
X132231218Y-79532413D01*
X132036567Y-79491265D01*
X131999493Y-79490821D01*
X131909518Y-79356163D01*
X131768837Y-79215482D01*
X131603414Y-79104950D01*
X131419606Y-79028814D01*
X131224476Y-78990000D01*
X131025524Y-78990000D01*
X130830394Y-79028814D01*
X130646586Y-79104950D01*
X130481163Y-79215482D01*
X130417645Y-79279000D01*
X129294918Y-79279000D01*
X129259999Y-79275561D01*
X129225080Y-79279000D01*
X129225074Y-79279000D01*
X129134763Y-79287895D01*
X129120619Y-79289288D01*
X129079963Y-79301621D01*
X128986596Y-79329944D01*
X128863078Y-79395965D01*
X128808554Y-79440712D01*
X128781943Y-79462551D01*
X128781941Y-79462553D01*
X128754815Y-79484815D01*
X128732553Y-79511941D01*
X125596942Y-82647553D01*
X125569816Y-82669815D01*
X125547554Y-82696941D01*
X125547551Y-82696944D01*
X125523217Y-82726596D01*
X125480966Y-82778078D01*
X125421541Y-82889255D01*
X125414945Y-82901596D01*
X125374288Y-83035621D01*
X125360561Y-83175000D01*
X125364001Y-83209928D01*
X125364000Y-86462504D01*
X124985750Y-86465000D01*
X124827000Y-86623750D01*
X124827000Y-86961928D01*
X124573000Y-86961928D01*
X124573000Y-86623750D01*
X124414250Y-86465000D01*
X123959488Y-86461999D01*
X123834838Y-86472407D01*
X123714613Y-86506933D01*
X123603434Y-86564250D01*
X123505574Y-86642156D01*
X123424792Y-86737657D01*
X123364194Y-86847082D01*
X123326109Y-86966227D01*
X123315000Y-87068250D01*
X123452275Y-87205525D01*
X123419463Y-87245506D01*
X123360498Y-87355820D01*
X123347247Y-87399503D01*
X123315000Y-87431750D01*
X123322088Y-87496843D01*
X123311928Y-87600000D01*
X123311928Y-87900000D01*
X123321777Y-88000000D01*
X123311928Y-88100000D01*
X123311928Y-88400000D01*
X123321777Y-88500000D01*
X123311928Y-88600000D01*
X123311928Y-88900000D01*
X123321777Y-89000000D01*
X123311928Y-89100000D01*
X123311928Y-89400000D01*
X123321777Y-89500000D01*
X123311928Y-89600000D01*
X123311928Y-89900000D01*
X123322088Y-90003157D01*
X123315000Y-90068250D01*
X123347247Y-90100497D01*
X123360498Y-90144180D01*
X123417061Y-90250000D01*
X123360498Y-90355820D01*
X123347247Y-90399503D01*
X123315000Y-90431750D01*
X123322088Y-90496843D01*
X123311928Y-90600000D01*
X123311928Y-90900000D01*
X123321777Y-91000000D01*
X123311928Y-91100000D01*
X123311928Y-91400000D01*
X123321777Y-91500000D01*
X123311928Y-91600000D01*
X123311928Y-91900000D01*
X123321777Y-92000000D01*
X123311928Y-92100000D01*
X123311928Y-92400000D01*
X123321777Y-92500000D01*
X123311928Y-92600000D01*
X123311928Y-92900000D01*
X123322088Y-93003157D01*
X123315000Y-93068250D01*
X123347247Y-93100497D01*
X123360498Y-93144180D01*
X123417061Y-93250000D01*
X123360498Y-93355820D01*
X123347247Y-93399503D01*
X123315000Y-93431750D01*
X123322088Y-93496843D01*
X123311928Y-93600000D01*
X123311928Y-93900000D01*
X123321777Y-94000000D01*
X123311928Y-94100000D01*
X123311928Y-94400000D01*
X123322088Y-94503157D01*
X123315000Y-94568250D01*
X123347247Y-94600497D01*
X123360498Y-94644180D01*
X123419463Y-94754494D01*
X123452275Y-94794475D01*
X123315000Y-94931750D01*
X123326109Y-95033773D01*
X123364194Y-95152918D01*
X123424792Y-95262343D01*
X123505574Y-95357844D01*
X123603434Y-95435750D01*
X123714613Y-95493067D01*
X123834838Y-95527593D01*
X123959488Y-95538001D01*
X124414250Y-95535000D01*
X124573000Y-95376250D01*
X124573000Y-95038072D01*
X124827000Y-95038072D01*
X124827000Y-95376250D01*
X124985750Y-95535000D01*
X125440512Y-95538001D01*
X125565162Y-95527593D01*
X125685387Y-95493067D01*
X125796566Y-95435750D01*
X125894426Y-95357844D01*
X125905900Y-95344279D01*
X125950795Y-95374277D01*
X126111855Y-95440990D01*
X126282835Y-95475000D01*
X126457165Y-95475000D01*
X126591928Y-95448194D01*
X126591928Y-95709000D01*
X126114919Y-95709000D01*
X126080000Y-95705561D01*
X126045081Y-95709000D01*
X126045074Y-95709000D01*
X125940620Y-95719288D01*
X125806596Y-95759944D01*
X125683078Y-95825965D01*
X125653792Y-95850000D01*
X125601943Y-95892551D01*
X125601941Y-95892553D01*
X125574815Y-95914815D01*
X125552553Y-95941941D01*
X123971216Y-97523278D01*
X123841855Y-97549010D01*
X123680795Y-97615723D01*
X123535845Y-97712576D01*
X123412576Y-97835845D01*
X123315723Y-97980795D01*
X123249010Y-98141855D01*
X123215000Y-98312835D01*
X123215000Y-98459495D01*
X122961000Y-98205495D01*
X122961000Y-98081815D01*
X123033773Y-98073891D01*
X123152918Y-98035806D01*
X123262343Y-97975208D01*
X123357844Y-97894426D01*
X123435750Y-97796566D01*
X123493067Y-97685387D01*
X123527593Y-97565162D01*
X123538001Y-97440512D01*
X123535000Y-96985750D01*
X123376250Y-96827000D01*
X123038072Y-96827000D01*
X123038072Y-96573000D01*
X123376250Y-96573000D01*
X123535000Y-96414250D01*
X123538001Y-95959488D01*
X123527593Y-95834838D01*
X123493067Y-95714613D01*
X123435750Y-95603434D01*
X123357844Y-95505574D01*
X123262343Y-95424792D01*
X123152918Y-95364194D01*
X123033773Y-95326109D01*
X122931750Y-95315000D01*
X122794475Y-95452275D01*
X122754494Y-95419463D01*
X122644180Y-95360498D01*
X122600497Y-95347247D01*
X122568250Y-95315000D01*
X122503157Y-95322088D01*
X122400000Y-95311928D01*
X122100000Y-95311928D01*
X122000000Y-95321777D01*
X121900000Y-95311928D01*
X121600000Y-95311928D01*
X121500000Y-95321777D01*
X121400000Y-95311928D01*
X121100000Y-95311928D01*
X121000000Y-95321777D01*
X120900000Y-95311928D01*
X120600000Y-95311928D01*
X120500000Y-95321777D01*
X120400000Y-95311928D01*
X120100000Y-95311928D01*
X119996843Y-95322088D01*
X119931750Y-95315000D01*
X119899503Y-95347247D01*
X119855820Y-95360498D01*
X119750000Y-95417061D01*
X119644180Y-95360498D01*
X119600497Y-95347247D01*
X119568250Y-95315000D01*
X119503157Y-95322088D01*
X119400000Y-95311928D01*
X119100000Y-95311928D01*
X119000000Y-95321777D01*
X118900000Y-95311928D01*
X118600000Y-95311928D01*
X118500000Y-95321777D01*
X118400000Y-95311928D01*
X118100000Y-95311928D01*
X118000000Y-95321777D01*
X117900000Y-95311928D01*
X117600000Y-95311928D01*
X117500000Y-95321777D01*
X117400000Y-95311928D01*
X117100000Y-95311928D01*
X117000000Y-95321777D01*
X116900000Y-95311928D01*
X116600000Y-95311928D01*
X116500000Y-95321777D01*
X116400000Y-95311928D01*
X116100000Y-95311928D01*
X116000000Y-95321777D01*
X115900000Y-95311928D01*
X115600000Y-95311928D01*
X115500000Y-95321777D01*
X115400000Y-95311928D01*
X115100000Y-95311928D01*
X114975518Y-95324188D01*
X114855820Y-95360498D01*
X114745506Y-95419463D01*
X114648815Y-95498815D01*
X114569463Y-95595506D01*
X114520316Y-95687453D01*
X114357165Y-95655000D01*
X114182835Y-95655000D01*
X114011855Y-95689010D01*
X113850795Y-95755723D01*
X113705845Y-95852576D01*
X113582576Y-95975845D01*
X113485723Y-96120795D01*
X113419010Y-96281855D01*
X113385000Y-96452835D01*
X113385000Y-96627165D01*
X113419010Y-96798145D01*
X113485723Y-96959205D01*
X113582576Y-97104155D01*
X113705845Y-97227424D01*
X113738136Y-97249000D01*
X113264506Y-97249000D01*
X111837453Y-95821948D01*
X111837449Y-95821943D01*
X111566503Y-95550997D01*
X111499023Y-95483518D01*
X111543404Y-95470055D01*
X111666921Y-95404034D01*
X111748056Y-95337449D01*
X111758056Y-95327449D01*
X111785185Y-95305185D01*
X111807451Y-95278054D01*
X111956538Y-95128967D01*
X111964194Y-95152918D01*
X112024792Y-95262343D01*
X112105574Y-95357844D01*
X112203434Y-95435750D01*
X112314613Y-95493067D01*
X112434838Y-95527593D01*
X112559488Y-95538001D01*
X113014250Y-95535000D01*
X113173000Y-95376250D01*
X113173000Y-95038072D01*
X113427000Y-95038072D01*
X113427000Y-95376250D01*
X113585750Y-95535000D01*
X114040512Y-95538001D01*
X114165162Y-95527593D01*
X114285387Y-95493067D01*
X114396566Y-95435750D01*
X114494426Y-95357844D01*
X114575208Y-95262343D01*
X114635806Y-95152918D01*
X114673891Y-95033773D01*
X114685000Y-94931750D01*
X114547725Y-94794475D01*
X114580537Y-94754494D01*
X114639502Y-94644180D01*
X114652753Y-94600497D01*
X114685000Y-94568250D01*
X114677912Y-94503157D01*
X114688072Y-94400000D01*
X114688072Y-94100000D01*
X114678223Y-94000000D01*
X114688072Y-93900000D01*
X114688072Y-93600000D01*
X114678223Y-93500000D01*
X114688072Y-93400000D01*
X114688072Y-93100000D01*
X114678223Y-93000000D01*
X114688072Y-92900000D01*
X114688072Y-92600000D01*
X114678223Y-92500000D01*
X114688072Y-92400000D01*
X114688072Y-92100000D01*
X114678223Y-92000000D01*
X114688072Y-91900000D01*
X114688072Y-91600000D01*
X114678223Y-91500000D01*
X114688072Y-91400000D01*
X114688072Y-91100000D01*
X114677912Y-90996843D01*
X114685000Y-90931750D01*
X114652753Y-90899503D01*
X114639502Y-90855820D01*
X114582939Y-90750000D01*
X114639502Y-90644180D01*
X114652753Y-90600497D01*
X114685000Y-90568250D01*
X114677912Y-90503157D01*
X114688072Y-90400000D01*
X114688072Y-90100000D01*
X114678223Y-90000000D01*
X114688072Y-89900000D01*
X114688072Y-89600000D01*
X114678223Y-89500000D01*
X114688072Y-89400000D01*
X114688072Y-89100000D01*
X114678223Y-89000000D01*
X114688072Y-88900000D01*
X114688072Y-88600000D01*
X114678223Y-88500000D01*
X114688072Y-88400000D01*
X114688072Y-88100000D01*
X114678223Y-88000000D01*
X114688072Y-87900000D01*
X114688072Y-87600000D01*
X114678223Y-87500000D01*
X114688072Y-87400000D01*
X114688072Y-87100000D01*
X114675812Y-86975518D01*
X114639502Y-86855820D01*
X114580537Y-86745506D01*
X114501185Y-86648815D01*
X114404494Y-86569463D01*
X114294180Y-86510498D01*
X114174482Y-86474188D01*
X114050000Y-86461928D01*
X112550000Y-86461928D01*
X112425518Y-86474188D01*
X112305820Y-86510498D01*
X112195506Y-86569463D01*
X112098815Y-86648815D01*
X112019463Y-86745506D01*
X111960498Y-86855820D01*
X111924188Y-86975518D01*
X111917936Y-87039000D01*
X110474505Y-87039000D01*
X110310505Y-86875000D01*
X112554506Y-84631000D01*
X114462471Y-84631000D01*
X114465000Y-85014250D01*
X114623750Y-85173000D01*
X114961928Y-85173000D01*
X114961928Y-85427000D01*
X114623750Y-85427000D01*
X114465000Y-85585750D01*
X114461999Y-86040512D01*
X114472407Y-86165162D01*
X114506933Y-86285387D01*
X114564250Y-86396566D01*
X114642156Y-86494426D01*
X114737657Y-86575208D01*
X114847082Y-86635806D01*
X114966227Y-86673891D01*
X115068250Y-86685000D01*
X115205525Y-86547725D01*
X115245506Y-86580537D01*
X115355820Y-86639502D01*
X115399503Y-86652753D01*
X115431750Y-86685000D01*
X115496843Y-86677912D01*
X115600000Y-86688072D01*
X115900000Y-86688072D01*
X116000000Y-86678223D01*
X116100000Y-86688072D01*
X116400000Y-86688072D01*
X116500000Y-86678223D01*
X116600000Y-86688072D01*
X116900000Y-86688072D01*
X117000000Y-86678223D01*
X117100000Y-86688072D01*
X117400000Y-86688072D01*
X117500000Y-86678223D01*
X117600000Y-86688072D01*
X117900000Y-86688072D01*
X118000000Y-86678223D01*
X118100000Y-86688072D01*
X118400000Y-86688072D01*
X118500000Y-86678223D01*
X118600000Y-86688072D01*
X118900000Y-86688072D01*
X119000000Y-86678223D01*
X119100000Y-86688072D01*
X119400000Y-86688072D01*
X119500000Y-86678223D01*
X119600000Y-86688072D01*
X119900000Y-86688072D01*
X120000000Y-86678223D01*
X120100000Y-86688072D01*
X120400000Y-86688072D01*
X120500000Y-86678223D01*
X120600000Y-86688072D01*
X120900000Y-86688072D01*
X121000000Y-86678223D01*
X121100000Y-86688072D01*
X121400000Y-86688072D01*
X121503157Y-86677912D01*
X121568250Y-86685000D01*
X121600497Y-86652753D01*
X121644180Y-86639502D01*
X121750823Y-86582499D01*
X121847082Y-86635806D01*
X121899223Y-86652473D01*
X121931750Y-86685000D01*
X122000000Y-86677568D01*
X122068250Y-86685000D01*
X122100777Y-86652473D01*
X122152918Y-86635806D01*
X122249177Y-86582499D01*
X122355820Y-86639502D01*
X122399503Y-86652753D01*
X122431750Y-86685000D01*
X122496843Y-86677912D01*
X122600000Y-86688072D01*
X122900000Y-86688072D01*
X123024482Y-86675812D01*
X123144180Y-86639502D01*
X123254494Y-86580537D01*
X123351185Y-86501185D01*
X123430537Y-86404494D01*
X123489502Y-86294180D01*
X123525812Y-86174482D01*
X123537087Y-86060000D01*
X123611180Y-86060000D01*
X123661855Y-86080990D01*
X123832835Y-86115000D01*
X124007165Y-86115000D01*
X124178145Y-86080990D01*
X124339205Y-86014277D01*
X124484155Y-85917424D01*
X124607424Y-85794155D01*
X124704277Y-85649205D01*
X124770990Y-85488145D01*
X124805000Y-85317165D01*
X124805000Y-85142835D01*
X124770990Y-84971855D01*
X124704277Y-84810795D01*
X124607424Y-84665845D01*
X124484155Y-84542576D01*
X124339205Y-84445723D01*
X124178145Y-84379010D01*
X124007165Y-84345000D01*
X123832835Y-84345000D01*
X123661855Y-84379010D01*
X123526743Y-84434975D01*
X123525812Y-84425518D01*
X123489502Y-84305820D01*
X123430537Y-84195506D01*
X123351185Y-84098815D01*
X123254494Y-84019463D01*
X123144180Y-83960498D01*
X123024482Y-83924188D01*
X122900000Y-83911928D01*
X122600000Y-83911928D01*
X122496843Y-83922088D01*
X122431750Y-83915000D01*
X122399503Y-83947247D01*
X122355820Y-83960498D01*
X122249177Y-84017501D01*
X122152918Y-83964194D01*
X122100777Y-83947527D01*
X122068250Y-83915000D01*
X122000000Y-83922432D01*
X121961000Y-83918185D01*
X121961000Y-82214918D01*
X121964439Y-82180000D01*
X121961000Y-82145081D01*
X121961000Y-82145074D01*
X121950712Y-82040620D01*
X121910056Y-81906596D01*
X121844035Y-81783078D01*
X121755185Y-81674815D01*
X121728059Y-81652553D01*
X118409925Y-78334419D01*
X121815000Y-78334419D01*
X121815000Y-78715581D01*
X121889361Y-79089419D01*
X122035225Y-79441566D01*
X122246987Y-79758491D01*
X122516509Y-80028013D01*
X122833434Y-80239775D01*
X123185581Y-80385639D01*
X123559419Y-80460000D01*
X123940581Y-80460000D01*
X124314419Y-80385639D01*
X124666566Y-80239775D01*
X124983491Y-80028013D01*
X125253013Y-79758491D01*
X125464775Y-79441566D01*
X125610639Y-79089419D01*
X125685000Y-78715581D01*
X125685000Y-78334419D01*
X125610639Y-77960581D01*
X125464775Y-77608434D01*
X125437497Y-77567609D01*
X129631538Y-77567609D01*
X129635409Y-77605282D01*
X129727579Y-77830533D01*
X129861922Y-78033474D01*
X130033275Y-78206307D01*
X130235054Y-78342390D01*
X130459504Y-78436493D01*
X130698000Y-78485000D01*
X131398000Y-78485000D01*
X131398000Y-77377000D01*
X131652000Y-77377000D01*
X131652000Y-78485000D01*
X132352000Y-78485000D01*
X132590496Y-78436493D01*
X132814946Y-78342390D01*
X133016725Y-78206307D01*
X133188078Y-78033474D01*
X133322421Y-77830533D01*
X133414591Y-77605282D01*
X133417654Y-77575471D01*
X135821901Y-77575471D01*
X135829213Y-77624415D01*
X135926003Y-77858311D01*
X136066564Y-78068830D01*
X136245495Y-78247882D01*
X136455919Y-78388585D01*
X136689749Y-78485533D01*
X136938000Y-78535000D01*
X137338000Y-78535000D01*
X137338000Y-77377000D01*
X135945933Y-77377000D01*
X135821901Y-77575471D01*
X133417654Y-77575471D01*
X133418462Y-77567609D01*
X133293731Y-77377000D01*
X131652000Y-77377000D01*
X131398000Y-77377000D01*
X129756269Y-77377000D01*
X129631538Y-77567609D01*
X125437497Y-77567609D01*
X125253013Y-77291509D01*
X124983491Y-77021987D01*
X124849401Y-76932391D01*
X129631538Y-76932391D01*
X129756269Y-77123000D01*
X131398000Y-77123000D01*
X131398000Y-76015000D01*
X131652000Y-76015000D01*
X131652000Y-77123000D01*
X133293731Y-77123000D01*
X133418462Y-76932391D01*
X133417655Y-76924529D01*
X135821901Y-76924529D01*
X135945933Y-77123000D01*
X137338000Y-77123000D01*
X137338000Y-75965000D01*
X136938000Y-75965000D01*
X136689749Y-76014467D01*
X136455919Y-76111415D01*
X136245495Y-76252118D01*
X136066564Y-76431170D01*
X135926003Y-76641689D01*
X135829213Y-76875585D01*
X135821901Y-76924529D01*
X133417655Y-76924529D01*
X133414591Y-76894718D01*
X133322421Y-76669467D01*
X133188078Y-76466526D01*
X133016725Y-76293693D01*
X132814946Y-76157610D01*
X132590496Y-76063507D01*
X132352000Y-76015000D01*
X131652000Y-76015000D01*
X131398000Y-76015000D01*
X130698000Y-76015000D01*
X130459504Y-76063507D01*
X130235054Y-76157610D01*
X130033275Y-76293693D01*
X129861922Y-76466526D01*
X129727579Y-76669467D01*
X129635409Y-76894718D01*
X129631538Y-76932391D01*
X124849401Y-76932391D01*
X124666566Y-76810225D01*
X124314419Y-76664361D01*
X123940581Y-76590000D01*
X123559419Y-76590000D01*
X123185581Y-76664361D01*
X122833434Y-76810225D01*
X122516509Y-77021987D01*
X122246987Y-77291509D01*
X122035225Y-77608434D01*
X121889361Y-77960581D01*
X121815000Y-78334419D01*
X118409925Y-78334419D01*
X116547451Y-76471946D01*
X116525185Y-76444815D01*
X116416922Y-76355965D01*
X116293404Y-76289944D01*
X116159380Y-76249288D01*
X116054926Y-76239000D01*
X116054918Y-76239000D01*
X116020000Y-76235561D01*
X115985082Y-76239000D01*
X102374918Y-76239000D01*
X102339999Y-76235561D01*
X102305080Y-76239000D01*
X102305074Y-76239000D01*
X102214763Y-76247895D01*
X102200619Y-76249288D01*
X102159963Y-76261621D01*
X102066596Y-76289944D01*
X101943078Y-76355965D01*
X101885627Y-76403114D01*
X101861943Y-76422551D01*
X101861941Y-76422553D01*
X101834815Y-76444815D01*
X101812553Y-76471941D01*
X100370632Y-77913863D01*
X100430990Y-77768145D01*
X100465000Y-77597165D01*
X100465000Y-77422835D01*
X100430990Y-77251855D01*
X100364277Y-77090795D01*
X100267424Y-76945845D01*
X100144155Y-76822576D01*
X99999205Y-76725723D01*
X99838145Y-76659010D01*
X99667165Y-76625000D01*
X99492835Y-76625000D01*
X99321855Y-76659010D01*
X99160795Y-76725723D01*
X99015845Y-76822576D01*
X98892576Y-76945845D01*
X98795723Y-77090795D01*
X98729010Y-77251855D01*
X98720485Y-77294714D01*
X98688998Y-77326201D01*
X98660000Y-77349999D01*
X98636202Y-77378997D01*
X98636201Y-77378998D01*
X98565026Y-77465724D01*
X98494454Y-77597754D01*
X98474540Y-77663404D01*
X98450998Y-77741014D01*
X98446476Y-77786922D01*
X98436324Y-77890000D01*
X98440001Y-77927332D01*
X98440001Y-78470792D01*
X98350000Y-78461928D01*
X98050000Y-78461928D01*
X97950000Y-78471777D01*
X97850000Y-78461928D01*
X97550000Y-78461928D01*
X97450000Y-78471777D01*
X97350000Y-78461928D01*
X97050000Y-78461928D01*
X96950000Y-78471777D01*
X96850000Y-78461928D01*
X96550000Y-78461928D01*
X96450000Y-78471777D01*
X96350000Y-78461928D01*
X96050000Y-78461928D01*
X95950000Y-78471777D01*
X95850000Y-78461928D01*
X95550000Y-78461928D01*
X95450000Y-78471777D01*
X95350000Y-78461928D01*
X95050000Y-78461928D01*
X94950000Y-78471777D01*
X94850000Y-78461928D01*
X94550000Y-78461928D01*
X94460000Y-78470792D01*
X94460000Y-77965538D01*
X94484277Y-77929205D01*
X94550990Y-77768145D01*
X94585000Y-77597165D01*
X94585000Y-77422835D01*
X94550990Y-77251855D01*
X94484277Y-77090795D01*
X94387424Y-76945845D01*
X94264155Y-76822576D01*
X94119205Y-76725723D01*
X93958145Y-76659010D01*
X93787165Y-76625000D01*
X93612835Y-76625000D01*
X93441855Y-76659010D01*
X93280795Y-76725723D01*
X93135845Y-76822576D01*
X93012576Y-76945845D01*
X92915723Y-77090795D01*
X92849010Y-77251855D01*
X92815000Y-77422835D01*
X92815000Y-77597165D01*
X92849010Y-77768145D01*
X92915723Y-77929205D01*
X92940001Y-77965539D01*
X92940001Y-78470792D01*
X92850000Y-78461928D01*
X92550000Y-78461928D01*
X92446843Y-78472088D01*
X92381750Y-78465000D01*
X92349503Y-78497247D01*
X92305820Y-78510498D01*
X92200000Y-78567061D01*
X92094180Y-78510498D01*
X92050497Y-78497247D01*
X92018250Y-78465000D01*
X91953157Y-78472088D01*
X91850000Y-78461928D01*
X91550000Y-78461928D01*
X91450000Y-78471777D01*
X91350000Y-78461928D01*
X91050000Y-78461928D01*
X90950000Y-78471777D01*
X90850000Y-78461928D01*
X90550000Y-78461928D01*
X90450000Y-78471777D01*
X90350000Y-78461928D01*
X90050000Y-78461928D01*
X89960000Y-78470792D01*
X89960000Y-77965538D01*
X89984277Y-77929205D01*
X90050990Y-77768145D01*
X90085000Y-77597165D01*
X90085000Y-77422835D01*
X90050990Y-77251855D01*
X89984277Y-77090795D01*
X89887424Y-76945845D01*
X89764155Y-76822576D01*
X89619205Y-76725723D01*
X89458145Y-76659010D01*
X89287165Y-76625000D01*
X89112835Y-76625000D01*
X88941855Y-76659010D01*
X88780795Y-76725723D01*
X88635845Y-76822576D01*
X88512576Y-76945845D01*
X88415723Y-77090795D01*
X88349010Y-77251855D01*
X88315000Y-77422835D01*
X88315000Y-77597165D01*
X88349010Y-77768145D01*
X88415723Y-77929205D01*
X88440001Y-77965539D01*
X88440001Y-78471343D01*
X88381750Y-78465000D01*
X88349503Y-78497247D01*
X88305820Y-78510498D01*
X88200000Y-78567061D01*
X88094180Y-78510498D01*
X88050497Y-78497247D01*
X88018250Y-78465000D01*
X87953157Y-78472088D01*
X87850000Y-78461928D01*
X87550000Y-78461928D01*
X87460000Y-78470792D01*
X87460000Y-77737325D01*
X87463676Y-77700000D01*
X87460000Y-77662675D01*
X87460000Y-77662667D01*
X87449003Y-77551014D01*
X87405546Y-77407753D01*
X87334974Y-77275724D01*
X87274493Y-77202028D01*
X87224277Y-77080795D01*
X87127424Y-76935845D01*
X87004155Y-76812576D01*
X86859205Y-76715723D01*
X86698145Y-76649010D01*
X86527165Y-76615000D01*
X86352835Y-76615000D01*
X86181855Y-76649010D01*
X86020795Y-76715723D01*
X85875845Y-76812576D01*
X85752576Y-76935845D01*
X85655723Y-77080795D01*
X85589010Y-77241855D01*
X85577289Y-77300782D01*
X85565026Y-77315724D01*
X85507774Y-77422835D01*
X85494454Y-77447754D01*
X85450997Y-77591015D01*
X85440000Y-77702668D01*
X85440000Y-77702678D01*
X85436324Y-77740000D01*
X85440000Y-77777323D01*
X85440001Y-78923391D01*
X85424188Y-78975518D01*
X85411928Y-79100000D01*
X85411928Y-80600000D01*
X85424188Y-80724482D01*
X85460498Y-80844180D01*
X85519463Y-80954494D01*
X85598815Y-81051185D01*
X85695506Y-81130537D01*
X85805820Y-81189502D01*
X85925518Y-81225812D01*
X86050000Y-81238072D01*
X86350000Y-81238072D01*
X86450000Y-81228223D01*
X86550000Y-81238072D01*
X86850000Y-81238072D01*
X86950000Y-81228223D01*
X87050000Y-81238072D01*
X87350000Y-81238072D01*
X87450000Y-81228223D01*
X87550000Y-81238072D01*
X87850000Y-81238072D01*
X87953157Y-81227912D01*
X88018250Y-81235000D01*
X88050497Y-81202753D01*
X88094180Y-81189502D01*
X88200000Y-81132939D01*
X88305820Y-81189502D01*
X88349503Y-81202753D01*
X88381750Y-81235000D01*
X88446843Y-81227912D01*
X88550000Y-81238072D01*
X88850000Y-81238072D01*
X88950000Y-81228223D01*
X89050000Y-81238072D01*
X89350000Y-81238072D01*
X89450000Y-81228223D01*
X89550000Y-81238072D01*
X89850000Y-81238072D01*
X89950000Y-81228223D01*
X90050000Y-81238072D01*
X90350000Y-81238072D01*
X90450000Y-81228223D01*
X90550000Y-81238072D01*
X90850000Y-81238072D01*
X90950000Y-81228223D01*
X91050000Y-81238072D01*
X91350000Y-81238072D01*
X91450000Y-81228223D01*
X91550000Y-81238072D01*
X91850000Y-81238072D01*
X91953157Y-81227912D01*
X92018250Y-81235000D01*
X92050497Y-81202753D01*
X92094180Y-81189502D01*
X92200000Y-81132939D01*
X92305820Y-81189502D01*
X92349503Y-81202753D01*
X92381750Y-81235000D01*
X92446843Y-81227912D01*
X92550000Y-81238072D01*
X92850000Y-81238072D01*
X92950000Y-81228223D01*
X93050000Y-81238072D01*
X93350000Y-81238072D01*
X93450000Y-81228223D01*
X93550000Y-81238072D01*
X93850000Y-81238072D01*
X93950000Y-81228223D01*
X94050000Y-81238072D01*
X94350000Y-81238072D01*
X94450000Y-81228223D01*
X94550000Y-81238072D01*
X94850000Y-81238072D01*
X94950000Y-81228223D01*
X95050000Y-81238072D01*
X95350000Y-81238072D01*
X95450000Y-81228223D01*
X95550000Y-81238072D01*
X95850000Y-81238072D01*
X95950000Y-81228223D01*
X96050000Y-81238072D01*
X96350000Y-81238072D01*
X96450000Y-81228223D01*
X96550000Y-81238072D01*
X96850000Y-81238072D01*
X96950000Y-81228223D01*
X97050000Y-81238072D01*
X97350000Y-81238072D01*
X97450000Y-81228223D01*
X97550000Y-81238072D01*
X97850000Y-81238072D01*
X97950000Y-81228223D01*
X98050000Y-81238072D01*
X98350000Y-81238072D01*
X98453157Y-81227912D01*
X98518250Y-81235000D01*
X98550497Y-81202753D01*
X98594180Y-81189502D01*
X98700000Y-81132939D01*
X98805820Y-81189502D01*
X98849503Y-81202753D01*
X98881750Y-81235000D01*
X98946843Y-81227912D01*
X99050000Y-81238072D01*
X99350000Y-81238072D01*
X99450000Y-81228223D01*
X99550000Y-81238072D01*
X99850000Y-81238072D01*
X99950000Y-81228223D01*
X100050000Y-81238072D01*
X100350000Y-81238072D01*
X100450000Y-81228223D01*
X100550000Y-81238072D01*
X100850000Y-81238072D01*
X100950000Y-81228223D01*
X101050000Y-81238072D01*
X101350000Y-81238072D01*
X101450000Y-81228223D01*
X101550000Y-81238072D01*
X101850000Y-81238072D01*
X101950000Y-81228223D01*
X102050000Y-81238072D01*
X102229266Y-81238072D01*
X102210795Y-81245723D01*
X102065845Y-81342576D01*
X101942576Y-81465845D01*
X101845723Y-81610795D01*
X101779010Y-81771855D01*
X101745000Y-81942835D01*
X101745000Y-82117165D01*
X101779010Y-82288145D01*
X101845723Y-82449205D01*
X101942576Y-82594155D01*
X102065845Y-82717424D01*
X102210795Y-82814277D01*
X102371855Y-82880990D01*
X102422130Y-82890990D01*
X102475724Y-82934974D01*
X102607753Y-83005546D01*
X102751014Y-83049003D01*
X102862667Y-83060000D01*
X102862675Y-83060000D01*
X102900000Y-83063676D01*
X102937325Y-83060000D01*
X104270792Y-83060000D01*
X104261928Y-83150000D01*
X104261928Y-83450000D01*
X104271777Y-83550000D01*
X104261928Y-83650000D01*
X104261928Y-83950000D01*
X104271777Y-84050000D01*
X104261928Y-84150000D01*
X104261928Y-84450000D01*
X104272088Y-84553157D01*
X104265000Y-84618250D01*
X104297247Y-84650497D01*
X104310498Y-84694180D01*
X104367061Y-84800000D01*
X104310498Y-84905820D01*
X104297247Y-84949503D01*
X104265000Y-84981750D01*
X104271343Y-85040000D01*
X103085538Y-85040000D01*
X103049205Y-85015723D01*
X102888145Y-84949010D01*
X102717165Y-84915000D01*
X102542835Y-84915000D01*
X102371855Y-84949010D01*
X102210795Y-85015723D01*
X102065845Y-85112576D01*
X101942576Y-85235845D01*
X101845723Y-85380795D01*
X101779010Y-85541855D01*
X101745000Y-85712835D01*
X101745000Y-85887165D01*
X101779010Y-86058145D01*
X101845723Y-86219205D01*
X101942576Y-86364155D01*
X102065845Y-86487424D01*
X102210795Y-86584277D01*
X102371855Y-86650990D01*
X102542835Y-86685000D01*
X102717165Y-86685000D01*
X102888145Y-86650990D01*
X103049205Y-86584277D01*
X103085538Y-86560000D01*
X104270792Y-86560000D01*
X104261928Y-86650000D01*
X104261928Y-86950000D01*
X104271777Y-87050000D01*
X104261928Y-87150000D01*
X104261928Y-87450000D01*
X104271777Y-87550000D01*
X104261928Y-87650000D01*
X104261928Y-87950000D01*
X104270792Y-88040000D01*
X103085538Y-88040000D01*
X103049205Y-88015723D01*
X102888145Y-87949010D01*
X102717165Y-87915000D01*
X102542835Y-87915000D01*
X102371855Y-87949010D01*
X102210795Y-88015723D01*
X102065845Y-88112576D01*
X101942576Y-88235845D01*
X101845723Y-88380795D01*
X101779010Y-88541855D01*
X101745000Y-88712835D01*
X101745000Y-88887165D01*
X101779010Y-89058145D01*
X101845723Y-89219205D01*
X101899709Y-89300000D01*
X101845723Y-89380795D01*
X101779010Y-89541855D01*
X101745000Y-89712835D01*
X101745000Y-89887165D01*
X101779010Y-90058145D01*
X101845723Y-90219205D01*
X101942576Y-90364155D01*
X102065845Y-90487424D01*
X102210795Y-90584277D01*
X102371855Y-90650990D01*
X102542835Y-90685000D01*
X102717165Y-90685000D01*
X102888145Y-90650990D01*
X103049205Y-90584277D01*
X103085538Y-90560000D01*
X103754666Y-90560000D01*
X103735845Y-90572576D01*
X103612576Y-90695845D01*
X103515723Y-90840795D01*
X103449010Y-91001855D01*
X103423279Y-91131215D01*
X100221942Y-94332553D01*
X100194815Y-94354816D01*
X100172553Y-94381942D01*
X100172551Y-94381944D01*
X100165894Y-94390056D01*
X100105965Y-94463079D01*
X100039944Y-94586597D01*
X99999288Y-94720621D01*
X99989000Y-94825075D01*
X99989000Y-94825082D01*
X99985561Y-94860000D01*
X99989000Y-94894919D01*
X99989001Y-98565072D01*
X99985561Y-98600000D01*
X99999288Y-98739379D01*
X100031175Y-98844494D01*
X100039945Y-98873404D01*
X100105966Y-98996922D01*
X100139226Y-99037449D01*
X100172551Y-99078056D01*
X100172554Y-99078059D01*
X100194816Y-99105185D01*
X100221942Y-99127447D01*
X100964812Y-99870318D01*
X100946843Y-99872088D01*
X100881750Y-99865000D01*
X100849503Y-99897247D01*
X100805820Y-99910498D01*
X100700000Y-99967061D01*
X100594180Y-99910498D01*
X100550497Y-99897247D01*
X100518250Y-99865000D01*
X100453157Y-99872088D01*
X100350000Y-99861928D01*
X100050000Y-99861928D01*
X99950000Y-99871777D01*
X99850000Y-99861928D01*
X99550000Y-99861928D01*
X99450000Y-99871777D01*
X99350000Y-99861928D01*
X99050000Y-99861928D01*
X98950000Y-99871777D01*
X98850000Y-99861928D01*
X98550000Y-99861928D01*
X98450000Y-99871777D01*
X98350000Y-99861928D01*
X98050000Y-99861928D01*
X97950000Y-99871777D01*
X97850000Y-99861928D01*
X97550000Y-99861928D01*
X97450000Y-99871777D01*
X97350000Y-99861928D01*
X97050000Y-99861928D01*
X96950000Y-99871777D01*
X96850000Y-99861928D01*
X96550000Y-99861928D01*
X96450000Y-99871777D01*
X96350000Y-99861928D01*
X96050000Y-99861928D01*
X95946843Y-99872088D01*
X95881750Y-99865000D01*
X95849503Y-99897247D01*
X95805820Y-99910498D01*
X95700000Y-99967061D01*
X95594180Y-99910498D01*
X95550497Y-99897247D01*
X95518250Y-99865000D01*
X95453157Y-99872088D01*
X95350000Y-99861928D01*
X95050000Y-99861928D01*
X94950000Y-99871777D01*
X94850000Y-99861928D01*
X94550000Y-99861928D01*
X94450000Y-99871777D01*
X94350000Y-99861928D01*
X94050000Y-99861928D01*
X93950000Y-99871777D01*
X93850000Y-99861928D01*
X93550000Y-99861928D01*
X93450000Y-99871777D01*
X93350000Y-99861928D01*
X93050000Y-99861928D01*
X92950000Y-99871777D01*
X92850000Y-99861928D01*
X92550000Y-99861928D01*
X92450000Y-99871777D01*
X92350000Y-99861928D01*
X92050000Y-99861928D01*
X91950000Y-99871777D01*
X91850000Y-99861928D01*
X91550000Y-99861928D01*
X91446843Y-99872088D01*
X91381750Y-99865000D01*
X91349503Y-99897247D01*
X91305820Y-99910498D01*
X91200000Y-99967061D01*
X91094180Y-99910498D01*
X91050497Y-99897247D01*
X91018250Y-99865000D01*
X90953157Y-99872088D01*
X90850000Y-99861928D01*
X90550000Y-99861928D01*
X90450000Y-99871777D01*
X90350000Y-99861928D01*
X90050000Y-99861928D01*
X89950000Y-99871777D01*
X89850000Y-99861928D01*
X89550000Y-99861928D01*
X89450000Y-99871777D01*
X89350000Y-99861928D01*
X89050000Y-99861928D01*
X88950000Y-99871777D01*
X88850000Y-99861928D01*
X88550000Y-99861928D01*
X88450000Y-99871777D01*
X88350000Y-99861928D01*
X88050000Y-99861928D01*
X87950000Y-99871777D01*
X87850000Y-99861928D01*
X87550000Y-99861928D01*
X87450000Y-99871777D01*
X87350000Y-99861928D01*
X87050000Y-99861928D01*
X86950000Y-99871777D01*
X86850000Y-99861928D01*
X86550000Y-99861928D01*
X86450000Y-99871777D01*
X86350000Y-99861928D01*
X86050000Y-99861928D01*
X85925518Y-99874188D01*
X85805820Y-99910498D01*
X85695506Y-99969463D01*
X85598815Y-100048815D01*
X85519463Y-100145506D01*
X85460498Y-100255820D01*
X85424188Y-100375518D01*
X85411928Y-100500000D01*
X85411928Y-102000000D01*
X85424188Y-102124482D01*
X85440000Y-102176609D01*
X85440000Y-102832677D01*
X85436324Y-102870000D01*
X85440000Y-102907322D01*
X85440000Y-102907332D01*
X85450997Y-103018985D01*
X85487518Y-103139380D01*
X85494454Y-103162246D01*
X85562206Y-103289000D01*
X83784506Y-103289000D01*
X79853216Y-99357711D01*
X79886882Y-99188460D01*
X80593470Y-99895049D01*
X80621183Y-99928817D01*
X80654951Y-99956530D01*
X80654953Y-99956532D01*
X80702052Y-99995185D01*
X80755941Y-100039411D01*
X80909687Y-100121589D01*
X81076510Y-100172195D01*
X81206523Y-100185000D01*
X81206533Y-100185000D01*
X81249999Y-100189281D01*
X81293466Y-100185000D01*
X82167165Y-100185000D01*
X82210013Y-100176477D01*
X82253490Y-100172195D01*
X82295295Y-100159513D01*
X82338145Y-100150990D01*
X82378513Y-100134269D01*
X82420313Y-100121589D01*
X82458835Y-100100999D01*
X82499205Y-100084277D01*
X82535533Y-100060004D01*
X82535539Y-100060000D01*
X83323393Y-100060000D01*
X83375518Y-100075812D01*
X83500000Y-100088072D01*
X85000000Y-100088072D01*
X85124482Y-100075812D01*
X85244180Y-100039502D01*
X85354494Y-99980537D01*
X85451185Y-99901185D01*
X85530537Y-99804494D01*
X85589502Y-99694180D01*
X85625812Y-99574482D01*
X85638072Y-99450000D01*
X85638072Y-99150000D01*
X85627912Y-99046843D01*
X85635000Y-98981750D01*
X85602753Y-98949503D01*
X85589502Y-98905820D01*
X85532939Y-98800000D01*
X85589502Y-98694180D01*
X85602753Y-98650497D01*
X85635000Y-98618250D01*
X85627912Y-98553157D01*
X85638072Y-98450000D01*
X85638072Y-98150000D01*
X85628223Y-98050000D01*
X85638072Y-97950000D01*
X85638072Y-97650000D01*
X85628223Y-97550000D01*
X85638072Y-97450000D01*
X85638072Y-97150000D01*
X85628223Y-97050000D01*
X85638072Y-96950000D01*
X85638072Y-96650000D01*
X85628223Y-96550000D01*
X85638072Y-96450000D01*
X85638072Y-96150000D01*
X85628223Y-96050000D01*
X85638072Y-95950000D01*
X85638072Y-95650000D01*
X85628223Y-95550000D01*
X85638072Y-95450000D01*
X85638072Y-95150000D01*
X85628223Y-95050000D01*
X85638072Y-94950000D01*
X85638072Y-94650000D01*
X85628223Y-94550000D01*
X85638072Y-94450000D01*
X85638072Y-94150000D01*
X85627912Y-94046843D01*
X85635000Y-93981750D01*
X85602753Y-93949503D01*
X85589502Y-93905820D01*
X85532939Y-93800000D01*
X85589502Y-93694180D01*
X85602753Y-93650497D01*
X85635000Y-93618250D01*
X85627912Y-93553157D01*
X85638072Y-93450000D01*
X85638072Y-93150000D01*
X85628223Y-93050000D01*
X85638072Y-92950000D01*
X85638072Y-92650000D01*
X85628223Y-92550000D01*
X85638072Y-92450000D01*
X85638072Y-92150000D01*
X85628223Y-92050000D01*
X85638072Y-91950000D01*
X85638072Y-91650000D01*
X85628223Y-91550000D01*
X85638072Y-91450000D01*
X85638072Y-91150000D01*
X85628223Y-91050000D01*
X85638072Y-90950000D01*
X85638072Y-90650000D01*
X85628223Y-90550000D01*
X85638072Y-90450000D01*
X85638072Y-90150000D01*
X85628223Y-90050000D01*
X85638072Y-89950000D01*
X85638072Y-89650000D01*
X85628223Y-89550000D01*
X85638072Y-89450000D01*
X85638072Y-89150000D01*
X85628223Y-89050000D01*
X85638072Y-88950000D01*
X85638072Y-88650000D01*
X85628223Y-88550000D01*
X85638072Y-88450000D01*
X85638072Y-88150000D01*
X85628223Y-88050000D01*
X85638072Y-87950000D01*
X85638072Y-87650000D01*
X85628223Y-87550000D01*
X85638072Y-87450000D01*
X85638072Y-87150000D01*
X85627912Y-87046843D01*
X85635000Y-86981750D01*
X85602753Y-86949503D01*
X85589502Y-86905820D01*
X85532939Y-86800000D01*
X85589502Y-86694180D01*
X85602753Y-86650497D01*
X85635000Y-86618250D01*
X85627912Y-86553157D01*
X85638072Y-86450000D01*
X85638072Y-86150000D01*
X85628223Y-86050000D01*
X85638072Y-85950000D01*
X85638072Y-85650000D01*
X85628223Y-85550000D01*
X85638072Y-85450000D01*
X85638072Y-85150000D01*
X85628223Y-85050000D01*
X85638072Y-84950000D01*
X85638072Y-84650000D01*
X85628223Y-84550000D01*
X85638072Y-84450000D01*
X85638072Y-84150000D01*
X85628223Y-84050000D01*
X85638072Y-83950000D01*
X85638072Y-83650000D01*
X85628223Y-83550000D01*
X85638072Y-83450000D01*
X85638072Y-83150000D01*
X85628223Y-83050000D01*
X85638072Y-82950000D01*
X85638072Y-82650000D01*
X85627912Y-82546843D01*
X85635000Y-82481750D01*
X85602753Y-82449503D01*
X85589502Y-82405820D01*
X85532939Y-82300000D01*
X85589502Y-82194180D01*
X85602753Y-82150497D01*
X85635000Y-82118250D01*
X85627912Y-82053157D01*
X85638072Y-81950000D01*
X85638072Y-81650000D01*
X85625812Y-81525518D01*
X85589502Y-81405820D01*
X85530537Y-81295506D01*
X85451185Y-81198815D01*
X85354494Y-81119463D01*
X85244180Y-81060498D01*
X85124482Y-81024188D01*
X85000000Y-81011928D01*
X83500000Y-81011928D01*
X83375518Y-81024188D01*
X83323393Y-81040000D01*
X82535538Y-81040000D01*
X82499205Y-81015723D01*
X82338145Y-80949010D01*
X82167165Y-80915000D01*
X81992835Y-80915000D01*
X81821855Y-80949010D01*
X81660795Y-81015723D01*
X81515845Y-81112576D01*
X81392576Y-81235845D01*
X81295723Y-81380795D01*
X81229010Y-81541855D01*
X81195000Y-81712835D01*
X81195000Y-81887165D01*
X81229010Y-82058145D01*
X81295723Y-82219205D01*
X81349709Y-82300000D01*
X81295723Y-82380795D01*
X81229010Y-82541855D01*
X81195000Y-82712835D01*
X81195000Y-82887165D01*
X81229010Y-83058145D01*
X81295723Y-83219205D01*
X81392576Y-83364155D01*
X81515845Y-83487424D01*
X81660795Y-83584277D01*
X81821855Y-83650990D01*
X81992835Y-83685000D01*
X82167165Y-83685000D01*
X82338145Y-83650990D01*
X82499205Y-83584277D01*
X82535538Y-83560000D01*
X82870792Y-83560000D01*
X82861928Y-83650000D01*
X82861928Y-83950000D01*
X82870792Y-84040000D01*
X74112322Y-84040000D01*
X74075000Y-84036324D01*
X74037677Y-84040000D01*
X74037667Y-84040000D01*
X73926014Y-84050997D01*
X73803792Y-84088072D01*
X73782753Y-84094454D01*
X73650723Y-84165026D01*
X73594704Y-84211000D01*
X73534999Y-84259999D01*
X73511201Y-84288997D01*
X72187457Y-85612741D01*
X72062327Y-85560911D01*
X71756109Y-85500000D01*
X71443891Y-85500000D01*
X71137673Y-85560911D01*
X70849221Y-85680391D01*
X70589621Y-85853850D01*
X70368850Y-86074621D01*
X70195391Y-86334221D01*
X70075911Y-86622673D01*
X70015000Y-86928891D01*
X70015000Y-87241109D01*
X70075911Y-87547327D01*
X70195391Y-87835779D01*
X70361164Y-88083877D01*
X70355820Y-88085498D01*
X70245506Y-88144463D01*
X70148815Y-88223815D01*
X70069463Y-88320506D01*
X70010498Y-88430820D01*
X69974188Y-88550518D01*
X69961928Y-88675000D01*
X69961928Y-90257567D01*
X69221942Y-90997553D01*
X69194816Y-91019815D01*
X69172554Y-91046941D01*
X69172551Y-91046944D01*
X69148860Y-91075812D01*
X69105966Y-91128078D01*
X69043200Y-91245506D01*
X69039945Y-91251596D01*
X68999288Y-91385621D01*
X68985561Y-91525000D01*
X68989001Y-91559928D01*
X68989001Y-92386928D01*
X68950000Y-92386928D01*
X68825518Y-92399188D01*
X68705820Y-92435498D01*
X68595506Y-92494463D01*
X68498815Y-92573815D01*
X68419463Y-92670506D01*
X68360498Y-92780820D01*
X68324188Y-92900518D01*
X68311928Y-93025000D01*
X67735000Y-93025000D01*
X67735000Y-78809419D01*
X71065000Y-78809419D01*
X71065000Y-79190581D01*
X71139361Y-79564419D01*
X71285225Y-79916566D01*
X71496987Y-80233491D01*
X71766509Y-80503013D01*
X72083434Y-80714775D01*
X72435581Y-80860639D01*
X72809419Y-80935000D01*
X73190581Y-80935000D01*
X73564419Y-80860639D01*
X73916566Y-80714775D01*
X74233491Y-80503013D01*
X74503013Y-80233491D01*
X74714775Y-79916566D01*
X74860639Y-79564419D01*
X74935000Y-79190581D01*
X74935000Y-78809419D01*
X74860639Y-78435581D01*
X74714775Y-78083434D01*
X74503013Y-77766509D01*
X74233491Y-77496987D01*
X73916566Y-77285225D01*
X73564419Y-77139361D01*
X73190581Y-77065000D01*
X72809419Y-77065000D01*
X72435581Y-77139361D01*
X72083434Y-77285225D01*
X71766509Y-77496987D01*
X71496987Y-77766509D01*
X71285225Y-78083434D01*
X71139361Y-78435581D01*
X71065000Y-78809419D01*
X67735000Y-78809419D01*
X67735000Y-75735000D01*
X138265001Y-75735000D01*
X138265001Y-76024729D01*
G37*
X138265001Y-76024729D02*
X138240251Y-76014467D01*
X137992000Y-75965000D01*
X137592000Y-75965000D01*
X137592000Y-77123000D01*
X137612000Y-77123000D01*
X137612000Y-77377000D01*
X137592000Y-77377000D01*
X137592000Y-78535000D01*
X137992000Y-78535000D01*
X138240251Y-78485533D01*
X138265001Y-78475271D01*
X138265001Y-90524728D01*
X138240251Y-90514467D01*
X137992000Y-90465000D01*
X137592000Y-90465000D01*
X137592000Y-91623000D01*
X137612000Y-91623000D01*
X137612000Y-91877000D01*
X137592000Y-91877000D01*
X137592000Y-93035000D01*
X137992000Y-93035000D01*
X138240251Y-92985533D01*
X138265001Y-92975272D01*
X138265000Y-105856915D01*
X138179514Y-105799513D01*
X137950374Y-105703987D01*
X137707000Y-105655000D01*
X137332000Y-105655000D01*
X137332000Y-106788000D01*
X137352000Y-106788000D01*
X137352000Y-107042000D01*
X137332000Y-107042000D01*
X137332000Y-108175000D01*
X137707000Y-108175000D01*
X137950374Y-108126013D01*
X138179514Y-108030487D01*
X138265000Y-107973085D01*
X138265000Y-113006915D01*
X138179514Y-112949513D01*
X137950374Y-112853987D01*
X137707000Y-112805000D01*
X137332000Y-112805000D01*
X137332000Y-113938000D01*
X137352000Y-113938000D01*
X137352000Y-114192000D01*
X137332000Y-114192000D01*
X137332000Y-115325000D01*
X137707000Y-115325000D01*
X137950374Y-115276013D01*
X138179514Y-115180487D01*
X138265000Y-115123085D01*
X138265000Y-117265000D01*
X67735000Y-117265000D01*
X67735000Y-113809419D01*
X71065000Y-113809419D01*
X71065000Y-114190581D01*
X71139361Y-114564419D01*
X71285225Y-114916566D01*
X71496987Y-115233491D01*
X71766509Y-115503013D01*
X72083434Y-115714775D01*
X72435581Y-115860639D01*
X72809419Y-115935000D01*
X73190581Y-115935000D01*
X73564419Y-115860639D01*
X73916566Y-115714775D01*
X74069329Y-115612702D01*
X108186903Y-115612702D01*
X108258486Y-115856671D01*
X108513996Y-115977571D01*
X108788184Y-116046300D01*
X109070512Y-116060217D01*
X109350130Y-116018787D01*
X109616292Y-115923603D01*
X109741514Y-115856671D01*
X109813097Y-115612702D01*
X109000000Y-114799605D01*
X108186903Y-115612702D01*
X74069329Y-115612702D01*
X74233491Y-115503013D01*
X74503013Y-115233491D01*
X74714775Y-114916566D01*
X74860639Y-114564419D01*
X74935000Y-114190581D01*
X74935000Y-113809419D01*
X74903290Y-113650000D01*
X77261928Y-113650000D01*
X77274188Y-113774482D01*
X77310498Y-113894180D01*
X77369463Y-114004494D01*
X77448815Y-114101185D01*
X77545506Y-114180537D01*
X77655820Y-114239502D01*
X77775518Y-114275812D01*
X77900000Y-114288072D01*
X78364250Y-114285000D01*
X78523000Y-114126250D01*
X78523000Y-113127000D01*
X77423750Y-113127000D01*
X77265000Y-113285750D01*
X77261928Y-113650000D01*
X74903290Y-113650000D01*
X74860639Y-113435581D01*
X74714775Y-113083434D01*
X74503013Y-112766509D01*
X74233491Y-112496987D01*
X73916566Y-112285225D01*
X73564419Y-112139361D01*
X73190581Y-112065000D01*
X72809419Y-112065000D01*
X72435581Y-112139361D01*
X72083434Y-112285225D01*
X71766509Y-112496987D01*
X71496987Y-112766509D01*
X71285225Y-113083434D01*
X71139361Y-113435581D01*
X71065000Y-113809419D01*
X67735000Y-113809419D01*
X67735000Y-93025000D01*
X68311928Y-93025000D01*
X68311928Y-94325000D01*
X68324188Y-94449482D01*
X68360498Y-94569180D01*
X68419463Y-94679494D01*
X68498815Y-94776185D01*
X68595506Y-94855537D01*
X68705820Y-94914502D01*
X68825518Y-94950812D01*
X68950000Y-94963072D01*
X70450000Y-94963072D01*
X70574482Y-94950812D01*
X70694180Y-94914502D01*
X70804494Y-94855537D01*
X70901185Y-94776185D01*
X70980537Y-94679494D01*
X71039502Y-94569180D01*
X71050000Y-94534573D01*
X71060498Y-94569180D01*
X71119463Y-94679494D01*
X71198815Y-94776185D01*
X71295506Y-94855537D01*
X71405820Y-94914502D01*
X71525518Y-94950812D01*
X71650000Y-94963072D01*
X72114250Y-94960000D01*
X72273000Y-94801250D01*
X72273000Y-93802000D01*
X72527000Y-93802000D01*
X72527000Y-94801250D01*
X72685750Y-94960000D01*
X73150000Y-94963072D01*
X73274482Y-94950812D01*
X73394180Y-94914502D01*
X73504494Y-94855537D01*
X73601185Y-94776185D01*
X73680537Y-94679494D01*
X73739502Y-94569180D01*
X73775812Y-94449482D01*
X73788072Y-94325000D01*
X73785000Y-93960750D01*
X73626250Y-93802000D01*
X72527000Y-93802000D01*
X72273000Y-93802000D01*
X72253000Y-93802000D01*
X72253000Y-93548000D01*
X72273000Y-93548000D01*
X72273000Y-92548750D01*
X72527000Y-92548750D01*
X72527000Y-93548000D01*
X73626250Y-93548000D01*
X73785000Y-93389250D01*
X73788072Y-93025000D01*
X73775812Y-92900518D01*
X73739502Y-92780820D01*
X73680537Y-92670506D01*
X73601185Y-92573815D01*
X73504494Y-92494463D01*
X73394180Y-92435498D01*
X73274482Y-92399188D01*
X73150000Y-92386928D01*
X72685750Y-92390000D01*
X72527000Y-92548750D01*
X72273000Y-92548750D01*
X72114250Y-92390000D01*
X71650000Y-92386928D01*
X71525518Y-92399188D01*
X71405820Y-92435498D01*
X71295506Y-92494463D01*
X71198815Y-92573815D01*
X71119463Y-92670506D01*
X71060498Y-92780820D01*
X71050000Y-92815427D01*
X71039502Y-92780820D01*
X70980537Y-92670506D01*
X70901185Y-92573815D01*
X70804494Y-92494463D01*
X70694180Y-92435498D01*
X70574482Y-92399188D01*
X70450000Y-92386928D01*
X70411000Y-92386928D01*
X70411000Y-91819505D01*
X71017433Y-91213072D01*
X72600000Y-91213072D01*
X72724482Y-91200812D01*
X72844180Y-91164502D01*
X72954494Y-91105537D01*
X73051185Y-91026185D01*
X73130537Y-90929494D01*
X73189502Y-90819180D01*
X73225812Y-90699482D01*
X73238072Y-90575000D01*
X73238072Y-88675000D01*
X73225812Y-88550518D01*
X73189502Y-88430820D01*
X73130537Y-88320506D01*
X73051185Y-88223815D01*
X72954494Y-88144463D01*
X72844180Y-88085498D01*
X72838836Y-88083877D01*
X73004609Y-87835779D01*
X73124089Y-87547327D01*
X73185000Y-87241109D01*
X73185000Y-86928891D01*
X73157776Y-86792026D01*
X73299802Y-86650000D01*
X75411928Y-86650000D01*
X75415000Y-87014250D01*
X75573750Y-87173000D01*
X76673000Y-87173000D01*
X76673000Y-86173750D01*
X76514250Y-86015000D01*
X76050000Y-86011928D01*
X75925518Y-86024188D01*
X75805820Y-86060498D01*
X75695506Y-86119463D01*
X75598815Y-86198815D01*
X75519463Y-86295506D01*
X75460498Y-86405820D01*
X75424188Y-86525518D01*
X75411928Y-86650000D01*
X73299802Y-86650000D01*
X74389802Y-85560000D01*
X81624530Y-85560000D01*
X81545845Y-85612576D01*
X81422576Y-85735845D01*
X81325723Y-85880795D01*
X81259010Y-86041855D01*
X81225000Y-86212835D01*
X81225000Y-86387165D01*
X81259010Y-86558145D01*
X81271791Y-86589000D01*
X80882064Y-86589000D01*
X80875812Y-86525518D01*
X80839502Y-86405820D01*
X80780537Y-86295506D01*
X80701185Y-86198815D01*
X80604494Y-86119463D01*
X80494180Y-86060498D01*
X80374482Y-86024188D01*
X80250000Y-86011928D01*
X78750000Y-86011928D01*
X78625518Y-86024188D01*
X78505820Y-86060498D01*
X78395506Y-86119463D01*
X78298815Y-86198815D01*
X78219463Y-86295506D01*
X78160498Y-86405820D01*
X78150000Y-86440427D01*
X78139502Y-86405820D01*
X78080537Y-86295506D01*
X78001185Y-86198815D01*
X77904494Y-86119463D01*
X77794180Y-86060498D01*
X77674482Y-86024188D01*
X77550000Y-86011928D01*
X77085750Y-86015000D01*
X76927000Y-86173750D01*
X76927000Y-87173000D01*
X76947000Y-87173000D01*
X76947000Y-87427000D01*
X76927000Y-87427000D01*
X76927000Y-87447000D01*
X76673000Y-87447000D01*
X76673000Y-87427000D01*
X75573750Y-87427000D01*
X75415000Y-87585750D01*
X75411928Y-87950000D01*
X75424188Y-88074482D01*
X75460498Y-88194180D01*
X75519463Y-88304494D01*
X75598815Y-88401185D01*
X75658296Y-88450000D01*
X75598815Y-88498815D01*
X75519463Y-88595506D01*
X75460498Y-88705820D01*
X75424188Y-88825518D01*
X75411928Y-88950000D01*
X75411928Y-90250000D01*
X75424188Y-90374482D01*
X75460498Y-90494180D01*
X75519463Y-90604494D01*
X75598815Y-90701185D01*
X75695506Y-90780537D01*
X75805820Y-90839502D01*
X75915000Y-90872622D01*
X75915001Y-91520299D01*
X75875518Y-91524188D01*
X75755820Y-91560498D01*
X75645506Y-91619463D01*
X75548815Y-91698815D01*
X75469463Y-91795506D01*
X75410498Y-91905820D01*
X75374188Y-92025518D01*
X75361928Y-92150000D01*
X75361928Y-93450000D01*
X75374188Y-93574482D01*
X75410498Y-93694180D01*
X75467061Y-93800000D01*
X75410498Y-93905820D01*
X75374188Y-94025518D01*
X75361928Y-94150000D01*
X75361928Y-94936493D01*
X72824956Y-97473466D01*
X72791183Y-97501183D01*
X72680589Y-97635942D01*
X72598411Y-97789688D01*
X72569328Y-97885561D01*
X72568307Y-97888927D01*
X72529465Y-97914880D01*
X72334880Y-98109465D01*
X72181995Y-98338273D01*
X72150000Y-98415515D01*
X72118005Y-98338273D01*
X71965120Y-98109465D01*
X71770535Y-97914880D01*
X71541727Y-97761995D01*
X71287490Y-97656686D01*
X71017592Y-97603000D01*
X70742408Y-97603000D01*
X70472510Y-97656686D01*
X70218273Y-97761995D01*
X69989465Y-97914880D01*
X69794880Y-98109465D01*
X69641995Y-98338273D01*
X69536686Y-98592510D01*
X69483000Y-98862408D01*
X69483000Y-99137592D01*
X69536686Y-99407490D01*
X69641995Y-99661727D01*
X69794880Y-99890535D01*
X69989465Y-100085120D01*
X70218273Y-100238005D01*
X70472510Y-100343314D01*
X70742408Y-100397000D01*
X71017592Y-100397000D01*
X71229370Y-100354875D01*
X75463494Y-104589000D01*
X71644919Y-104589000D01*
X71610000Y-104585561D01*
X71575081Y-104589000D01*
X71575074Y-104589000D01*
X71470620Y-104599288D01*
X71336596Y-104639944D01*
X71213078Y-104705965D01*
X71155627Y-104753114D01*
X71131943Y-104772551D01*
X71131941Y-104772553D01*
X71104815Y-104794815D01*
X71082553Y-104821941D01*
X70666370Y-105238125D01*
X70472510Y-105276686D01*
X70218273Y-105381995D01*
X69989465Y-105534880D01*
X69794880Y-105729465D01*
X69641995Y-105958273D01*
X69536686Y-106212510D01*
X69483000Y-106482408D01*
X69483000Y-106757592D01*
X69536686Y-107027490D01*
X69641995Y-107281727D01*
X69794880Y-107510535D01*
X69989465Y-107705120D01*
X70218273Y-107858005D01*
X70472510Y-107963314D01*
X70742408Y-108017000D01*
X71017592Y-108017000D01*
X71287490Y-107963314D01*
X71541727Y-107858005D01*
X71770535Y-107705120D01*
X71965120Y-107510535D01*
X72118005Y-107281727D01*
X72150000Y-107204485D01*
X72181995Y-107281727D01*
X72334880Y-107510535D01*
X72529465Y-107705120D01*
X72758273Y-107858005D01*
X73012510Y-107963314D01*
X73282408Y-108017000D01*
X73557592Y-108017000D01*
X73769369Y-107974875D01*
X74562553Y-108768059D01*
X74584815Y-108795185D01*
X74611941Y-108817447D01*
X74611943Y-108817449D01*
X74624924Y-108828102D01*
X74693078Y-108884035D01*
X74773571Y-108927059D01*
X74816595Y-108950056D01*
X74888678Y-108971922D01*
X74950620Y-108990712D01*
X75055074Y-109001000D01*
X75055081Y-109001000D01*
X75090000Y-109004439D01*
X75124919Y-109001000D01*
X77630383Y-109001000D01*
X77625000Y-109028061D01*
X77625000Y-109231939D01*
X77664774Y-109431898D01*
X77742795Y-109620256D01*
X77809973Y-109720795D01*
X77775518Y-109724188D01*
X77655820Y-109760498D01*
X77545506Y-109819463D01*
X77448815Y-109898815D01*
X77369463Y-109995506D01*
X77310498Y-110105820D01*
X77274188Y-110225518D01*
X77261928Y-110350000D01*
X77261928Y-111650000D01*
X77274188Y-111774482D01*
X77310498Y-111894180D01*
X77367061Y-112000000D01*
X77310498Y-112105820D01*
X77274188Y-112225518D01*
X77261928Y-112350000D01*
X77265000Y-112714250D01*
X77423750Y-112873000D01*
X78523000Y-112873000D01*
X78523000Y-112853000D01*
X78777000Y-112853000D01*
X78777000Y-112873000D01*
X78797000Y-112873000D01*
X78797000Y-113127000D01*
X78777000Y-113127000D01*
X78777000Y-114126250D01*
X78935750Y-114285000D01*
X79400000Y-114288072D01*
X79524482Y-114275812D01*
X79644180Y-114239502D01*
X79754494Y-114180537D01*
X79851185Y-114101185D01*
X79930537Y-114004494D01*
X79989502Y-113894180D01*
X80000000Y-113859573D01*
X80010498Y-113894180D01*
X80069463Y-114004494D01*
X80148815Y-114101185D01*
X80245506Y-114180537D01*
X80355820Y-114239502D01*
X80475518Y-114275812D01*
X80600000Y-114288072D01*
X82100000Y-114288072D01*
X82224482Y-114275812D01*
X82344180Y-114239502D01*
X82454494Y-114180537D01*
X82551185Y-114101185D01*
X82630537Y-114004494D01*
X82689502Y-113894180D01*
X82725812Y-113774482D01*
X82727238Y-113760000D01*
X82796289Y-113760000D01*
X82840226Y-113803937D01*
X83009744Y-113917205D01*
X83198102Y-113995226D01*
X83398061Y-114035000D01*
X83601939Y-114035000D01*
X83801898Y-113995226D01*
X83990256Y-113917205D01*
X84159774Y-113803937D01*
X84303937Y-113659774D01*
X84417205Y-113490256D01*
X84495226Y-113301898D01*
X84535000Y-113101939D01*
X84535000Y-112898061D01*
X84495226Y-112698102D01*
X84417205Y-112509744D01*
X84303937Y-112340226D01*
X84159774Y-112196063D01*
X83990256Y-112082795D01*
X83801898Y-112004774D01*
X83601939Y-111965000D01*
X83398061Y-111965000D01*
X83198102Y-112004774D01*
X83009744Y-112082795D01*
X82840226Y-112196063D01*
X82796289Y-112240000D01*
X82727238Y-112240000D01*
X82725812Y-112225518D01*
X82689502Y-112105820D01*
X82632939Y-112000000D01*
X82689502Y-111894180D01*
X82725812Y-111774482D01*
X82732064Y-111711000D01*
X84715082Y-111711000D01*
X84750000Y-111714439D01*
X84784918Y-111711000D01*
X84784926Y-111711000D01*
X84889380Y-111700712D01*
X85023404Y-111660056D01*
X85146922Y-111594035D01*
X85255185Y-111505185D01*
X85277451Y-111478054D01*
X85479001Y-111276504D01*
X85479000Y-113735081D01*
X85475561Y-113770000D01*
X85479000Y-113804918D01*
X85479000Y-113804925D01*
X85489288Y-113909379D01*
X85529944Y-114043403D01*
X85595965Y-114166921D01*
X85684815Y-114275184D01*
X85711942Y-114297447D01*
X86392553Y-114978059D01*
X86414815Y-115005185D01*
X86441941Y-115027447D01*
X86441943Y-115027449D01*
X86455499Y-115038574D01*
X86523078Y-115094035D01*
X86646596Y-115160056D01*
X86780620Y-115200712D01*
X86885074Y-115211000D01*
X86885081Y-115211000D01*
X86920000Y-115214439D01*
X86954919Y-115211000D01*
X91535082Y-115211000D01*
X91570000Y-115214439D01*
X91604918Y-115211000D01*
X91604926Y-115211000D01*
X91709380Y-115200712D01*
X91843404Y-115160056D01*
X91966922Y-115094035D01*
X92075185Y-115005185D01*
X92097451Y-114978054D01*
X92636950Y-114438556D01*
X92642875Y-114441010D01*
X92932401Y-114498600D01*
X93227599Y-114498600D01*
X93517125Y-114441010D01*
X93789853Y-114328042D01*
X93905359Y-114250864D01*
X94592553Y-114938059D01*
X94614815Y-114965185D01*
X94641941Y-114987447D01*
X94641943Y-114987449D01*
X94663555Y-115005185D01*
X94723078Y-115054035D01*
X94846596Y-115120056D01*
X94936898Y-115147449D01*
X94980619Y-115160712D01*
X94994763Y-115162105D01*
X95085074Y-115171000D01*
X95085080Y-115171000D01*
X95119999Y-115174439D01*
X95154918Y-115171000D01*
X98805082Y-115171000D01*
X98840000Y-115174439D01*
X98874918Y-115171000D01*
X98874926Y-115171000D01*
X98979380Y-115160712D01*
X99113404Y-115120056D01*
X99236922Y-115054035D01*
X99345185Y-114965185D01*
X99367451Y-114938054D01*
X99614993Y-114690512D01*
X107559783Y-114690512D01*
X107601213Y-114970130D01*
X107696397Y-115236292D01*
X107763329Y-115361514D01*
X108007298Y-115433097D01*
X108820395Y-114620000D01*
X109179605Y-114620000D01*
X109992702Y-115433097D01*
X110236671Y-115361514D01*
X110357571Y-115106004D01*
X110426300Y-114831816D01*
X110440217Y-114549488D01*
X110398787Y-114269870D01*
X110303603Y-114003708D01*
X110236671Y-113878486D01*
X109992702Y-113806903D01*
X109179605Y-114620000D01*
X108820395Y-114620000D01*
X108007298Y-113806903D01*
X107763329Y-113878486D01*
X107642429Y-114133996D01*
X107573700Y-114408184D01*
X107559783Y-114690512D01*
X99614993Y-114690512D01*
X100608054Y-113697451D01*
X100635185Y-113675185D01*
X100674485Y-113627298D01*
X108186903Y-113627298D01*
X109000000Y-114440395D01*
X109813097Y-113627298D01*
X109741514Y-113383329D01*
X109486004Y-113262429D01*
X109211816Y-113193700D01*
X108929488Y-113179783D01*
X108649870Y-113221213D01*
X108383708Y-113316397D01*
X108258486Y-113383329D01*
X108186903Y-113627298D01*
X100674485Y-113627298D01*
X100724035Y-113566922D01*
X100790056Y-113443404D01*
X100821123Y-113340990D01*
X100830712Y-113309381D01*
X100835101Y-113264815D01*
X100841000Y-113204926D01*
X100841000Y-113204920D01*
X100844439Y-113170001D01*
X100841000Y-113135082D01*
X100841000Y-111421506D01*
X101997553Y-112578059D01*
X102019815Y-112605185D01*
X102046941Y-112627447D01*
X102046943Y-112627449D01*
X102048882Y-112629040D01*
X102128078Y-112694035D01*
X102188996Y-112726596D01*
X102251595Y-112760056D01*
X102385620Y-112800712D01*
X102490074Y-112811000D01*
X102490081Y-112811000D01*
X102525000Y-112814439D01*
X102559919Y-112811000D01*
X113805495Y-112811000D01*
X115232809Y-114238315D01*
X115185000Y-114478665D01*
X115185000Y-114761335D01*
X115240147Y-115038574D01*
X115348320Y-115299727D01*
X115505363Y-115534759D01*
X115705241Y-115734637D01*
X115940273Y-115891680D01*
X116201426Y-115999853D01*
X116478665Y-116055000D01*
X116761335Y-116055000D01*
X117038574Y-115999853D01*
X117299727Y-115891680D01*
X117534759Y-115734637D01*
X117734637Y-115534759D01*
X117891680Y-115299727D01*
X117999853Y-115038574D01*
X118055000Y-114761335D01*
X118055000Y-114478665D01*
X118016362Y-114284419D01*
X122915000Y-114284419D01*
X122915000Y-114665581D01*
X122989361Y-115039419D01*
X123135225Y-115391566D01*
X123346987Y-115708491D01*
X123616509Y-115978013D01*
X123933434Y-116189775D01*
X124285581Y-116335639D01*
X124659419Y-116410000D01*
X125040581Y-116410000D01*
X125414419Y-116335639D01*
X125766566Y-116189775D01*
X126083491Y-115978013D01*
X126353013Y-115708491D01*
X126564775Y-115391566D01*
X126710639Y-115039419D01*
X126785000Y-114665581D01*
X126785000Y-114386540D01*
X131811718Y-114386540D01*
X131817311Y-114429849D01*
X131911791Y-114659422D01*
X132049243Y-114866152D01*
X132224385Y-115042094D01*
X132430486Y-115180487D01*
X132659626Y-115276013D01*
X132903000Y-115325000D01*
X133278000Y-115325000D01*
X133278000Y-114192000D01*
X133532000Y-114192000D01*
X133532000Y-115325000D01*
X133907000Y-115325000D01*
X134150374Y-115276013D01*
X134379514Y-115180487D01*
X134585615Y-115042094D01*
X134760757Y-114866152D01*
X134898209Y-114659422D01*
X134992689Y-114429849D01*
X134998282Y-114386540D01*
X135611718Y-114386540D01*
X135617311Y-114429849D01*
X135711791Y-114659422D01*
X135849243Y-114866152D01*
X136024385Y-115042094D01*
X136230486Y-115180487D01*
X136459626Y-115276013D01*
X136703000Y-115325000D01*
X137078000Y-115325000D01*
X137078000Y-114192000D01*
X135736098Y-114192000D01*
X135611718Y-114386540D01*
X134998282Y-114386540D01*
X134873902Y-114192000D01*
X133532000Y-114192000D01*
X133278000Y-114192000D01*
X131936098Y-114192000D01*
X131811718Y-114386540D01*
X126785000Y-114386540D01*
X126785000Y-114284419D01*
X126710639Y-113910581D01*
X126641416Y-113743460D01*
X131811718Y-113743460D01*
X131936098Y-113938000D01*
X133278000Y-113938000D01*
X133278000Y-112805000D01*
X132903000Y-112805000D01*
X132659626Y-112853987D01*
X132430486Y-112949513D01*
X132224385Y-113087906D01*
X132049243Y-113263848D01*
X131911791Y-113470578D01*
X131817311Y-113700151D01*
X131811718Y-113743460D01*
X126641416Y-113743460D01*
X126564775Y-113558434D01*
X126353013Y-113241509D01*
X126083491Y-112971987D01*
X125766566Y-112760225D01*
X125414419Y-112614361D01*
X125040581Y-112540000D01*
X124659419Y-112540000D01*
X124285581Y-112614361D01*
X123933434Y-112760225D01*
X123616509Y-112971987D01*
X123346987Y-113241509D01*
X123135225Y-113558434D01*
X122989361Y-113910581D01*
X122915000Y-114284419D01*
X118016362Y-114284419D01*
X117999853Y-114201426D01*
X117891680Y-113940273D01*
X117734637Y-113705241D01*
X117534759Y-113505363D01*
X117299727Y-113348320D01*
X117038574Y-113240147D01*
X116761335Y-113185000D01*
X116478665Y-113185000D01*
X116238315Y-113232809D01*
X114627451Y-111621946D01*
X114605185Y-111594815D01*
X114496922Y-111505965D01*
X114373404Y-111439944D01*
X114239380Y-111399288D01*
X114134926Y-111389000D01*
X114134918Y-111389000D01*
X114100000Y-111385561D01*
X114065082Y-111389000D01*
X102819506Y-111389000D01*
X101929850Y-110499344D01*
X122054710Y-110499344D01*
X122066970Y-110623826D01*
X122103280Y-110743524D01*
X122162245Y-110853838D01*
X122241597Y-110950529D01*
X122338288Y-111029881D01*
X122448602Y-111088846D01*
X122568300Y-111125156D01*
X122692782Y-111137416D01*
X124307032Y-111134344D01*
X124465782Y-110975594D01*
X124465782Y-109626344D01*
X124719782Y-109626344D01*
X124719782Y-110975594D01*
X124878532Y-111134344D01*
X126492782Y-111137416D01*
X126617264Y-111125156D01*
X126736962Y-111088846D01*
X126847276Y-111029881D01*
X126943967Y-110950529D01*
X127023319Y-110853838D01*
X127082284Y-110743524D01*
X127118594Y-110623826D01*
X127130854Y-110499344D01*
X127127782Y-109785094D01*
X126969032Y-109626344D01*
X124719782Y-109626344D01*
X124465782Y-109626344D01*
X122216532Y-109626344D01*
X122057782Y-109785094D01*
X122054710Y-110499344D01*
X101929850Y-110499344D01*
X99929850Y-108499344D01*
X122054710Y-108499344D01*
X122057782Y-109213594D01*
X122216532Y-109372344D01*
X124465782Y-109372344D01*
X124465782Y-108023094D01*
X124719782Y-108023094D01*
X124719782Y-109372344D01*
X126969032Y-109372344D01*
X127127782Y-109213594D01*
X127130854Y-108499344D01*
X127118594Y-108374862D01*
X127082284Y-108255164D01*
X127023319Y-108144850D01*
X126943967Y-108048159D01*
X126847276Y-107968807D01*
X126736962Y-107909842D01*
X126617264Y-107873532D01*
X126492782Y-107861272D01*
X124878532Y-107864344D01*
X124719782Y-108023094D01*
X124465782Y-108023094D01*
X124307032Y-107864344D01*
X122692782Y-107861272D01*
X122568300Y-107873532D01*
X122448602Y-107909842D01*
X122338288Y-107968807D01*
X122241597Y-108048159D01*
X122162245Y-108144850D01*
X122103280Y-108255164D01*
X122066970Y-108374862D01*
X122054710Y-108499344D01*
X99929850Y-108499344D01*
X99791338Y-108360833D01*
X99912835Y-108385000D01*
X100087165Y-108385000D01*
X100258145Y-108350990D01*
X100419205Y-108284277D01*
X100528871Y-108211000D01*
X101965082Y-108211000D01*
X102000000Y-108214439D01*
X102034918Y-108211000D01*
X102034926Y-108211000D01*
X102139380Y-108200712D01*
X102273404Y-108160056D01*
X102396922Y-108094035D01*
X102505185Y-108005185D01*
X102527451Y-107978054D01*
X104469505Y-106036000D01*
X107586176Y-106036000D01*
X107574188Y-106075518D01*
X107561928Y-106200000D01*
X107561928Y-107800000D01*
X107574188Y-107924482D01*
X107610498Y-108044180D01*
X107669463Y-108154494D01*
X107748815Y-108251185D01*
X107845506Y-108330537D01*
X107955820Y-108389502D01*
X108075518Y-108425812D01*
X108200000Y-108438072D01*
X109800000Y-108438072D01*
X109924482Y-108425812D01*
X110044180Y-108389502D01*
X110154494Y-108330537D01*
X110251185Y-108251185D01*
X110330537Y-108154494D01*
X110389502Y-108044180D01*
X110425812Y-107924482D01*
X110438072Y-107800000D01*
X110438072Y-106858665D01*
X115185000Y-106858665D01*
X115185000Y-107141335D01*
X115240147Y-107418574D01*
X115348320Y-107679727D01*
X115505363Y-107914759D01*
X115705241Y-108114637D01*
X115940273Y-108271680D01*
X116201426Y-108379853D01*
X116478665Y-108435000D01*
X116761335Y-108435000D01*
X117038574Y-108379853D01*
X117299727Y-108271680D01*
X117534759Y-108114637D01*
X117734637Y-107914759D01*
X117891680Y-107679727D01*
X117999853Y-107418574D01*
X118055000Y-107141335D01*
X118055000Y-106858665D01*
X117999853Y-106581426D01*
X117891680Y-106320273D01*
X117734637Y-106085241D01*
X117534759Y-105885363D01*
X117299727Y-105728320D01*
X117038574Y-105620147D01*
X116761335Y-105565000D01*
X116478665Y-105565000D01*
X116201426Y-105620147D01*
X115940273Y-105728320D01*
X115705241Y-105885363D01*
X115505363Y-106085241D01*
X115348320Y-106320273D01*
X115240147Y-106581426D01*
X115185000Y-106858665D01*
X110438072Y-106858665D01*
X110438072Y-106200000D01*
X110425812Y-106075518D01*
X110413824Y-106036000D01*
X111640082Y-106036000D01*
X111675000Y-106039439D01*
X111709918Y-106036000D01*
X111709926Y-106036000D01*
X111814380Y-106025712D01*
X111948404Y-105985056D01*
X112071922Y-105919035D01*
X112180185Y-105830185D01*
X112202451Y-105803054D01*
X115358397Y-102647108D01*
X115465226Y-102753937D01*
X115634744Y-102867205D01*
X115823102Y-102945226D01*
X116023061Y-102985000D01*
X116085198Y-102985000D01*
X116161200Y-103061002D01*
X116184999Y-103090001D01*
X116213997Y-103113799D01*
X116300723Y-103184974D01*
X116413539Y-103245276D01*
X116432753Y-103255546D01*
X116576014Y-103299003D01*
X116687667Y-103310000D01*
X116687676Y-103310000D01*
X116724999Y-103313676D01*
X116762322Y-103310000D01*
X116872913Y-103310000D01*
X116884188Y-103424482D01*
X116920498Y-103544180D01*
X116979463Y-103654494D01*
X117058815Y-103751185D01*
X117155506Y-103830537D01*
X117265820Y-103889502D01*
X117385518Y-103925812D01*
X117510000Y-103938072D01*
X118708071Y-103938072D01*
X118822498Y-104077502D01*
X119010551Y-104231833D01*
X119225099Y-104346511D01*
X119457898Y-104417130D01*
X119639335Y-104435000D01*
X120539335Y-104435000D01*
X120600000Y-104440975D01*
X120660665Y-104435000D01*
X120667326Y-104434344D01*
X120950495Y-104434344D01*
X120953280Y-104443524D01*
X121012245Y-104553838D01*
X121091597Y-104650529D01*
X121188288Y-104729881D01*
X121298602Y-104788846D01*
X121418300Y-104825156D01*
X121542782Y-104837416D01*
X123042782Y-104837416D01*
X123167264Y-104825156D01*
X123286962Y-104788846D01*
X123397276Y-104729881D01*
X123442782Y-104692535D01*
X123488288Y-104729881D01*
X123598602Y-104788846D01*
X123718300Y-104825156D01*
X123842782Y-104837416D01*
X124307032Y-104834344D01*
X124465782Y-104675594D01*
X124465782Y-103326344D01*
X124445782Y-103326344D01*
X124445782Y-103072344D01*
X124465782Y-103072344D01*
X124465782Y-103052344D01*
X124719782Y-103052344D01*
X124719782Y-103072344D01*
X124739782Y-103072344D01*
X124739782Y-103326344D01*
X124719782Y-103326344D01*
X124719782Y-104675594D01*
X124878532Y-104834344D01*
X125342782Y-104837416D01*
X125467264Y-104825156D01*
X125586962Y-104788846D01*
X125697276Y-104729881D01*
X125742782Y-104692535D01*
X125788288Y-104729881D01*
X125898602Y-104788846D01*
X126018300Y-104825156D01*
X126057783Y-104829045D01*
X126057783Y-106404754D01*
X126053742Y-106445782D01*
X126069864Y-106609470D01*
X126117610Y-106766868D01*
X126195146Y-106911927D01*
X126195147Y-106911928D01*
X126299492Y-107039073D01*
X126331356Y-107065223D01*
X129075570Y-109809438D01*
X129075575Y-109809442D01*
X129614711Y-110348578D01*
X129498063Y-110465226D01*
X129384795Y-110634744D01*
X129306774Y-110823102D01*
X129267000Y-111023061D01*
X129267000Y-111226939D01*
X129306774Y-111426898D01*
X129384795Y-111615256D01*
X129498063Y-111784774D01*
X129642226Y-111928937D01*
X129811744Y-112042205D01*
X130000102Y-112120226D01*
X130200061Y-112160000D01*
X130403939Y-112160000D01*
X130603898Y-112120226D01*
X130792256Y-112042205D01*
X130915285Y-111960000D01*
X131226132Y-111960000D01*
X131617563Y-112351431D01*
X131643709Y-112383291D01*
X131675568Y-112409437D01*
X131675570Y-112409439D01*
X131693849Y-112424440D01*
X131770854Y-112487636D01*
X131915913Y-112565172D01*
X132073311Y-112612918D01*
X132195981Y-112625000D01*
X132195982Y-112625000D01*
X132237000Y-112629040D01*
X132278018Y-112625000D01*
X132798808Y-112625000D01*
X132830000Y-112628072D01*
X133580126Y-112628072D01*
X133604010Y-112748145D01*
X133627560Y-112805000D01*
X133532000Y-112805000D01*
X133532000Y-113938000D01*
X134873902Y-113938000D01*
X134998282Y-113743460D01*
X135611718Y-113743460D01*
X135736098Y-113938000D01*
X137078000Y-113938000D01*
X137078000Y-112805000D01*
X136703000Y-112805000D01*
X136459626Y-112853987D01*
X136230486Y-112949513D01*
X136024385Y-113087906D01*
X135849243Y-113263848D01*
X135711791Y-113470578D01*
X135617311Y-113700151D01*
X135611718Y-113743460D01*
X134998282Y-113743460D01*
X134992689Y-113700151D01*
X134898209Y-113470578D01*
X134790691Y-113308869D01*
X134874205Y-113274277D01*
X135019155Y-113177424D01*
X135142424Y-113054155D01*
X135239277Y-112909205D01*
X135305990Y-112748145D01*
X135340000Y-112577165D01*
X135340000Y-112402835D01*
X135305990Y-112231855D01*
X135285334Y-112181988D01*
X135305812Y-112114482D01*
X135318072Y-111990000D01*
X135318072Y-111590000D01*
X135305812Y-111465518D01*
X135305655Y-111465000D01*
X135305812Y-111464482D01*
X135318072Y-111340000D01*
X135318072Y-110940000D01*
X135305812Y-110815518D01*
X135305655Y-110815000D01*
X135305812Y-110814482D01*
X135318072Y-110690000D01*
X135318072Y-110290000D01*
X135305812Y-110165518D01*
X135305655Y-110165000D01*
X135305812Y-110164482D01*
X135318072Y-110040000D01*
X135318072Y-109640000D01*
X135305812Y-109515518D01*
X135305151Y-109513340D01*
X135315000Y-109421750D01*
X135247032Y-109353782D01*
X135210537Y-109285506D01*
X135131185Y-109188815D01*
X135063396Y-109133183D01*
X135079579Y-109117000D01*
X135156250Y-109117000D01*
X135315000Y-108958250D01*
X135304170Y-108857533D01*
X135285304Y-108798085D01*
X135305990Y-108748145D01*
X135340000Y-108577165D01*
X135340000Y-108402835D01*
X135305990Y-108231855D01*
X135239277Y-108070795D01*
X135142424Y-107925845D01*
X135019155Y-107802576D01*
X134874205Y-107705723D01*
X134790691Y-107671131D01*
X134898209Y-107509422D01*
X134992689Y-107279849D01*
X134998282Y-107236540D01*
X135611718Y-107236540D01*
X135617311Y-107279849D01*
X135711791Y-107509422D01*
X135849243Y-107716152D01*
X136024385Y-107892094D01*
X136230486Y-108030487D01*
X136459626Y-108126013D01*
X136703000Y-108175000D01*
X137078000Y-108175000D01*
X137078000Y-107042000D01*
X135736098Y-107042000D01*
X135611718Y-107236540D01*
X134998282Y-107236540D01*
X134873902Y-107042000D01*
X133532000Y-107042000D01*
X133532000Y-108175000D01*
X133627560Y-108175000D01*
X133604010Y-108231855D01*
X133570000Y-108402835D01*
X133570000Y-108455750D01*
X133469250Y-108355000D01*
X132838152Y-108351980D01*
X132713524Y-108362649D01*
X132593372Y-108397427D01*
X132482313Y-108454977D01*
X132384616Y-108533088D01*
X132304035Y-108628757D01*
X132243666Y-108738309D01*
X132205830Y-108857533D01*
X132195000Y-108958250D01*
X132353750Y-109117000D01*
X132466322Y-109117000D01*
X132378815Y-109188815D01*
X132299463Y-109285506D01*
X132262968Y-109353782D01*
X132195000Y-109421750D01*
X132204849Y-109513340D01*
X132204188Y-109515518D01*
X132191928Y-109640000D01*
X132191928Y-110040000D01*
X132204188Y-110164482D01*
X132204345Y-110165000D01*
X132204188Y-110165518D01*
X132191928Y-110290000D01*
X132191928Y-110564061D01*
X132127944Y-110500077D01*
X132101791Y-110468209D01*
X132069927Y-110442060D01*
X131518000Y-109890133D01*
X131518000Y-107406867D01*
X131882866Y-107042002D01*
X131936097Y-107042002D01*
X131811718Y-107236540D01*
X131817311Y-107279849D01*
X131911791Y-107509422D01*
X132049243Y-107716152D01*
X132224385Y-107892094D01*
X132430486Y-108030487D01*
X132659626Y-108126013D01*
X132903000Y-108175000D01*
X133278000Y-108175000D01*
X133278000Y-107042000D01*
X133258000Y-107042000D01*
X133258000Y-106788000D01*
X133278000Y-106788000D01*
X133278000Y-106768000D01*
X133532000Y-106768000D01*
X133532000Y-106788000D01*
X134873902Y-106788000D01*
X134998282Y-106593460D01*
X135611718Y-106593460D01*
X135736098Y-106788000D01*
X137078000Y-106788000D01*
X137078000Y-105655000D01*
X136703000Y-105655000D01*
X136459626Y-105703987D01*
X136230486Y-105799513D01*
X136024385Y-105937906D01*
X135849243Y-106113848D01*
X135711791Y-106320578D01*
X135617311Y-106550151D01*
X135611718Y-106593460D01*
X134998282Y-106593460D01*
X134992689Y-106550151D01*
X134898209Y-106320578D01*
X134760757Y-106113848D01*
X134675247Y-106027947D01*
X134705291Y-106003291D01*
X134731446Y-105971421D01*
X136324432Y-104378437D01*
X136356291Y-104352291D01*
X136383584Y-104319035D01*
X136460636Y-104225146D01*
X136538172Y-104080087D01*
X136543113Y-104063799D01*
X136585918Y-103922689D01*
X136598000Y-103800019D01*
X136598000Y-103800018D01*
X136602040Y-103759000D01*
X136598000Y-103717982D01*
X136598000Y-102149018D01*
X136602040Y-102108000D01*
X136598000Y-102066981D01*
X136598000Y-92947493D01*
X136689749Y-92985533D01*
X136938000Y-93035000D01*
X137338000Y-93035000D01*
X137338000Y-91877000D01*
X137318000Y-91877000D01*
X137318000Y-91623000D01*
X137338000Y-91623000D01*
X137338000Y-90465000D01*
X136938000Y-90465000D01*
X136689749Y-90514467D01*
X136455919Y-90611415D01*
X136245495Y-90752118D01*
X136066564Y-90931170D01*
X135926003Y-91141689D01*
X135873773Y-91267904D01*
X132917273Y-88311406D01*
X132896186Y-88205394D01*
X132820050Y-88021586D01*
X132805627Y-88000000D01*
X132820050Y-87978414D01*
X132896186Y-87794606D01*
X132935000Y-87599476D01*
X132935000Y-87400524D01*
X132896186Y-87205394D01*
X132820050Y-87021586D01*
X132805627Y-87000000D01*
X132820050Y-86978414D01*
X132896186Y-86794606D01*
X132935000Y-86599476D01*
X132935000Y-86400524D01*
X132896186Y-86205394D01*
X132820050Y-86021586D01*
X132805627Y-86000000D01*
X132820050Y-85978414D01*
X132896186Y-85794606D01*
X132935000Y-85599476D01*
X132935000Y-85400524D01*
X132896186Y-85205394D01*
X132820050Y-85021586D01*
X132805627Y-85000000D01*
X132820050Y-84978414D01*
X132896186Y-84794606D01*
X132935000Y-84599476D01*
X132935000Y-84400524D01*
X132896186Y-84205394D01*
X132820050Y-84021586D01*
X132799327Y-83990572D01*
X132814255Y-83989101D01*
X132892587Y-83806218D01*
X132933735Y-83611567D01*
X132936118Y-83412628D01*
X132899644Y-83217048D01*
X132825715Y-83032341D01*
X132814255Y-83010899D01*
X132799327Y-83009428D01*
X132820050Y-82978414D01*
X132896186Y-82794606D01*
X132935000Y-82599476D01*
X132935000Y-82400524D01*
X132896186Y-82205394D01*
X132820050Y-82021586D01*
X132805627Y-82000000D01*
X132820050Y-81978414D01*
X132896186Y-81794606D01*
X132935000Y-81599476D01*
X132935000Y-81400524D01*
X132896186Y-81205394D01*
X132820050Y-81021586D01*
X132799327Y-80990572D01*
X132814255Y-80989101D01*
X132892587Y-80806218D01*
X132933735Y-80611567D01*
X132936118Y-80412628D01*
X132899644Y-80217048D01*
X132825715Y-80032341D01*
X132814255Y-80010899D01*
X132613485Y-79991120D01*
X132104605Y-80500000D01*
X132112018Y-80507413D01*
X132024476Y-80490000D01*
X132012308Y-80490000D01*
X132020050Y-80478414D01*
X132096186Y-80294606D01*
X132132289Y-80113106D01*
X132433880Y-79811515D01*
X132414101Y-79610745D01*
X132231218Y-79532413D01*
X132036567Y-79491265D01*
X131999493Y-79490821D01*
X131909518Y-79356163D01*
X131768837Y-79215482D01*
X131603414Y-79104950D01*
X131419606Y-79028814D01*
X131224476Y-78990000D01*
X131025524Y-78990000D01*
X130830394Y-79028814D01*
X130646586Y-79104950D01*
X130481163Y-79215482D01*
X130417645Y-79279000D01*
X129294918Y-79279000D01*
X129259999Y-79275561D01*
X129225080Y-79279000D01*
X129225074Y-79279000D01*
X129134763Y-79287895D01*
X129120619Y-79289288D01*
X129079963Y-79301621D01*
X128986596Y-79329944D01*
X128863078Y-79395965D01*
X128808554Y-79440712D01*
X128781943Y-79462551D01*
X128781941Y-79462553D01*
X128754815Y-79484815D01*
X128732553Y-79511941D01*
X125596942Y-82647553D01*
X125569816Y-82669815D01*
X125547554Y-82696941D01*
X125547551Y-82696944D01*
X125523217Y-82726596D01*
X125480966Y-82778078D01*
X125421541Y-82889255D01*
X125414945Y-82901596D01*
X125374288Y-83035621D01*
X125360561Y-83175000D01*
X125364001Y-83209928D01*
X125364000Y-86462504D01*
X124985750Y-86465000D01*
X124827000Y-86623750D01*
X124827000Y-86961928D01*
X124573000Y-86961928D01*
X124573000Y-86623750D01*
X124414250Y-86465000D01*
X123959488Y-86461999D01*
X123834838Y-86472407D01*
X123714613Y-86506933D01*
X123603434Y-86564250D01*
X123505574Y-86642156D01*
X123424792Y-86737657D01*
X123364194Y-86847082D01*
X123326109Y-86966227D01*
X123315000Y-87068250D01*
X123452275Y-87205525D01*
X123419463Y-87245506D01*
X123360498Y-87355820D01*
X123347247Y-87399503D01*
X123315000Y-87431750D01*
X123322088Y-87496843D01*
X123311928Y-87600000D01*
X123311928Y-87900000D01*
X123321777Y-88000000D01*
X123311928Y-88100000D01*
X123311928Y-88400000D01*
X123321777Y-88500000D01*
X123311928Y-88600000D01*
X123311928Y-88900000D01*
X123321777Y-89000000D01*
X123311928Y-89100000D01*
X123311928Y-89400000D01*
X123321777Y-89500000D01*
X123311928Y-89600000D01*
X123311928Y-89900000D01*
X123322088Y-90003157D01*
X123315000Y-90068250D01*
X123347247Y-90100497D01*
X123360498Y-90144180D01*
X123417061Y-90250000D01*
X123360498Y-90355820D01*
X123347247Y-90399503D01*
X123315000Y-90431750D01*
X123322088Y-90496843D01*
X123311928Y-90600000D01*
X123311928Y-90900000D01*
X123321777Y-91000000D01*
X123311928Y-91100000D01*
X123311928Y-91400000D01*
X123321777Y-91500000D01*
X123311928Y-91600000D01*
X123311928Y-91900000D01*
X123321777Y-92000000D01*
X123311928Y-92100000D01*
X123311928Y-92400000D01*
X123321777Y-92500000D01*
X123311928Y-92600000D01*
X123311928Y-92900000D01*
X123322088Y-93003157D01*
X123315000Y-93068250D01*
X123347247Y-93100497D01*
X123360498Y-93144180D01*
X123417061Y-93250000D01*
X123360498Y-93355820D01*
X123347247Y-93399503D01*
X123315000Y-93431750D01*
X123322088Y-93496843D01*
X123311928Y-93600000D01*
X123311928Y-93900000D01*
X123321777Y-94000000D01*
X123311928Y-94100000D01*
X123311928Y-94400000D01*
X123322088Y-94503157D01*
X123315000Y-94568250D01*
X123347247Y-94600497D01*
X123360498Y-94644180D01*
X123419463Y-94754494D01*
X123452275Y-94794475D01*
X123315000Y-94931750D01*
X123326109Y-95033773D01*
X123364194Y-95152918D01*
X123424792Y-95262343D01*
X123505574Y-95357844D01*
X123603434Y-95435750D01*
X123714613Y-95493067D01*
X123834838Y-95527593D01*
X123959488Y-95538001D01*
X124414250Y-95535000D01*
X124573000Y-95376250D01*
X124573000Y-95038072D01*
X124827000Y-95038072D01*
X124827000Y-95376250D01*
X124985750Y-95535000D01*
X125440512Y-95538001D01*
X125565162Y-95527593D01*
X125685387Y-95493067D01*
X125796566Y-95435750D01*
X125894426Y-95357844D01*
X125905900Y-95344279D01*
X125950795Y-95374277D01*
X126111855Y-95440990D01*
X126282835Y-95475000D01*
X126457165Y-95475000D01*
X126591928Y-95448194D01*
X126591928Y-95709000D01*
X126114919Y-95709000D01*
X126080000Y-95705561D01*
X126045081Y-95709000D01*
X126045074Y-95709000D01*
X125940620Y-95719288D01*
X125806596Y-95759944D01*
X125683078Y-95825965D01*
X125653792Y-95850000D01*
X125601943Y-95892551D01*
X125601941Y-95892553D01*
X125574815Y-95914815D01*
X125552553Y-95941941D01*
X123971216Y-97523278D01*
X123841855Y-97549010D01*
X123680795Y-97615723D01*
X123535845Y-97712576D01*
X123412576Y-97835845D01*
X123315723Y-97980795D01*
X123249010Y-98141855D01*
X123215000Y-98312835D01*
X123215000Y-98459495D01*
X122961000Y-98205495D01*
X122961000Y-98081815D01*
X123033773Y-98073891D01*
X123152918Y-98035806D01*
X123262343Y-97975208D01*
X123357844Y-97894426D01*
X123435750Y-97796566D01*
X123493067Y-97685387D01*
X123527593Y-97565162D01*
X123538001Y-97440512D01*
X123535000Y-96985750D01*
X123376250Y-96827000D01*
X123038072Y-96827000D01*
X123038072Y-96573000D01*
X123376250Y-96573000D01*
X123535000Y-96414250D01*
X123538001Y-95959488D01*
X123527593Y-95834838D01*
X123493067Y-95714613D01*
X123435750Y-95603434D01*
X123357844Y-95505574D01*
X123262343Y-95424792D01*
X123152918Y-95364194D01*
X123033773Y-95326109D01*
X122931750Y-95315000D01*
X122794475Y-95452275D01*
X122754494Y-95419463D01*
X122644180Y-95360498D01*
X122600497Y-95347247D01*
X122568250Y-95315000D01*
X122503157Y-95322088D01*
X122400000Y-95311928D01*
X122100000Y-95311928D01*
X122000000Y-95321777D01*
X121900000Y-95311928D01*
X121600000Y-95311928D01*
X121500000Y-95321777D01*
X121400000Y-95311928D01*
X121100000Y-95311928D01*
X121000000Y-95321777D01*
X120900000Y-95311928D01*
X120600000Y-95311928D01*
X120500000Y-95321777D01*
X120400000Y-95311928D01*
X120100000Y-95311928D01*
X119996843Y-95322088D01*
X119931750Y-95315000D01*
X119899503Y-95347247D01*
X119855820Y-95360498D01*
X119750000Y-95417061D01*
X119644180Y-95360498D01*
X119600497Y-95347247D01*
X119568250Y-95315000D01*
X119503157Y-95322088D01*
X119400000Y-95311928D01*
X119100000Y-95311928D01*
X119000000Y-95321777D01*
X118900000Y-95311928D01*
X118600000Y-95311928D01*
X118500000Y-95321777D01*
X118400000Y-95311928D01*
X118100000Y-95311928D01*
X118000000Y-95321777D01*
X117900000Y-95311928D01*
X117600000Y-95311928D01*
X117500000Y-95321777D01*
X117400000Y-95311928D01*
X117100000Y-95311928D01*
X117000000Y-95321777D01*
X116900000Y-95311928D01*
X116600000Y-95311928D01*
X116500000Y-95321777D01*
X116400000Y-95311928D01*
X116100000Y-95311928D01*
X116000000Y-95321777D01*
X115900000Y-95311928D01*
X115600000Y-95311928D01*
X115500000Y-95321777D01*
X115400000Y-95311928D01*
X115100000Y-95311928D01*
X114975518Y-95324188D01*
X114855820Y-95360498D01*
X114745506Y-95419463D01*
X114648815Y-95498815D01*
X114569463Y-95595506D01*
X114520316Y-95687453D01*
X114357165Y-95655000D01*
X114182835Y-95655000D01*
X114011855Y-95689010D01*
X113850795Y-95755723D01*
X113705845Y-95852576D01*
X113582576Y-95975845D01*
X113485723Y-96120795D01*
X113419010Y-96281855D01*
X113385000Y-96452835D01*
X113385000Y-96627165D01*
X113419010Y-96798145D01*
X113485723Y-96959205D01*
X113582576Y-97104155D01*
X113705845Y-97227424D01*
X113738136Y-97249000D01*
X113264506Y-97249000D01*
X111837453Y-95821948D01*
X111837449Y-95821943D01*
X111566503Y-95550997D01*
X111499023Y-95483518D01*
X111543404Y-95470055D01*
X111666921Y-95404034D01*
X111748056Y-95337449D01*
X111758056Y-95327449D01*
X111785185Y-95305185D01*
X111807451Y-95278054D01*
X111956538Y-95128967D01*
X111964194Y-95152918D01*
X112024792Y-95262343D01*
X112105574Y-95357844D01*
X112203434Y-95435750D01*
X112314613Y-95493067D01*
X112434838Y-95527593D01*
X112559488Y-95538001D01*
X113014250Y-95535000D01*
X113173000Y-95376250D01*
X113173000Y-95038072D01*
X113427000Y-95038072D01*
X113427000Y-95376250D01*
X113585750Y-95535000D01*
X114040512Y-95538001D01*
X114165162Y-95527593D01*
X114285387Y-95493067D01*
X114396566Y-95435750D01*
X114494426Y-95357844D01*
X114575208Y-95262343D01*
X114635806Y-95152918D01*
X114673891Y-95033773D01*
X114685000Y-94931750D01*
X114547725Y-94794475D01*
X114580537Y-94754494D01*
X114639502Y-94644180D01*
X114652753Y-94600497D01*
X114685000Y-94568250D01*
X114677912Y-94503157D01*
X114688072Y-94400000D01*
X114688072Y-94100000D01*
X114678223Y-94000000D01*
X114688072Y-93900000D01*
X114688072Y-93600000D01*
X114678223Y-93500000D01*
X114688072Y-93400000D01*
X114688072Y-93100000D01*
X114678223Y-93000000D01*
X114688072Y-92900000D01*
X114688072Y-92600000D01*
X114678223Y-92500000D01*
X114688072Y-92400000D01*
X114688072Y-92100000D01*
X114678223Y-92000000D01*
X114688072Y-91900000D01*
X114688072Y-91600000D01*
X114678223Y-91500000D01*
X114688072Y-91400000D01*
X114688072Y-91100000D01*
X114677912Y-90996843D01*
X114685000Y-90931750D01*
X114652753Y-90899503D01*
X114639502Y-90855820D01*
X114582939Y-90750000D01*
X114639502Y-90644180D01*
X114652753Y-90600497D01*
X114685000Y-90568250D01*
X114677912Y-90503157D01*
X114688072Y-90400000D01*
X114688072Y-90100000D01*
X114678223Y-90000000D01*
X114688072Y-89900000D01*
X114688072Y-89600000D01*
X114678223Y-89500000D01*
X114688072Y-89400000D01*
X114688072Y-89100000D01*
X114678223Y-89000000D01*
X114688072Y-88900000D01*
X114688072Y-88600000D01*
X114678223Y-88500000D01*
X114688072Y-88400000D01*
X114688072Y-88100000D01*
X114678223Y-88000000D01*
X114688072Y-87900000D01*
X114688072Y-87600000D01*
X114678223Y-87500000D01*
X114688072Y-87400000D01*
X114688072Y-87100000D01*
X114675812Y-86975518D01*
X114639502Y-86855820D01*
X114580537Y-86745506D01*
X114501185Y-86648815D01*
X114404494Y-86569463D01*
X114294180Y-86510498D01*
X114174482Y-86474188D01*
X114050000Y-86461928D01*
X112550000Y-86461928D01*
X112425518Y-86474188D01*
X112305820Y-86510498D01*
X112195506Y-86569463D01*
X112098815Y-86648815D01*
X112019463Y-86745506D01*
X111960498Y-86855820D01*
X111924188Y-86975518D01*
X111917936Y-87039000D01*
X110474505Y-87039000D01*
X110310505Y-86875000D01*
X112554506Y-84631000D01*
X114462471Y-84631000D01*
X114465000Y-85014250D01*
X114623750Y-85173000D01*
X114961928Y-85173000D01*
X114961928Y-85427000D01*
X114623750Y-85427000D01*
X114465000Y-85585750D01*
X114461999Y-86040512D01*
X114472407Y-86165162D01*
X114506933Y-86285387D01*
X114564250Y-86396566D01*
X114642156Y-86494426D01*
X114737657Y-86575208D01*
X114847082Y-86635806D01*
X114966227Y-86673891D01*
X115068250Y-86685000D01*
X115205525Y-86547725D01*
X115245506Y-86580537D01*
X115355820Y-86639502D01*
X115399503Y-86652753D01*
X115431750Y-86685000D01*
X115496843Y-86677912D01*
X115600000Y-86688072D01*
X115900000Y-86688072D01*
X116000000Y-86678223D01*
X116100000Y-86688072D01*
X116400000Y-86688072D01*
X116500000Y-86678223D01*
X116600000Y-86688072D01*
X116900000Y-86688072D01*
X117000000Y-86678223D01*
X117100000Y-86688072D01*
X117400000Y-86688072D01*
X117500000Y-86678223D01*
X117600000Y-86688072D01*
X117900000Y-86688072D01*
X118000000Y-86678223D01*
X118100000Y-86688072D01*
X118400000Y-86688072D01*
X118500000Y-86678223D01*
X118600000Y-86688072D01*
X118900000Y-86688072D01*
X119000000Y-86678223D01*
X119100000Y-86688072D01*
X119400000Y-86688072D01*
X119500000Y-86678223D01*
X119600000Y-86688072D01*
X119900000Y-86688072D01*
X120000000Y-86678223D01*
X120100000Y-86688072D01*
X120400000Y-86688072D01*
X120500000Y-86678223D01*
X120600000Y-86688072D01*
X120900000Y-86688072D01*
X121000000Y-86678223D01*
X121100000Y-86688072D01*
X121400000Y-86688072D01*
X121503157Y-86677912D01*
X121568250Y-86685000D01*
X121600497Y-86652753D01*
X121644180Y-86639502D01*
X121750823Y-86582499D01*
X121847082Y-86635806D01*
X121899223Y-86652473D01*
X121931750Y-86685000D01*
X122000000Y-86677568D01*
X122068250Y-86685000D01*
X122100777Y-86652473D01*
X122152918Y-86635806D01*
X122249177Y-86582499D01*
X122355820Y-86639502D01*
X122399503Y-86652753D01*
X122431750Y-86685000D01*
X122496843Y-86677912D01*
X122600000Y-86688072D01*
X122900000Y-86688072D01*
X123024482Y-86675812D01*
X123144180Y-86639502D01*
X123254494Y-86580537D01*
X123351185Y-86501185D01*
X123430537Y-86404494D01*
X123489502Y-86294180D01*
X123525812Y-86174482D01*
X123537087Y-86060000D01*
X123611180Y-86060000D01*
X123661855Y-86080990D01*
X123832835Y-86115000D01*
X124007165Y-86115000D01*
X124178145Y-86080990D01*
X124339205Y-86014277D01*
X124484155Y-85917424D01*
X124607424Y-85794155D01*
X124704277Y-85649205D01*
X124770990Y-85488145D01*
X124805000Y-85317165D01*
X124805000Y-85142835D01*
X124770990Y-84971855D01*
X124704277Y-84810795D01*
X124607424Y-84665845D01*
X124484155Y-84542576D01*
X124339205Y-84445723D01*
X124178145Y-84379010D01*
X124007165Y-84345000D01*
X123832835Y-84345000D01*
X123661855Y-84379010D01*
X123526743Y-84434975D01*
X123525812Y-84425518D01*
X123489502Y-84305820D01*
X123430537Y-84195506D01*
X123351185Y-84098815D01*
X123254494Y-84019463D01*
X123144180Y-83960498D01*
X123024482Y-83924188D01*
X122900000Y-83911928D01*
X122600000Y-83911928D01*
X122496843Y-83922088D01*
X122431750Y-83915000D01*
X122399503Y-83947247D01*
X122355820Y-83960498D01*
X122249177Y-84017501D01*
X122152918Y-83964194D01*
X122100777Y-83947527D01*
X122068250Y-83915000D01*
X122000000Y-83922432D01*
X121961000Y-83918185D01*
X121961000Y-82214918D01*
X121964439Y-82180000D01*
X121961000Y-82145081D01*
X121961000Y-82145074D01*
X121950712Y-82040620D01*
X121910056Y-81906596D01*
X121844035Y-81783078D01*
X121755185Y-81674815D01*
X121728059Y-81652553D01*
X118409925Y-78334419D01*
X121815000Y-78334419D01*
X121815000Y-78715581D01*
X121889361Y-79089419D01*
X122035225Y-79441566D01*
X122246987Y-79758491D01*
X122516509Y-80028013D01*
X122833434Y-80239775D01*
X123185581Y-80385639D01*
X123559419Y-80460000D01*
X123940581Y-80460000D01*
X124314419Y-80385639D01*
X124666566Y-80239775D01*
X124983491Y-80028013D01*
X125253013Y-79758491D01*
X125464775Y-79441566D01*
X125610639Y-79089419D01*
X125685000Y-78715581D01*
X125685000Y-78334419D01*
X125610639Y-77960581D01*
X125464775Y-77608434D01*
X125437497Y-77567609D01*
X129631538Y-77567609D01*
X129635409Y-77605282D01*
X129727579Y-77830533D01*
X129861922Y-78033474D01*
X130033275Y-78206307D01*
X130235054Y-78342390D01*
X130459504Y-78436493D01*
X130698000Y-78485000D01*
X131398000Y-78485000D01*
X131398000Y-77377000D01*
X131652000Y-77377000D01*
X131652000Y-78485000D01*
X132352000Y-78485000D01*
X132590496Y-78436493D01*
X132814946Y-78342390D01*
X133016725Y-78206307D01*
X133188078Y-78033474D01*
X133322421Y-77830533D01*
X133414591Y-77605282D01*
X133417654Y-77575471D01*
X135821901Y-77575471D01*
X135829213Y-77624415D01*
X135926003Y-77858311D01*
X136066564Y-78068830D01*
X136245495Y-78247882D01*
X136455919Y-78388585D01*
X136689749Y-78485533D01*
X136938000Y-78535000D01*
X137338000Y-78535000D01*
X137338000Y-77377000D01*
X135945933Y-77377000D01*
X135821901Y-77575471D01*
X133417654Y-77575471D01*
X133418462Y-77567609D01*
X133293731Y-77377000D01*
X131652000Y-77377000D01*
X131398000Y-77377000D01*
X129756269Y-77377000D01*
X129631538Y-77567609D01*
X125437497Y-77567609D01*
X125253013Y-77291509D01*
X124983491Y-77021987D01*
X124849401Y-76932391D01*
X129631538Y-76932391D01*
X129756269Y-77123000D01*
X131398000Y-77123000D01*
X131398000Y-76015000D01*
X131652000Y-76015000D01*
X131652000Y-77123000D01*
X133293731Y-77123000D01*
X133418462Y-76932391D01*
X133417655Y-76924529D01*
X135821901Y-76924529D01*
X135945933Y-77123000D01*
X137338000Y-77123000D01*
X137338000Y-75965000D01*
X136938000Y-75965000D01*
X136689749Y-76014467D01*
X136455919Y-76111415D01*
X136245495Y-76252118D01*
X136066564Y-76431170D01*
X135926003Y-76641689D01*
X135829213Y-76875585D01*
X135821901Y-76924529D01*
X133417655Y-76924529D01*
X133414591Y-76894718D01*
X133322421Y-76669467D01*
X133188078Y-76466526D01*
X133016725Y-76293693D01*
X132814946Y-76157610D01*
X132590496Y-76063507D01*
X132352000Y-76015000D01*
X131652000Y-76015000D01*
X131398000Y-76015000D01*
X130698000Y-76015000D01*
X130459504Y-76063507D01*
X130235054Y-76157610D01*
X130033275Y-76293693D01*
X129861922Y-76466526D01*
X129727579Y-76669467D01*
X129635409Y-76894718D01*
X129631538Y-76932391D01*
X124849401Y-76932391D01*
X124666566Y-76810225D01*
X124314419Y-76664361D01*
X123940581Y-76590000D01*
X123559419Y-76590000D01*
X123185581Y-76664361D01*
X122833434Y-76810225D01*
X122516509Y-77021987D01*
X122246987Y-77291509D01*
X122035225Y-77608434D01*
X121889361Y-77960581D01*
X121815000Y-78334419D01*
X118409925Y-78334419D01*
X116547451Y-76471946D01*
X116525185Y-76444815D01*
X116416922Y-76355965D01*
X116293404Y-76289944D01*
X116159380Y-76249288D01*
X116054926Y-76239000D01*
X116054918Y-76239000D01*
X116020000Y-76235561D01*
X115985082Y-76239000D01*
X102374918Y-76239000D01*
X102339999Y-76235561D01*
X102305080Y-76239000D01*
X102305074Y-76239000D01*
X102214763Y-76247895D01*
X102200619Y-76249288D01*
X102159963Y-76261621D01*
X102066596Y-76289944D01*
X101943078Y-76355965D01*
X101885627Y-76403114D01*
X101861943Y-76422551D01*
X101861941Y-76422553D01*
X101834815Y-76444815D01*
X101812553Y-76471941D01*
X100370632Y-77913863D01*
X100430990Y-77768145D01*
X100465000Y-77597165D01*
X100465000Y-77422835D01*
X100430990Y-77251855D01*
X100364277Y-77090795D01*
X100267424Y-76945845D01*
X100144155Y-76822576D01*
X99999205Y-76725723D01*
X99838145Y-76659010D01*
X99667165Y-76625000D01*
X99492835Y-76625000D01*
X99321855Y-76659010D01*
X99160795Y-76725723D01*
X99015845Y-76822576D01*
X98892576Y-76945845D01*
X98795723Y-77090795D01*
X98729010Y-77251855D01*
X98720485Y-77294714D01*
X98688998Y-77326201D01*
X98660000Y-77349999D01*
X98636202Y-77378997D01*
X98636201Y-77378998D01*
X98565026Y-77465724D01*
X98494454Y-77597754D01*
X98474540Y-77663404D01*
X98450998Y-77741014D01*
X98446476Y-77786922D01*
X98436324Y-77890000D01*
X98440001Y-77927332D01*
X98440001Y-78470792D01*
X98350000Y-78461928D01*
X98050000Y-78461928D01*
X97950000Y-78471777D01*
X97850000Y-78461928D01*
X97550000Y-78461928D01*
X97450000Y-78471777D01*
X97350000Y-78461928D01*
X97050000Y-78461928D01*
X96950000Y-78471777D01*
X96850000Y-78461928D01*
X96550000Y-78461928D01*
X96450000Y-78471777D01*
X96350000Y-78461928D01*
X96050000Y-78461928D01*
X95950000Y-78471777D01*
X95850000Y-78461928D01*
X95550000Y-78461928D01*
X95450000Y-78471777D01*
X95350000Y-78461928D01*
X95050000Y-78461928D01*
X94950000Y-78471777D01*
X94850000Y-78461928D01*
X94550000Y-78461928D01*
X94460000Y-78470792D01*
X94460000Y-77965538D01*
X94484277Y-77929205D01*
X94550990Y-77768145D01*
X94585000Y-77597165D01*
X94585000Y-77422835D01*
X94550990Y-77251855D01*
X94484277Y-77090795D01*
X94387424Y-76945845D01*
X94264155Y-76822576D01*
X94119205Y-76725723D01*
X93958145Y-76659010D01*
X93787165Y-76625000D01*
X93612835Y-76625000D01*
X93441855Y-76659010D01*
X93280795Y-76725723D01*
X93135845Y-76822576D01*
X93012576Y-76945845D01*
X92915723Y-77090795D01*
X92849010Y-77251855D01*
X92815000Y-77422835D01*
X92815000Y-77597165D01*
X92849010Y-77768145D01*
X92915723Y-77929205D01*
X92940001Y-77965539D01*
X92940001Y-78470792D01*
X92850000Y-78461928D01*
X92550000Y-78461928D01*
X92446843Y-78472088D01*
X92381750Y-78465000D01*
X92349503Y-78497247D01*
X92305820Y-78510498D01*
X92200000Y-78567061D01*
X92094180Y-78510498D01*
X92050497Y-78497247D01*
X92018250Y-78465000D01*
X91953157Y-78472088D01*
X91850000Y-78461928D01*
X91550000Y-78461928D01*
X91450000Y-78471777D01*
X91350000Y-78461928D01*
X91050000Y-78461928D01*
X90950000Y-78471777D01*
X90850000Y-78461928D01*
X90550000Y-78461928D01*
X90450000Y-78471777D01*
X90350000Y-78461928D01*
X90050000Y-78461928D01*
X89960000Y-78470792D01*
X89960000Y-77965538D01*
X89984277Y-77929205D01*
X90050990Y-77768145D01*
X90085000Y-77597165D01*
X90085000Y-77422835D01*
X90050990Y-77251855D01*
X89984277Y-77090795D01*
X89887424Y-76945845D01*
X89764155Y-76822576D01*
X89619205Y-76725723D01*
X89458145Y-76659010D01*
X89287165Y-76625000D01*
X89112835Y-76625000D01*
X88941855Y-76659010D01*
X88780795Y-76725723D01*
X88635845Y-76822576D01*
X88512576Y-76945845D01*
X88415723Y-77090795D01*
X88349010Y-77251855D01*
X88315000Y-77422835D01*
X88315000Y-77597165D01*
X88349010Y-77768145D01*
X88415723Y-77929205D01*
X88440001Y-77965539D01*
X88440001Y-78471343D01*
X88381750Y-78465000D01*
X88349503Y-78497247D01*
X88305820Y-78510498D01*
X88200000Y-78567061D01*
X88094180Y-78510498D01*
X88050497Y-78497247D01*
X88018250Y-78465000D01*
X87953157Y-78472088D01*
X87850000Y-78461928D01*
X87550000Y-78461928D01*
X87460000Y-78470792D01*
X87460000Y-77737325D01*
X87463676Y-77700000D01*
X87460000Y-77662675D01*
X87460000Y-77662667D01*
X87449003Y-77551014D01*
X87405546Y-77407753D01*
X87334974Y-77275724D01*
X87274493Y-77202028D01*
X87224277Y-77080795D01*
X87127424Y-76935845D01*
X87004155Y-76812576D01*
X86859205Y-76715723D01*
X86698145Y-76649010D01*
X86527165Y-76615000D01*
X86352835Y-76615000D01*
X86181855Y-76649010D01*
X86020795Y-76715723D01*
X85875845Y-76812576D01*
X85752576Y-76935845D01*
X85655723Y-77080795D01*
X85589010Y-77241855D01*
X85577289Y-77300782D01*
X85565026Y-77315724D01*
X85507774Y-77422835D01*
X85494454Y-77447754D01*
X85450997Y-77591015D01*
X85440000Y-77702668D01*
X85440000Y-77702678D01*
X85436324Y-77740000D01*
X85440000Y-77777323D01*
X85440001Y-78923391D01*
X85424188Y-78975518D01*
X85411928Y-79100000D01*
X85411928Y-80600000D01*
X85424188Y-80724482D01*
X85460498Y-80844180D01*
X85519463Y-80954494D01*
X85598815Y-81051185D01*
X85695506Y-81130537D01*
X85805820Y-81189502D01*
X85925518Y-81225812D01*
X86050000Y-81238072D01*
X86350000Y-81238072D01*
X86450000Y-81228223D01*
X86550000Y-81238072D01*
X86850000Y-81238072D01*
X86950000Y-81228223D01*
X87050000Y-81238072D01*
X87350000Y-81238072D01*
X87450000Y-81228223D01*
X87550000Y-81238072D01*
X87850000Y-81238072D01*
X87953157Y-81227912D01*
X88018250Y-81235000D01*
X88050497Y-81202753D01*
X88094180Y-81189502D01*
X88200000Y-81132939D01*
X88305820Y-81189502D01*
X88349503Y-81202753D01*
X88381750Y-81235000D01*
X88446843Y-81227912D01*
X88550000Y-81238072D01*
X88850000Y-81238072D01*
X88950000Y-81228223D01*
X89050000Y-81238072D01*
X89350000Y-81238072D01*
X89450000Y-81228223D01*
X89550000Y-81238072D01*
X89850000Y-81238072D01*
X89950000Y-81228223D01*
X90050000Y-81238072D01*
X90350000Y-81238072D01*
X90450000Y-81228223D01*
X90550000Y-81238072D01*
X90850000Y-81238072D01*
X90950000Y-81228223D01*
X91050000Y-81238072D01*
X91350000Y-81238072D01*
X91450000Y-81228223D01*
X91550000Y-81238072D01*
X91850000Y-81238072D01*
X91953157Y-81227912D01*
X92018250Y-81235000D01*
X92050497Y-81202753D01*
X92094180Y-81189502D01*
X92200000Y-81132939D01*
X92305820Y-81189502D01*
X92349503Y-81202753D01*
X92381750Y-81235000D01*
X92446843Y-81227912D01*
X92550000Y-81238072D01*
X92850000Y-81238072D01*
X92950000Y-81228223D01*
X93050000Y-81238072D01*
X93350000Y-81238072D01*
X93450000Y-81228223D01*
X93550000Y-81238072D01*
X93850000Y-81238072D01*
X93950000Y-81228223D01*
X94050000Y-81238072D01*
X94350000Y-81238072D01*
X94450000Y-81228223D01*
X94550000Y-81238072D01*
X94850000Y-81238072D01*
X94950000Y-81228223D01*
X95050000Y-81238072D01*
X95350000Y-81238072D01*
X95450000Y-81228223D01*
X95550000Y-81238072D01*
X95850000Y-81238072D01*
X95950000Y-81228223D01*
X96050000Y-81238072D01*
X96350000Y-81238072D01*
X96450000Y-81228223D01*
X96550000Y-81238072D01*
X96850000Y-81238072D01*
X96950000Y-81228223D01*
X97050000Y-81238072D01*
X97350000Y-81238072D01*
X97450000Y-81228223D01*
X97550000Y-81238072D01*
X97850000Y-81238072D01*
X97950000Y-81228223D01*
X98050000Y-81238072D01*
X98350000Y-81238072D01*
X98453157Y-81227912D01*
X98518250Y-81235000D01*
X98550497Y-81202753D01*
X98594180Y-81189502D01*
X98700000Y-81132939D01*
X98805820Y-81189502D01*
X98849503Y-81202753D01*
X98881750Y-81235000D01*
X98946843Y-81227912D01*
X99050000Y-81238072D01*
X99350000Y-81238072D01*
X99450000Y-81228223D01*
X99550000Y-81238072D01*
X99850000Y-81238072D01*
X99950000Y-81228223D01*
X100050000Y-81238072D01*
X100350000Y-81238072D01*
X100450000Y-81228223D01*
X100550000Y-81238072D01*
X100850000Y-81238072D01*
X100950000Y-81228223D01*
X101050000Y-81238072D01*
X101350000Y-81238072D01*
X101450000Y-81228223D01*
X101550000Y-81238072D01*
X101850000Y-81238072D01*
X101950000Y-81228223D01*
X102050000Y-81238072D01*
X102229266Y-81238072D01*
X102210795Y-81245723D01*
X102065845Y-81342576D01*
X101942576Y-81465845D01*
X101845723Y-81610795D01*
X101779010Y-81771855D01*
X101745000Y-81942835D01*
X101745000Y-82117165D01*
X101779010Y-82288145D01*
X101845723Y-82449205D01*
X101942576Y-82594155D01*
X102065845Y-82717424D01*
X102210795Y-82814277D01*
X102371855Y-82880990D01*
X102422130Y-82890990D01*
X102475724Y-82934974D01*
X102607753Y-83005546D01*
X102751014Y-83049003D01*
X102862667Y-83060000D01*
X102862675Y-83060000D01*
X102900000Y-83063676D01*
X102937325Y-83060000D01*
X104270792Y-83060000D01*
X104261928Y-83150000D01*
X104261928Y-83450000D01*
X104271777Y-83550000D01*
X104261928Y-83650000D01*
X104261928Y-83950000D01*
X104271777Y-84050000D01*
X104261928Y-84150000D01*
X104261928Y-84450000D01*
X104272088Y-84553157D01*
X104265000Y-84618250D01*
X104297247Y-84650497D01*
X104310498Y-84694180D01*
X104367061Y-84800000D01*
X104310498Y-84905820D01*
X104297247Y-84949503D01*
X104265000Y-84981750D01*
X104271343Y-85040000D01*
X103085538Y-85040000D01*
X103049205Y-85015723D01*
X102888145Y-84949010D01*
X102717165Y-84915000D01*
X102542835Y-84915000D01*
X102371855Y-84949010D01*
X102210795Y-85015723D01*
X102065845Y-85112576D01*
X101942576Y-85235845D01*
X101845723Y-85380795D01*
X101779010Y-85541855D01*
X101745000Y-85712835D01*
X101745000Y-85887165D01*
X101779010Y-86058145D01*
X101845723Y-86219205D01*
X101942576Y-86364155D01*
X102065845Y-86487424D01*
X102210795Y-86584277D01*
X102371855Y-86650990D01*
X102542835Y-86685000D01*
X102717165Y-86685000D01*
X102888145Y-86650990D01*
X103049205Y-86584277D01*
X103085538Y-86560000D01*
X104270792Y-86560000D01*
X104261928Y-86650000D01*
X104261928Y-86950000D01*
X104271777Y-87050000D01*
X104261928Y-87150000D01*
X104261928Y-87450000D01*
X104271777Y-87550000D01*
X104261928Y-87650000D01*
X104261928Y-87950000D01*
X104270792Y-88040000D01*
X103085538Y-88040000D01*
X103049205Y-88015723D01*
X102888145Y-87949010D01*
X102717165Y-87915000D01*
X102542835Y-87915000D01*
X102371855Y-87949010D01*
X102210795Y-88015723D01*
X102065845Y-88112576D01*
X101942576Y-88235845D01*
X101845723Y-88380795D01*
X101779010Y-88541855D01*
X101745000Y-88712835D01*
X101745000Y-88887165D01*
X101779010Y-89058145D01*
X101845723Y-89219205D01*
X101899709Y-89300000D01*
X101845723Y-89380795D01*
X101779010Y-89541855D01*
X101745000Y-89712835D01*
X101745000Y-89887165D01*
X101779010Y-90058145D01*
X101845723Y-90219205D01*
X101942576Y-90364155D01*
X102065845Y-90487424D01*
X102210795Y-90584277D01*
X102371855Y-90650990D01*
X102542835Y-90685000D01*
X102717165Y-90685000D01*
X102888145Y-90650990D01*
X103049205Y-90584277D01*
X103085538Y-90560000D01*
X103754666Y-90560000D01*
X103735845Y-90572576D01*
X103612576Y-90695845D01*
X103515723Y-90840795D01*
X103449010Y-91001855D01*
X103423279Y-91131215D01*
X100221942Y-94332553D01*
X100194815Y-94354816D01*
X100172553Y-94381942D01*
X100172551Y-94381944D01*
X100165894Y-94390056D01*
X100105965Y-94463079D01*
X100039944Y-94586597D01*
X99999288Y-94720621D01*
X99989000Y-94825075D01*
X99989000Y-94825082D01*
X99985561Y-94860000D01*
X99989000Y-94894919D01*
X99989001Y-98565072D01*
X99985561Y-98600000D01*
X99999288Y-98739379D01*
X100031175Y-98844494D01*
X100039945Y-98873404D01*
X100105966Y-98996922D01*
X100139226Y-99037449D01*
X100172551Y-99078056D01*
X100172554Y-99078059D01*
X100194816Y-99105185D01*
X100221942Y-99127447D01*
X100964812Y-99870318D01*
X100946843Y-99872088D01*
X100881750Y-99865000D01*
X100849503Y-99897247D01*
X100805820Y-99910498D01*
X100700000Y-99967061D01*
X100594180Y-99910498D01*
X100550497Y-99897247D01*
X100518250Y-99865000D01*
X100453157Y-99872088D01*
X100350000Y-99861928D01*
X100050000Y-99861928D01*
X99950000Y-99871777D01*
X99850000Y-99861928D01*
X99550000Y-99861928D01*
X99450000Y-99871777D01*
X99350000Y-99861928D01*
X99050000Y-99861928D01*
X98950000Y-99871777D01*
X98850000Y-99861928D01*
X98550000Y-99861928D01*
X98450000Y-99871777D01*
X98350000Y-99861928D01*
X98050000Y-99861928D01*
X97950000Y-99871777D01*
X97850000Y-99861928D01*
X97550000Y-99861928D01*
X97450000Y-99871777D01*
X97350000Y-99861928D01*
X97050000Y-99861928D01*
X96950000Y-99871777D01*
X96850000Y-99861928D01*
X96550000Y-99861928D01*
X96450000Y-99871777D01*
X96350000Y-99861928D01*
X96050000Y-99861928D01*
X95946843Y-99872088D01*
X95881750Y-99865000D01*
X95849503Y-99897247D01*
X95805820Y-99910498D01*
X95700000Y-99967061D01*
X95594180Y-99910498D01*
X95550497Y-99897247D01*
X95518250Y-99865000D01*
X95453157Y-99872088D01*
X95350000Y-99861928D01*
X95050000Y-99861928D01*
X94950000Y-99871777D01*
X94850000Y-99861928D01*
X94550000Y-99861928D01*
X94450000Y-99871777D01*
X94350000Y-99861928D01*
X94050000Y-99861928D01*
X93950000Y-99871777D01*
X93850000Y-99861928D01*
X93550000Y-99861928D01*
X93450000Y-99871777D01*
X93350000Y-99861928D01*
X93050000Y-99861928D01*
X92950000Y-99871777D01*
X92850000Y-99861928D01*
X92550000Y-99861928D01*
X92450000Y-99871777D01*
X92350000Y-99861928D01*
X92050000Y-99861928D01*
X91950000Y-99871777D01*
X91850000Y-99861928D01*
X91550000Y-99861928D01*
X91446843Y-99872088D01*
X91381750Y-99865000D01*
X91349503Y-99897247D01*
X91305820Y-99910498D01*
X91200000Y-99967061D01*
X91094180Y-99910498D01*
X91050497Y-99897247D01*
X91018250Y-99865000D01*
X90953157Y-99872088D01*
X90850000Y-99861928D01*
X90550000Y-99861928D01*
X90450000Y-99871777D01*
X90350000Y-99861928D01*
X90050000Y-99861928D01*
X89950000Y-99871777D01*
X89850000Y-99861928D01*
X89550000Y-99861928D01*
X89450000Y-99871777D01*
X89350000Y-99861928D01*
X89050000Y-99861928D01*
X88950000Y-99871777D01*
X88850000Y-99861928D01*
X88550000Y-99861928D01*
X88450000Y-99871777D01*
X88350000Y-99861928D01*
X88050000Y-99861928D01*
X87950000Y-99871777D01*
X87850000Y-99861928D01*
X87550000Y-99861928D01*
X87450000Y-99871777D01*
X87350000Y-99861928D01*
X87050000Y-99861928D01*
X86950000Y-99871777D01*
X86850000Y-99861928D01*
X86550000Y-99861928D01*
X86450000Y-99871777D01*
X86350000Y-99861928D01*
X86050000Y-99861928D01*
X85925518Y-99874188D01*
X85805820Y-99910498D01*
X85695506Y-99969463D01*
X85598815Y-100048815D01*
X85519463Y-100145506D01*
X85460498Y-100255820D01*
X85424188Y-100375518D01*
X85411928Y-100500000D01*
X85411928Y-102000000D01*
X85424188Y-102124482D01*
X85440000Y-102176609D01*
X85440000Y-102832677D01*
X85436324Y-102870000D01*
X85440000Y-102907322D01*
X85440000Y-102907332D01*
X85450997Y-103018985D01*
X85487518Y-103139380D01*
X85494454Y-103162246D01*
X85562206Y-103289000D01*
X83784506Y-103289000D01*
X79853216Y-99357711D01*
X79886882Y-99188460D01*
X80593470Y-99895049D01*
X80621183Y-99928817D01*
X80654951Y-99956530D01*
X80654953Y-99956532D01*
X80702052Y-99995185D01*
X80755941Y-100039411D01*
X80909687Y-100121589D01*
X81076510Y-100172195D01*
X81206523Y-100185000D01*
X81206533Y-100185000D01*
X81249999Y-100189281D01*
X81293466Y-100185000D01*
X82167165Y-100185000D01*
X82210013Y-100176477D01*
X82253490Y-100172195D01*
X82295295Y-100159513D01*
X82338145Y-100150990D01*
X82378513Y-100134269D01*
X82420313Y-100121589D01*
X82458835Y-100100999D01*
X82499205Y-100084277D01*
X82535533Y-100060004D01*
X82535539Y-100060000D01*
X83323393Y-100060000D01*
X83375518Y-100075812D01*
X83500000Y-100088072D01*
X85000000Y-100088072D01*
X85124482Y-100075812D01*
X85244180Y-100039502D01*
X85354494Y-99980537D01*
X85451185Y-99901185D01*
X85530537Y-99804494D01*
X85589502Y-99694180D01*
X85625812Y-99574482D01*
X85638072Y-99450000D01*
X85638072Y-99150000D01*
X85627912Y-99046843D01*
X85635000Y-98981750D01*
X85602753Y-98949503D01*
X85589502Y-98905820D01*
X85532939Y-98800000D01*
X85589502Y-98694180D01*
X85602753Y-98650497D01*
X85635000Y-98618250D01*
X85627912Y-98553157D01*
X85638072Y-98450000D01*
X85638072Y-98150000D01*
X85628223Y-98050000D01*
X85638072Y-97950000D01*
X85638072Y-97650000D01*
X85628223Y-97550000D01*
X85638072Y-97450000D01*
X85638072Y-97150000D01*
X85628223Y-97050000D01*
X85638072Y-96950000D01*
X85638072Y-96650000D01*
X85628223Y-96550000D01*
X85638072Y-96450000D01*
X85638072Y-96150000D01*
X85628223Y-96050000D01*
X85638072Y-95950000D01*
X85638072Y-95650000D01*
X85628223Y-95550000D01*
X85638072Y-95450000D01*
X85638072Y-95150000D01*
X85628223Y-95050000D01*
X85638072Y-94950000D01*
X85638072Y-94650000D01*
X85628223Y-94550000D01*
X85638072Y-94450000D01*
X85638072Y-94150000D01*
X85627912Y-94046843D01*
X85635000Y-93981750D01*
X85602753Y-93949503D01*
X85589502Y-93905820D01*
X85532939Y-93800000D01*
X85589502Y-93694180D01*
X85602753Y-93650497D01*
X85635000Y-93618250D01*
X85627912Y-93553157D01*
X85638072Y-93450000D01*
X85638072Y-93150000D01*
X85628223Y-93050000D01*
X85638072Y-92950000D01*
X85638072Y-92650000D01*
X85628223Y-92550000D01*
X85638072Y-92450000D01*
X85638072Y-92150000D01*
X85628223Y-92050000D01*
X85638072Y-91950000D01*
X85638072Y-91650000D01*
X85628223Y-91550000D01*
X85638072Y-91450000D01*
X85638072Y-91150000D01*
X85628223Y-91050000D01*
X85638072Y-90950000D01*
X85638072Y-90650000D01*
X85628223Y-90550000D01*
X85638072Y-90450000D01*
X85638072Y-90150000D01*
X85628223Y-90050000D01*
X85638072Y-89950000D01*
X85638072Y-89650000D01*
X85628223Y-89550000D01*
X85638072Y-89450000D01*
X85638072Y-89150000D01*
X85628223Y-89050000D01*
X85638072Y-88950000D01*
X85638072Y-88650000D01*
X85628223Y-88550000D01*
X85638072Y-88450000D01*
X85638072Y-88150000D01*
X85628223Y-88050000D01*
X85638072Y-87950000D01*
X85638072Y-87650000D01*
X85628223Y-87550000D01*
X85638072Y-87450000D01*
X85638072Y-87150000D01*
X85627912Y-87046843D01*
X85635000Y-86981750D01*
X85602753Y-86949503D01*
X85589502Y-86905820D01*
X85532939Y-86800000D01*
X85589502Y-86694180D01*
X85602753Y-86650497D01*
X85635000Y-86618250D01*
X85627912Y-86553157D01*
X85638072Y-86450000D01*
X85638072Y-86150000D01*
X85628223Y-86050000D01*
X85638072Y-85950000D01*
X85638072Y-85650000D01*
X85628223Y-85550000D01*
X85638072Y-85450000D01*
X85638072Y-85150000D01*
X85628223Y-85050000D01*
X85638072Y-84950000D01*
X85638072Y-84650000D01*
X85628223Y-84550000D01*
X85638072Y-84450000D01*
X85638072Y-84150000D01*
X85628223Y-84050000D01*
X85638072Y-83950000D01*
X85638072Y-83650000D01*
X85628223Y-83550000D01*
X85638072Y-83450000D01*
X85638072Y-83150000D01*
X85628223Y-83050000D01*
X85638072Y-82950000D01*
X85638072Y-82650000D01*
X85627912Y-82546843D01*
X85635000Y-82481750D01*
X85602753Y-82449503D01*
X85589502Y-82405820D01*
X85532939Y-82300000D01*
X85589502Y-82194180D01*
X85602753Y-82150497D01*
X85635000Y-82118250D01*
X85627912Y-82053157D01*
X85638072Y-81950000D01*
X85638072Y-81650000D01*
X85625812Y-81525518D01*
X85589502Y-81405820D01*
X85530537Y-81295506D01*
X85451185Y-81198815D01*
X85354494Y-81119463D01*
X85244180Y-81060498D01*
X85124482Y-81024188D01*
X85000000Y-81011928D01*
X83500000Y-81011928D01*
X83375518Y-81024188D01*
X83323393Y-81040000D01*
X82535538Y-81040000D01*
X82499205Y-81015723D01*
X82338145Y-80949010D01*
X82167165Y-80915000D01*
X81992835Y-80915000D01*
X81821855Y-80949010D01*
X81660795Y-81015723D01*
X81515845Y-81112576D01*
X81392576Y-81235845D01*
X81295723Y-81380795D01*
X81229010Y-81541855D01*
X81195000Y-81712835D01*
X81195000Y-81887165D01*
X81229010Y-82058145D01*
X81295723Y-82219205D01*
X81349709Y-82300000D01*
X81295723Y-82380795D01*
X81229010Y-82541855D01*
X81195000Y-82712835D01*
X81195000Y-82887165D01*
X81229010Y-83058145D01*
X81295723Y-83219205D01*
X81392576Y-83364155D01*
X81515845Y-83487424D01*
X81660795Y-83584277D01*
X81821855Y-83650990D01*
X81992835Y-83685000D01*
X82167165Y-83685000D01*
X82338145Y-83650990D01*
X82499205Y-83584277D01*
X82535538Y-83560000D01*
X82870792Y-83560000D01*
X82861928Y-83650000D01*
X82861928Y-83950000D01*
X82870792Y-84040000D01*
X74112322Y-84040000D01*
X74075000Y-84036324D01*
X74037677Y-84040000D01*
X74037667Y-84040000D01*
X73926014Y-84050997D01*
X73803792Y-84088072D01*
X73782753Y-84094454D01*
X73650723Y-84165026D01*
X73594704Y-84211000D01*
X73534999Y-84259999D01*
X73511201Y-84288997D01*
X72187457Y-85612741D01*
X72062327Y-85560911D01*
X71756109Y-85500000D01*
X71443891Y-85500000D01*
X71137673Y-85560911D01*
X70849221Y-85680391D01*
X70589621Y-85853850D01*
X70368850Y-86074621D01*
X70195391Y-86334221D01*
X70075911Y-86622673D01*
X70015000Y-86928891D01*
X70015000Y-87241109D01*
X70075911Y-87547327D01*
X70195391Y-87835779D01*
X70361164Y-88083877D01*
X70355820Y-88085498D01*
X70245506Y-88144463D01*
X70148815Y-88223815D01*
X70069463Y-88320506D01*
X70010498Y-88430820D01*
X69974188Y-88550518D01*
X69961928Y-88675000D01*
X69961928Y-90257567D01*
X69221942Y-90997553D01*
X69194816Y-91019815D01*
X69172554Y-91046941D01*
X69172551Y-91046944D01*
X69148860Y-91075812D01*
X69105966Y-91128078D01*
X69043200Y-91245506D01*
X69039945Y-91251596D01*
X68999288Y-91385621D01*
X68985561Y-91525000D01*
X68989001Y-91559928D01*
X68989001Y-92386928D01*
X68950000Y-92386928D01*
X68825518Y-92399188D01*
X68705820Y-92435498D01*
X68595506Y-92494463D01*
X68498815Y-92573815D01*
X68419463Y-92670506D01*
X68360498Y-92780820D01*
X68324188Y-92900518D01*
X68311928Y-93025000D01*
X67735000Y-93025000D01*
X67735000Y-78809419D01*
X71065000Y-78809419D01*
X71065000Y-79190581D01*
X71139361Y-79564419D01*
X71285225Y-79916566D01*
X71496987Y-80233491D01*
X71766509Y-80503013D01*
X72083434Y-80714775D01*
X72435581Y-80860639D01*
X72809419Y-80935000D01*
X73190581Y-80935000D01*
X73564419Y-80860639D01*
X73916566Y-80714775D01*
X74233491Y-80503013D01*
X74503013Y-80233491D01*
X74714775Y-79916566D01*
X74860639Y-79564419D01*
X74935000Y-79190581D01*
X74935000Y-78809419D01*
X74860639Y-78435581D01*
X74714775Y-78083434D01*
X74503013Y-77766509D01*
X74233491Y-77496987D01*
X73916566Y-77285225D01*
X73564419Y-77139361D01*
X73190581Y-77065000D01*
X72809419Y-77065000D01*
X72435581Y-77139361D01*
X72083434Y-77285225D01*
X71766509Y-77496987D01*
X71496987Y-77766509D01*
X71285225Y-78083434D01*
X71139361Y-78435581D01*
X71065000Y-78809419D01*
X67735000Y-78809419D01*
X67735000Y-75735000D01*
X138265001Y-75735000D01*
X138265001Y-76024729D01*
G36*
X88127000Y-110333000D02*
G01*
X88147000Y-110333000D01*
X88147000Y-110587000D01*
X88127000Y-110587000D01*
X88127000Y-110607000D01*
X87873000Y-110607000D01*
X87873000Y-110587000D01*
X87853000Y-110587000D01*
X87853000Y-110333000D01*
X87873000Y-110333000D01*
X87873000Y-110313000D01*
X88127000Y-110313000D01*
X88127000Y-110333000D01*
G37*
X88127000Y-110333000D02*
X88147000Y-110333000D01*
X88147000Y-110587000D01*
X88127000Y-110587000D01*
X88127000Y-110607000D01*
X87873000Y-110607000D01*
X87873000Y-110587000D01*
X87853000Y-110587000D01*
X87853000Y-110333000D01*
X87873000Y-110333000D01*
X87873000Y-110313000D01*
X88127000Y-110313000D01*
X88127000Y-110333000D01*
G36*
X98287000Y-110333000D02*
G01*
X98307000Y-110333000D01*
X98307000Y-110587000D01*
X98287000Y-110587000D01*
X98287000Y-110607000D01*
X98033000Y-110607000D01*
X98033000Y-110587000D01*
X98013000Y-110587000D01*
X98013000Y-110333000D01*
X98033000Y-110333000D01*
X98033000Y-110313000D01*
X98287000Y-110313000D01*
X98287000Y-110333000D01*
G37*
X98287000Y-110333000D02*
X98307000Y-110333000D01*
X98307000Y-110587000D01*
X98287000Y-110587000D01*
X98287000Y-110607000D01*
X98033000Y-110607000D01*
X98033000Y-110587000D01*
X98013000Y-110587000D01*
X98013000Y-110333000D01*
X98033000Y-110333000D01*
X98033000Y-110313000D01*
X98287000Y-110313000D01*
X98287000Y-110333000D01*
G36*
X95805820Y-102589502D02*
G01*
X95849503Y-102602753D01*
X95881750Y-102635000D01*
X95940001Y-102628657D01*
X95940001Y-102744461D01*
X95915723Y-102780795D01*
X95849010Y-102941855D01*
X95815000Y-103112835D01*
X95815000Y-103287165D01*
X95849010Y-103458145D01*
X95890947Y-103559390D01*
X95896246Y-103576859D01*
X95904851Y-103592959D01*
X95915723Y-103619205D01*
X95931506Y-103642826D01*
X95969139Y-103713232D01*
X96067236Y-103832764D01*
X96186768Y-103930861D01*
X96257174Y-103968494D01*
X96280795Y-103984277D01*
X96307041Y-103995149D01*
X96323141Y-104003754D01*
X96340610Y-104009053D01*
X96441855Y-104050990D01*
X96612835Y-104085000D01*
X96639000Y-104085000D01*
X96639001Y-104769488D01*
X96545506Y-104819463D01*
X96448815Y-104898815D01*
X96369463Y-104995506D01*
X96310498Y-105105820D01*
X96274188Y-105225518D01*
X96261928Y-105350000D01*
X96261928Y-106650000D01*
X96274188Y-106774482D01*
X96310498Y-106894180D01*
X96369463Y-107004494D01*
X96448815Y-107101185D01*
X96545506Y-107180537D01*
X96655820Y-107239502D01*
X96775518Y-107275812D01*
X96900000Y-107288072D01*
X96949159Y-107288072D01*
X96949288Y-107289379D01*
X96989944Y-107423403D01*
X97055965Y-107546921D01*
X97123320Y-107628993D01*
X97149010Y-107758145D01*
X97153506Y-107769000D01*
X96974506Y-107769000D01*
X95411000Y-106205495D01*
X95411000Y-102632064D01*
X95453157Y-102627912D01*
X95518250Y-102635000D01*
X95550497Y-102602753D01*
X95594180Y-102589502D01*
X95700000Y-102532939D01*
X95805820Y-102589502D01*
G37*
X95805820Y-102589502D02*
X95849503Y-102602753D01*
X95881750Y-102635000D01*
X95940001Y-102628657D01*
X95940001Y-102744461D01*
X95915723Y-102780795D01*
X95849010Y-102941855D01*
X95815000Y-103112835D01*
X95815000Y-103287165D01*
X95849010Y-103458145D01*
X95890947Y-103559390D01*
X95896246Y-103576859D01*
X95904851Y-103592959D01*
X95915723Y-103619205D01*
X95931506Y-103642826D01*
X95969139Y-103713232D01*
X96067236Y-103832764D01*
X96186768Y-103930861D01*
X96257174Y-103968494D01*
X96280795Y-103984277D01*
X96307041Y-103995149D01*
X96323141Y-104003754D01*
X96340610Y-104009053D01*
X96441855Y-104050990D01*
X96612835Y-104085000D01*
X96639000Y-104085000D01*
X96639001Y-104769488D01*
X96545506Y-104819463D01*
X96448815Y-104898815D01*
X96369463Y-104995506D01*
X96310498Y-105105820D01*
X96274188Y-105225518D01*
X96261928Y-105350000D01*
X96261928Y-106650000D01*
X96274188Y-106774482D01*
X96310498Y-106894180D01*
X96369463Y-107004494D01*
X96448815Y-107101185D01*
X96545506Y-107180537D01*
X96655820Y-107239502D01*
X96775518Y-107275812D01*
X96900000Y-107288072D01*
X96949159Y-107288072D01*
X96949288Y-107289379D01*
X96989944Y-107423403D01*
X97055965Y-107546921D01*
X97123320Y-107628993D01*
X97149010Y-107758145D01*
X97153506Y-107769000D01*
X96974506Y-107769000D01*
X95411000Y-106205495D01*
X95411000Y-102632064D01*
X95453157Y-102627912D01*
X95518250Y-102635000D01*
X95550497Y-102602753D01*
X95594180Y-102589502D01*
X95700000Y-102532939D01*
X95805820Y-102589502D01*
G36*
X104261928Y-92450000D02*
G01*
X104271777Y-92550000D01*
X104261928Y-92650000D01*
X104261928Y-92950000D01*
X104271777Y-93050000D01*
X104261928Y-93150000D01*
X104261928Y-93450000D01*
X104271777Y-93550000D01*
X104261928Y-93650000D01*
X104261928Y-93950000D01*
X104271777Y-94050000D01*
X104261928Y-94150000D01*
X104261928Y-94450000D01*
X104271777Y-94550000D01*
X104261928Y-94650000D01*
X104261928Y-94950000D01*
X104272088Y-95053157D01*
X104265000Y-95118250D01*
X104297247Y-95150497D01*
X104310498Y-95194180D01*
X104367061Y-95300000D01*
X104310498Y-95405820D01*
X104297247Y-95449503D01*
X104265000Y-95481750D01*
X104272088Y-95546843D01*
X104269235Y-95575804D01*
X104207753Y-95594454D01*
X104075724Y-95665026D01*
X103959999Y-95759999D01*
X103936201Y-95788997D01*
X102414714Y-97310485D01*
X102371855Y-97319010D01*
X102210795Y-97385723D01*
X102065845Y-97482576D01*
X101942576Y-97605845D01*
X101845723Y-97750795D01*
X101779010Y-97911855D01*
X101745000Y-98082835D01*
X101745000Y-98257165D01*
X101779010Y-98428145D01*
X101845723Y-98589205D01*
X101942576Y-98734155D01*
X102065845Y-98857424D01*
X102210795Y-98954277D01*
X102371855Y-99020990D01*
X102542835Y-99055000D01*
X102717165Y-99055000D01*
X102888145Y-99020990D01*
X103049205Y-98954277D01*
X103194155Y-98857424D01*
X103317424Y-98734155D01*
X103414277Y-98589205D01*
X103480990Y-98428145D01*
X103489515Y-98385286D01*
X104265984Y-97608818D01*
X104261928Y-97650000D01*
X104261928Y-97950000D01*
X104271777Y-98050000D01*
X104261928Y-98150000D01*
X104261928Y-98450000D01*
X104272088Y-98553157D01*
X104265000Y-98618250D01*
X104297247Y-98650497D01*
X104310498Y-98694180D01*
X104367061Y-98800000D01*
X104310498Y-98905820D01*
X104297247Y-98949503D01*
X104265000Y-98981750D01*
X104272088Y-99046843D01*
X104261928Y-99150000D01*
X104261928Y-99450000D01*
X104274188Y-99574482D01*
X104310498Y-99694180D01*
X104369463Y-99804494D01*
X104448815Y-99901185D01*
X104545506Y-99980537D01*
X104655820Y-100039502D01*
X104775518Y-100075812D01*
X104890000Y-100087087D01*
X104890001Y-100659563D01*
X104835723Y-100740795D01*
X104769010Y-100901855D01*
X104735000Y-101072835D01*
X104735000Y-101247165D01*
X104769010Y-101418145D01*
X104835723Y-101579205D01*
X104932576Y-101724155D01*
X105055845Y-101847424D01*
X105200795Y-101944277D01*
X105361855Y-102010990D01*
X105532835Y-102045000D01*
X105707165Y-102045000D01*
X105878145Y-102010990D01*
X106039205Y-101944277D01*
X106184155Y-101847424D01*
X106307424Y-101724155D01*
X106404277Y-101579205D01*
X106470990Y-101418145D01*
X106505000Y-101247165D01*
X106505000Y-101072835D01*
X106498446Y-101039881D01*
X109006241Y-101039881D01*
X109049416Y-101349099D01*
X109152087Y-101643952D01*
X109238558Y-101805729D01*
X109497848Y-101895455D01*
X110417995Y-100975308D01*
X109497848Y-100055161D01*
X109238558Y-100144887D01*
X109102665Y-100425979D01*
X109024221Y-100728181D01*
X109006241Y-101039881D01*
X106498446Y-101039881D01*
X106470990Y-100901855D01*
X106410000Y-100754612D01*
X106410000Y-100087087D01*
X106524482Y-100075812D01*
X106644180Y-100039502D01*
X106754494Y-99980537D01*
X106851185Y-99901185D01*
X106930537Y-99804494D01*
X106989502Y-99694180D01*
X107025812Y-99574482D01*
X107038072Y-99450000D01*
X107038072Y-99150000D01*
X107027912Y-99046843D01*
X107031815Y-99011000D01*
X109265495Y-99011000D01*
X109834681Y-99580186D01*
X109767179Y-99616266D01*
X109677453Y-99875556D01*
X110597600Y-100795703D01*
X110611743Y-100781561D01*
X110791348Y-100961166D01*
X110777205Y-100975308D01*
X110791348Y-100989451D01*
X110611743Y-101169056D01*
X110597600Y-101154913D01*
X109677453Y-102075060D01*
X109767179Y-102334350D01*
X110048271Y-102470243D01*
X110350473Y-102548687D01*
X110547359Y-102560044D01*
X109918403Y-103189000D01*
X104265443Y-103189000D01*
X104284557Y-103165709D01*
X104334974Y-103104277D01*
X104405546Y-102972247D01*
X104410485Y-102955966D01*
X104449003Y-102828986D01*
X104460000Y-102717333D01*
X104460000Y-102717324D01*
X104463676Y-102680001D01*
X104460000Y-102642678D01*
X104460000Y-102176607D01*
X104475812Y-102124482D01*
X104488072Y-102000000D01*
X104488072Y-100500000D01*
X104475812Y-100375518D01*
X104439502Y-100255820D01*
X104380537Y-100145506D01*
X104301185Y-100048815D01*
X104204494Y-99969463D01*
X104094180Y-99910498D01*
X103974482Y-99874188D01*
X103850000Y-99861928D01*
X103550000Y-99861928D01*
X103450000Y-99871777D01*
X103350000Y-99861928D01*
X103050000Y-99861928D01*
X102950000Y-99871777D01*
X102871414Y-99864037D01*
X102860056Y-99826596D01*
X102794035Y-99703078D01*
X102762806Y-99665026D01*
X102727449Y-99621943D01*
X102727443Y-99621937D01*
X102705184Y-99594815D01*
X102678064Y-99572558D01*
X101411000Y-98305495D01*
X101411000Y-95154505D01*
X104261928Y-92303578D01*
X104261928Y-92450000D01*
G37*
X104261928Y-92450000D02*
X104271777Y-92550000D01*
X104261928Y-92650000D01*
X104261928Y-92950000D01*
X104271777Y-93050000D01*
X104261928Y-93150000D01*
X104261928Y-93450000D01*
X104271777Y-93550000D01*
X104261928Y-93650000D01*
X104261928Y-93950000D01*
X104271777Y-94050000D01*
X104261928Y-94150000D01*
X104261928Y-94450000D01*
X104271777Y-94550000D01*
X104261928Y-94650000D01*
X104261928Y-94950000D01*
X104272088Y-95053157D01*
X104265000Y-95118250D01*
X104297247Y-95150497D01*
X104310498Y-95194180D01*
X104367061Y-95300000D01*
X104310498Y-95405820D01*
X104297247Y-95449503D01*
X104265000Y-95481750D01*
X104272088Y-95546843D01*
X104269235Y-95575804D01*
X104207753Y-95594454D01*
X104075724Y-95665026D01*
X103959999Y-95759999D01*
X103936201Y-95788997D01*
X102414714Y-97310485D01*
X102371855Y-97319010D01*
X102210795Y-97385723D01*
X102065845Y-97482576D01*
X101942576Y-97605845D01*
X101845723Y-97750795D01*
X101779010Y-97911855D01*
X101745000Y-98082835D01*
X101745000Y-98257165D01*
X101779010Y-98428145D01*
X101845723Y-98589205D01*
X101942576Y-98734155D01*
X102065845Y-98857424D01*
X102210795Y-98954277D01*
X102371855Y-99020990D01*
X102542835Y-99055000D01*
X102717165Y-99055000D01*
X102888145Y-99020990D01*
X103049205Y-98954277D01*
X103194155Y-98857424D01*
X103317424Y-98734155D01*
X103414277Y-98589205D01*
X103480990Y-98428145D01*
X103489515Y-98385286D01*
X104265984Y-97608818D01*
X104261928Y-97650000D01*
X104261928Y-97950000D01*
X104271777Y-98050000D01*
X104261928Y-98150000D01*
X104261928Y-98450000D01*
X104272088Y-98553157D01*
X104265000Y-98618250D01*
X104297247Y-98650497D01*
X104310498Y-98694180D01*
X104367061Y-98800000D01*
X104310498Y-98905820D01*
X104297247Y-98949503D01*
X104265000Y-98981750D01*
X104272088Y-99046843D01*
X104261928Y-99150000D01*
X104261928Y-99450000D01*
X104274188Y-99574482D01*
X104310498Y-99694180D01*
X104369463Y-99804494D01*
X104448815Y-99901185D01*
X104545506Y-99980537D01*
X104655820Y-100039502D01*
X104775518Y-100075812D01*
X104890000Y-100087087D01*
X104890001Y-100659563D01*
X104835723Y-100740795D01*
X104769010Y-100901855D01*
X104735000Y-101072835D01*
X104735000Y-101247165D01*
X104769010Y-101418145D01*
X104835723Y-101579205D01*
X104932576Y-101724155D01*
X105055845Y-101847424D01*
X105200795Y-101944277D01*
X105361855Y-102010990D01*
X105532835Y-102045000D01*
X105707165Y-102045000D01*
X105878145Y-102010990D01*
X106039205Y-101944277D01*
X106184155Y-101847424D01*
X106307424Y-101724155D01*
X106404277Y-101579205D01*
X106470990Y-101418145D01*
X106505000Y-101247165D01*
X106505000Y-101072835D01*
X106498446Y-101039881D01*
X109006241Y-101039881D01*
X109049416Y-101349099D01*
X109152087Y-101643952D01*
X109238558Y-101805729D01*
X109497848Y-101895455D01*
X110417995Y-100975308D01*
X109497848Y-100055161D01*
X109238558Y-100144887D01*
X109102665Y-100425979D01*
X109024221Y-100728181D01*
X109006241Y-101039881D01*
X106498446Y-101039881D01*
X106470990Y-100901855D01*
X106410000Y-100754612D01*
X106410000Y-100087087D01*
X106524482Y-100075812D01*
X106644180Y-100039502D01*
X106754494Y-99980537D01*
X106851185Y-99901185D01*
X106930537Y-99804494D01*
X106989502Y-99694180D01*
X107025812Y-99574482D01*
X107038072Y-99450000D01*
X107038072Y-99150000D01*
X107027912Y-99046843D01*
X107031815Y-99011000D01*
X109265495Y-99011000D01*
X109834681Y-99580186D01*
X109767179Y-99616266D01*
X109677453Y-99875556D01*
X110597600Y-100795703D01*
X110611743Y-100781561D01*
X110791348Y-100961166D01*
X110777205Y-100975308D01*
X110791348Y-100989451D01*
X110611743Y-101169056D01*
X110597600Y-101154913D01*
X109677453Y-102075060D01*
X109767179Y-102334350D01*
X110048271Y-102470243D01*
X110350473Y-102548687D01*
X110547359Y-102560044D01*
X109918403Y-103189000D01*
X104265443Y-103189000D01*
X104284557Y-103165709D01*
X104334974Y-103104277D01*
X104405546Y-102972247D01*
X104410485Y-102955966D01*
X104449003Y-102828986D01*
X104460000Y-102717333D01*
X104460000Y-102717324D01*
X104463676Y-102680001D01*
X104460000Y-102642678D01*
X104460000Y-102176607D01*
X104475812Y-102124482D01*
X104488072Y-102000000D01*
X104488072Y-100500000D01*
X104475812Y-100375518D01*
X104439502Y-100255820D01*
X104380537Y-100145506D01*
X104301185Y-100048815D01*
X104204494Y-99969463D01*
X104094180Y-99910498D01*
X103974482Y-99874188D01*
X103850000Y-99861928D01*
X103550000Y-99861928D01*
X103450000Y-99871777D01*
X103350000Y-99861928D01*
X103050000Y-99861928D01*
X102950000Y-99871777D01*
X102871414Y-99864037D01*
X102860056Y-99826596D01*
X102794035Y-99703078D01*
X102762806Y-99665026D01*
X102727449Y-99621943D01*
X102727443Y-99621937D01*
X102705184Y-99594815D01*
X102678064Y-99572558D01*
X101411000Y-98305495D01*
X101411000Y-95154505D01*
X104261928Y-92303578D01*
X104261928Y-92450000D01*
G36*
X131652000Y-91623000D02*
G01*
X131672000Y-91623000D01*
X131672000Y-91877000D01*
X131652000Y-91877000D01*
X131652000Y-92985000D01*
X132352000Y-92985000D01*
X132590496Y-92936493D01*
X132814946Y-92842390D01*
X133016725Y-92706307D01*
X133188078Y-92533474D01*
X133322421Y-92330533D01*
X133359474Y-92239980D01*
X133759000Y-92639506D01*
X133759000Y-93715966D01*
X133675518Y-93724188D01*
X133555820Y-93760498D01*
X133445506Y-93819463D01*
X133348815Y-93898815D01*
X133269463Y-93995506D01*
X133210498Y-94105820D01*
X133174188Y-94225518D01*
X133161928Y-94350000D01*
X133161928Y-95714614D01*
X133104926Y-95709000D01*
X133104918Y-95709000D01*
X133070000Y-95705561D01*
X133035082Y-95709000D01*
X131508072Y-95709000D01*
X131508072Y-94290000D01*
X131495812Y-94165518D01*
X131459502Y-94045820D01*
X131400537Y-93935506D01*
X131321185Y-93838815D01*
X131224494Y-93759463D01*
X131114180Y-93700498D01*
X130994482Y-93664188D01*
X130870000Y-93651928D01*
X130461000Y-93651928D01*
X130461000Y-92936797D01*
X130698000Y-92985000D01*
X131398000Y-92985000D01*
X131398000Y-91877000D01*
X131378000Y-91877000D01*
X131378000Y-91623000D01*
X131398000Y-91623000D01*
X131398000Y-91603000D01*
X131652000Y-91603000D01*
X131652000Y-91623000D01*
G37*
X131652000Y-91623000D02*
X131672000Y-91623000D01*
X131672000Y-91877000D01*
X131652000Y-91877000D01*
X131652000Y-92985000D01*
X132352000Y-92985000D01*
X132590496Y-92936493D01*
X132814946Y-92842390D01*
X133016725Y-92706307D01*
X133188078Y-92533474D01*
X133322421Y-92330533D01*
X133359474Y-92239980D01*
X133759000Y-92639506D01*
X133759000Y-93715966D01*
X133675518Y-93724188D01*
X133555820Y-93760498D01*
X133445506Y-93819463D01*
X133348815Y-93898815D01*
X133269463Y-93995506D01*
X133210498Y-94105820D01*
X133174188Y-94225518D01*
X133161928Y-94350000D01*
X133161928Y-95714614D01*
X133104926Y-95709000D01*
X133104918Y-95709000D01*
X133070000Y-95705561D01*
X133035082Y-95709000D01*
X131508072Y-95709000D01*
X131508072Y-94290000D01*
X131495812Y-94165518D01*
X131459502Y-94045820D01*
X131400537Y-93935506D01*
X131321185Y-93838815D01*
X131224494Y-93759463D01*
X131114180Y-93700498D01*
X130994482Y-93664188D01*
X130870000Y-93651928D01*
X130461000Y-93651928D01*
X130461000Y-92936797D01*
X130698000Y-92985000D01*
X131398000Y-92985000D01*
X131398000Y-91877000D01*
X131378000Y-91877000D01*
X131378000Y-91623000D01*
X131398000Y-91623000D01*
X131398000Y-91603000D01*
X131652000Y-91603000D01*
X131652000Y-91623000D01*
G36*
X128659001Y-92515000D02*
G01*
X128610506Y-92515000D01*
X128659001Y-92466505D01*
X128659001Y-92515000D01*
G37*
X128659001Y-92515000D02*
X128610506Y-92515000D01*
X128659001Y-92466505D01*
X128659001Y-92515000D01*
G36*
X109202549Y-89228054D02*
G01*
X109204303Y-89230191D01*
X108551944Y-89882551D01*
X108345495Y-90089000D01*
X107032064Y-90089000D01*
X107028223Y-90050000D01*
X107038072Y-89950000D01*
X107038072Y-89650000D01*
X107027912Y-89546843D01*
X107035000Y-89481750D01*
X107002753Y-89449503D01*
X106989502Y-89405820D01*
X106932939Y-89300000D01*
X106989502Y-89194180D01*
X107002753Y-89150497D01*
X107035000Y-89118250D01*
X107027912Y-89053157D01*
X107032064Y-89011000D01*
X108985495Y-89011000D01*
X109202549Y-89228054D01*
G37*
X109202549Y-89228054D02*
X109204303Y-89230191D01*
X108551944Y-89882551D01*
X108345495Y-90089000D01*
X107032064Y-90089000D01*
X107028223Y-90050000D01*
X107038072Y-89950000D01*
X107038072Y-89650000D01*
X107027912Y-89546843D01*
X107035000Y-89481750D01*
X107002753Y-89449503D01*
X106989502Y-89405820D01*
X106932939Y-89300000D01*
X106989502Y-89194180D01*
X107002753Y-89150497D01*
X107035000Y-89118250D01*
X107027912Y-89053157D01*
X107032064Y-89011000D01*
X108985495Y-89011000D01*
X109202549Y-89228054D01*
M02*
